<?xml version="1.0" encoding="utf-8"?>
<!-- Generator: Adobe Illustrator 24.0.1, SVG Export Plug-In . SVG Version: 6.00 Build 0)  -->
<svg version="1.1" id="Layer_1" xmlns="http://www.w3.org/2000/svg" xmlns:xlink="http://www.w3.org/1999/xlink" x="0px" y="0px"
	 viewBox="0 0 653.3 427.4" style="enable-background:new 0 0 653.3 427.4;" xml:space="preserve">
<style type="text/css">
	.st0{fill:url(#SVGID_1_);}
	.st1{fill:#341F97;}
	.st2{fill:url(#SVGID_2_);}
</style>
<g>
	<linearGradient id="SVGID_1_" gradientUnits="userSpaceOnUse" x1="1.0703" y1="214.4449" x2="456.8631" y2="214.4449">
		<stop  offset="0.3957" style="stop-color:#5F27CD"/>
		<stop  offset="1" style="stop-color:#27272E"/>
	</linearGradient>
	<path class="st0" d="M382.4,342.5c-16.2,17.1-39.1,27.9-64.4,27.9H110.6L57.5,406V147.2c0-48.9,39.8-88.6,88.6-88.6h7.4v0h290.1
		C421.8,24.6,383.7,2.2,340.4,2.2H123.7C56,2.2,1.1,57,1.1,124.7v179.4c0,67.7,54.9,122.6,122.6,122.6h216.8
		c54.3,0,100.3-35.3,116.4-84.3H382.4z"/>
	<g>
		<g>
			<path class="st1" d="M121.5,309.2c-1.2,0-2.4-0.2-3.6-0.6c-1.2-0.4-2.1-0.9-2.9-1.5l1.2-2.6c0.4,0.3,0.9,0.6,1.5,0.9
				s1.2,0.4,1.8,0.6c0.6,0.1,1.3,0.2,1.9,0.2c1.2,0,2.2-0.2,3-0.6c0.8-0.4,1.4-1,1.8-1.7c0.4-0.8,0.6-1.7,0.6-2.8v-3.2l0.4,0.2
				c-0.1,0.7-0.5,1.3-1,1.9s-1.3,1.1-2.2,1.5c-0.9,0.4-1.8,0.6-2.7,0.6c-1.6,0-3-0.4-4.3-1.1c-1.3-0.8-2.2-1.8-3-3.1
				c-0.7-1.3-1.1-2.8-1.1-4.5c0-1.7,0.4-3.2,1.1-4.5c0.7-1.3,1.7-2.4,3-3.1c1.3-0.8,2.7-1.1,4.2-1.1c0.6,0,1.3,0.1,1.9,0.2
				c0.6,0.2,1.2,0.4,1.7,0.7c0.5,0.3,1,0.6,1.4,0.9c0.4,0.3,0.7,0.7,1,1.1s0.4,0.8,0.5,1.1l-0.7,0.3v-4h3.3v15.8
				c0,1.3-0.2,2.5-0.6,3.6c-0.4,1-1,1.9-1.7,2.6c-0.8,0.7-1.7,1.3-2.7,1.6C124,309,122.8,309.2,121.5,309.2z M121.6,299
				c1,0,2-0.2,2.8-0.7c0.8-0.5,1.4-1.2,1.9-2c0.4-0.9,0.7-1.8,0.7-3c0-1.1-0.2-2.1-0.7-3s-1.1-1.5-1.9-2c-0.8-0.5-1.7-0.7-2.8-0.7
				c-1,0-1.9,0.3-2.7,0.8c-0.8,0.5-1.4,1.2-1.9,2.1c-0.5,0.9-0.7,1.8-0.7,2.9c0,1.1,0.2,2.1,0.7,2.9c0.5,0.9,1.1,1.5,1.9,2
				C119.6,298.8,120.6,299,121.6,299z"/>
			<path class="st1" d="M142.6,302.1c-1.7,0-3.3-0.4-4.6-1.1c-1.3-0.7-2.4-1.8-3.1-3c-0.8-1.3-1.1-2.8-1.1-4.4
				c0-1.3,0.2-2.5,0.6-3.6c0.4-1.1,1-2,1.8-2.8c0.8-0.8,1.7-1.4,2.7-1.9c1.1-0.4,2.2-0.7,3.5-0.7c1.1,0,2.1,0.2,3.1,0.6
				c0.9,0.4,1.8,1,2.5,1.7c0.7,0.7,1.2,1.6,1.6,2.6c0.4,1,0.6,2.1,0.5,3.3l0,1.4h-13.8l-0.7-2.6h11.7l-0.5,0.5v-0.8
				c-0.1-0.7-0.3-1.3-0.7-1.9c-0.4-0.6-0.9-1-1.5-1.3c-0.6-0.3-1.3-0.5-2-0.5c-1.2,0-2.1,0.2-2.9,0.7c-0.8,0.4-1.4,1.1-1.8,1.9
				s-0.6,1.9-0.6,3.1c0,1.2,0.2,2.2,0.7,3.1s1.2,1.5,2.1,2c0.9,0.5,1.9,0.7,3.1,0.7c0.8,0,1.6-0.1,2.3-0.4c0.7-0.3,1.5-0.8,2.3-1.5
				l1.7,2.3c-0.5,0.5-1.1,1-1.9,1.3s-1.5,0.7-2.3,0.9C144.2,302,143.4,302.1,142.6,302.1z"/>
			<path class="st1" d="M152.2,288.1v-3.2h10.7v3.2H152.2z M155.7,301.8v-21.2h3.3v21.2H155.7z"/>
			<path class="st1" d="M174.9,301.8v-16.9h3.3v5.3l-0.3-1.3c0.2-0.8,0.6-1.6,1.2-2.2s1.2-1.2,2-1.6s1.5-0.6,2.3-0.6
				c0.4,0,0.7,0,1,0.1c0.3,0.1,0.6,0.1,0.8,0.2l-0.9,3.6c-0.3-0.1-0.5-0.2-0.9-0.3c-0.3-0.1-0.6-0.1-0.9-0.1c-0.6,0-1.1,0.1-1.7,0.3
				c-0.5,0.2-1,0.5-1.4,0.9c-0.4,0.4-0.7,0.9-0.9,1.4c-0.2,0.5-0.4,1.1-0.4,1.7v9.3H174.9z"/>
			<path class="st1" d="M195,302.1c-1.7,0-3.3-0.4-4.6-1.1c-1.3-0.7-2.4-1.8-3.1-3c-0.8-1.3-1.1-2.8-1.1-4.4c0-1.3,0.2-2.5,0.6-3.6
				c0.4-1.1,1-2,1.8-2.8c0.8-0.8,1.7-1.4,2.7-1.9c1.1-0.4,2.2-0.7,3.5-0.7c1.1,0,2.1,0.2,3.1,0.6c0.9,0.4,1.8,1,2.5,1.7
				c0.7,0.7,1.2,1.6,1.6,2.6c0.4,1,0.6,2.1,0.5,3.3l0,1.4h-13.8l-0.7-2.6h11.7L199,292v-0.8c-0.1-0.7-0.3-1.3-0.7-1.9
				c-0.4-0.6-0.9-1-1.5-1.3c-0.6-0.3-1.3-0.5-2-0.5c-1.2,0-2.1,0.2-2.9,0.7c-0.8,0.4-1.4,1.1-1.8,1.9s-0.6,1.9-0.6,3.1
				c0,1.2,0.2,2.2,0.7,3.1s1.2,1.5,2.1,2c0.9,0.5,1.9,0.7,3.1,0.7c0.8,0,1.6-0.1,2.3-0.4c0.7-0.3,1.5-0.8,2.3-1.5l1.7,2.3
				c-0.5,0.5-1.1,1-1.9,1.3s-1.5,0.7-2.3,0.9C196.6,302,195.8,302.1,195,302.1z"/>
			<path class="st1" d="M212.5,302.1c-1.4,0-2.7-0.4-3.8-1.2c-1.1-0.8-2.1-1.8-2.7-3.1c-0.7-1.3-1-2.8-1-4.5c0-1.7,0.3-3.2,1-4.5
				c0.7-1.3,1.6-2.3,2.8-3.1c1.2-0.7,2.5-1.1,4-1.1c0.9,0,1.7,0.1,2.4,0.4c0.7,0.3,1.4,0.6,1.9,1.1c0.5,0.5,1,1,1.3,1.6
				c0.4,0.6,0.6,1.2,0.7,1.9l-0.7-0.3v-4.4h3.3v16.9h-3.3v-4l0.8-0.2c-0.1,0.6-0.4,1.1-0.8,1.7c-0.4,0.5-0.9,1-1.5,1.5s-1.3,0.8-2,1
				S213.3,302.1,212.5,302.1z M213.3,299c1,0,1.9-0.2,2.7-0.7c0.8-0.5,1.4-1.2,1.8-2c0.4-0.9,0.7-1.9,0.7-3c0-1.1-0.2-2.1-0.7-2.9
				c-0.4-0.9-1-1.5-1.8-2c-0.8-0.5-1.7-0.7-2.7-0.7c-1,0-1.9,0.2-2.6,0.7c-0.8,0.5-1.4,1.2-1.8,2c-0.4,0.9-0.7,1.8-0.7,2.9
				c0,1.1,0.2,2.1,0.7,3c0.4,0.9,1,1.5,1.8,2C211.5,298.8,212.3,299,213.3,299z"/>
			<path class="st1" d="M226.4,301.8V278h3.3v23.8H226.4z"/>
			<path class="st1" d="M243.4,301.8v-16.9h3.3v3.5l-0.6,0.4c0.2-0.8,0.6-1.4,1.3-2.1c0.6-0.6,1.4-1.1,2.2-1.5
				c0.9-0.4,1.7-0.6,2.6-0.6c1.3,0,2.4,0.3,3.2,0.8c0.9,0.5,1.5,1.3,1.9,2.3c0.4,1,0.6,2.3,0.6,3.9v10.3h-3.3v-10.1
				c0-1-0.1-1.8-0.4-2.4c-0.3-0.6-0.7-1.1-1.2-1.4c-0.5-0.3-1.2-0.4-2-0.4c-0.6,0-1.2,0.1-1.8,0.3c-0.5,0.2-1,0.5-1.4,0.9
				c-0.4,0.4-0.7,0.8-0.9,1.3c-0.2,0.5-0.3,1-0.3,1.6v10.2H245c-0.3,0-0.6,0-0.8,0C243.9,301.8,243.6,301.8,243.4,301.8z"/>
			<path class="st1" d="M268.4,302.1c-1.2,0-2.2-0.3-3.1-0.8c-0.9-0.6-1.6-1.3-2.1-2.3c-0.5-1-0.7-2.2-0.7-3.6v-10.4h3.3v9.5
				c0,1,0.2,1.8,0.5,2.6c0.3,0.7,0.8,1.3,1.3,1.7c0.6,0.4,1.3,0.6,2.1,0.6c0.6,0,1.2-0.1,1.7-0.3c0.5-0.2,1-0.5,1.3-0.9
				c0.4-0.4,0.7-0.8,0.9-1.3c0.2-0.5,0.3-1.1,0.3-1.7v-10.2h3.3v16.9H274v-3.5l0.6-0.4c-0.3,0.8-0.7,1.5-1.3,2.2s-1.3,1.2-2.2,1.5
				C270.2,301.9,269.3,302.1,268.4,302.1z"/>
			<path class="st1" d="M281.8,301.8v-16.9h3.3v3.6l-0.6,0.4c0.2-0.6,0.4-1.1,0.8-1.6c0.4-0.5,0.8-1,1.4-1.4
				c0.5-0.4,1.1-0.7,1.8-0.9c0.6-0.2,1.3-0.4,1.9-0.4c1,0,1.8,0.2,2.5,0.5c0.7,0.3,1.3,0.8,1.8,1.4c0.5,0.6,0.8,1.4,1,2.4l-0.5-0.1
				l0.2-0.5c0.2-0.5,0.6-1,1-1.4c0.4-0.4,0.9-0.8,1.4-1.2c0.5-0.3,1.1-0.6,1.7-0.8c0.6-0.2,1.2-0.3,1.8-0.3c1.3,0,2.3,0.3,3.1,0.8
				c0.8,0.5,1.4,1.3,1.9,2.3c0.4,1,0.6,2.4,0.6,3.9v10.1h-3.3v-9.9c0-1-0.1-1.8-0.4-2.4s-0.6-1.1-1.1-1.4c-0.5-0.3-1.1-0.5-1.9-0.5
				c-0.6,0-1.2,0.1-1.7,0.3c-0.5,0.2-1,0.5-1.4,0.9c-0.4,0.4-0.7,0.8-0.9,1.3c-0.2,0.5-0.3,1-0.3,1.6v10.1h-3.3v-10
				c0-0.9-0.1-1.6-0.4-2.2c-0.3-0.6-0.6-1.1-1.1-1.4c-0.5-0.3-1.1-0.5-1.8-0.5c-0.6,0-1.2,0.1-1.7,0.3c-0.5,0.2-1,0.5-1.3,0.8
				c-0.4,0.4-0.7,0.8-0.9,1.3c-0.2,0.5-0.3,1-0.3,1.6v10.2H281.8z"/>
			<path class="st1" d="M320.3,302.1c-0.7,0-1.5-0.1-2.2-0.4c-0.7-0.2-1.4-0.6-2-0.9c-0.6-0.4-1.1-0.8-1.5-1.3
				c-0.4-0.5-0.7-1-0.8-1.5l0.8-0.5v4.1h-3.3V278h3.3v10.8l-0.5-0.3c0.1-0.5,0.3-1,0.7-1.4c0.4-0.5,0.8-0.9,1.4-1.3
				c0.6-0.4,1.2-0.7,1.8-0.9s1.3-0.3,2-0.3c1.5,0,2.9,0.4,4,1.1c1.2,0.8,2.1,1.8,2.8,3.1c0.7,1.3,1,2.8,1,4.5c0,1.7-0.3,3.2-1,4.5
				c-0.7,1.3-1.6,2.4-2.8,3.1C323.2,301.7,321.8,302.1,320.3,302.1z M319.8,299.1c1,0,1.9-0.3,2.6-0.8c0.8-0.5,1.4-1.2,1.8-2.1
				c0.5-0.9,0.7-1.9,0.7-3c0-1.1-0.2-2.1-0.7-2.9c-0.4-0.9-1-1.5-1.8-2c-0.8-0.5-1.7-0.7-2.7-0.7c-1,0-1.9,0.2-2.7,0.7
				c-0.8,0.5-1.4,1.2-1.8,2c-0.4,0.9-0.7,1.8-0.7,2.9c0,1.1,0.2,2.1,0.7,3c0.5,0.9,1.1,1.6,1.8,2.1
				C317.9,298.8,318.8,299.1,319.8,299.1z"/>
			<path class="st1" d="M339.6,302.1c-1.7,0-3.3-0.4-4.6-1.1c-1.3-0.7-2.4-1.8-3.1-3c-0.8-1.3-1.1-2.8-1.1-4.4
				c0-1.3,0.2-2.5,0.6-3.6c0.4-1.1,1-2,1.8-2.8s1.7-1.4,2.7-1.9c1.1-0.4,2.2-0.7,3.5-0.7c1.1,0,2.1,0.2,3.1,0.6
				c0.9,0.4,1.8,1,2.5,1.7c0.7,0.7,1.2,1.6,1.6,2.6c0.4,1,0.6,2.1,0.5,3.3l0,1.4h-13.8l-0.7-2.6h11.7l-0.5,0.5v-0.8
				c-0.1-0.7-0.3-1.3-0.7-1.9c-0.4-0.6-0.9-1-1.5-1.3s-1.3-0.5-2-0.5c-1.2,0-2.1,0.2-2.9,0.7c-0.8,0.4-1.4,1.1-1.8,1.9
				c-0.4,0.8-0.6,1.9-0.6,3.1c0,1.2,0.2,2.2,0.7,3.1c0.5,0.9,1.2,1.5,2.1,2c0.9,0.5,1.9,0.7,3.1,0.7c0.8,0,1.6-0.1,2.3-0.4
				c0.7-0.3,1.5-0.8,2.3-1.5l1.7,2.3c-0.5,0.5-1.1,1-1.9,1.3c-0.7,0.4-1.5,0.7-2.3,0.9C341.2,302,340.4,302.1,339.6,302.1z"/>
			<path class="st1" d="M350.5,301.8v-16.9h3.3v5.3l-0.3-1.3c0.2-0.8,0.6-1.6,1.2-2.2s1.2-1.2,2-1.6c0.7-0.4,1.5-0.6,2.3-0.6
				c0.4,0,0.7,0,1,0.1c0.3,0.1,0.6,0.1,0.8,0.2l-0.9,3.6c-0.3-0.1-0.5-0.2-0.9-0.3c-0.3-0.1-0.6-0.1-0.9-0.1c-0.6,0-1.1,0.1-1.7,0.3
				c-0.5,0.2-1,0.5-1.4,0.9c-0.4,0.4-0.7,0.9-0.9,1.4c-0.2,0.5-0.4,1.1-0.4,1.7v9.3H350.5z"/>
			<path class="st1" d="M361.8,307.5l-1.2-1.5c0.7-0.4,1.4-0.9,1.8-1.5c0.5-0.6,0.7-1,0.7-1.4c0-0.2-0.1-0.4-0.2-0.6
				c-0.1-0.2-0.3-0.5-0.7-0.9c-0.4-0.4-0.7-0.7-0.8-1s-0.2-0.6-0.2-0.9c0-0.5,0.2-0.9,0.5-1.2c0.4-0.3,0.8-0.5,1.4-0.5
				c0.5,0,1,0.2,1.5,0.5c0.4,0.3,0.8,0.7,1,1.3s0.4,1.2,0.4,1.9c0,0.6-0.1,1.3-0.3,1.9s-0.5,1.2-0.9,1.7c-0.4,0.5-0.8,1-1.3,1.4
				C362.9,307,362.4,307.3,361.8,307.5z"/>
			<path class="st1" d="M384.4,302.1c-1.4,0-2.7-0.2-3.8-0.7c-1.1-0.5-2.1-1.2-2.8-2.2l2.2-1.9c0.6,0.8,1.3,1.3,2.1,1.6
				c0.8,0.3,1.6,0.5,2.6,0.5c0.4,0,0.7,0,1.1-0.1c0.3-0.1,0.6-0.2,0.9-0.4c0.2-0.2,0.4-0.4,0.6-0.7c0.1-0.3,0.2-0.6,0.2-0.9
				c0-0.6-0.2-1-0.6-1.3c-0.2-0.1-0.6-0.3-1-0.5c-0.5-0.2-1.1-0.4-1.8-0.6c-1.2-0.3-2.3-0.7-3.1-1.1c-0.8-0.4-1.4-0.9-1.8-1.4
				c-0.3-0.4-0.6-0.9-0.7-1.3c-0.2-0.5-0.2-1-0.2-1.6c0-0.7,0.2-1.4,0.5-1.9s0.7-1.1,1.3-1.5s1.2-0.8,1.9-1c0.7-0.2,1.5-0.4,2.4-0.4
				c0.8,0,1.6,0.1,2.4,0.3c0.8,0.2,1.5,0.5,2.2,0.9c0.7,0.4,1.2,0.9,1.7,1.4l-1.9,2.1c-0.4-0.4-0.9-0.8-1.3-1.1
				c-0.5-0.3-1-0.6-1.5-0.7c-0.5-0.2-0.9-0.3-1.3-0.3c-0.5,0-0.9,0-1.2,0.1c-0.4,0.1-0.7,0.2-0.9,0.4c-0.2,0.2-0.4,0.4-0.6,0.6
				c-0.1,0.3-0.2,0.5-0.2,0.9c0,0.3,0.1,0.5,0.2,0.8c0.1,0.2,0.3,0.5,0.5,0.6c0.2,0.2,0.6,0.4,1.1,0.5c0.5,0.2,1.1,0.4,1.8,0.5
				c1.1,0.3,2,0.6,2.7,0.9c0.7,0.3,1.2,0.7,1.7,1.1c0.4,0.4,0.7,0.9,0.9,1.4c0.2,0.5,0.3,1.1,0.3,1.8c0,1-0.3,1.8-0.8,2.6
				c-0.5,0.8-1.3,1.4-2.2,1.8S385.6,302.1,384.4,302.1z"/>
			<path class="st1" d="M400.7,302.1c-1.4,0-2.7-0.4-3.8-1.2c-1.1-0.8-2.1-1.8-2.7-3.1c-0.7-1.3-1-2.8-1-4.5c0-1.7,0.3-3.2,1-4.5
				c0.7-1.3,1.6-2.3,2.8-3.1c1.2-0.7,2.5-1.1,4-1.1c0.9,0,1.7,0.1,2.4,0.4c0.7,0.3,1.4,0.6,1.9,1.1c0.5,0.5,1,1,1.3,1.6
				s0.6,1.2,0.7,1.9l-0.7-0.3v-4.4h3.3v16.9h-3.3v-4l0.8-0.2c-0.1,0.6-0.4,1.1-0.8,1.7s-0.9,1-1.5,1.5s-1.3,0.8-2,1
				C402.3,302,401.5,302.1,400.7,302.1z M401.6,299c1,0,1.9-0.2,2.7-0.7c0.8-0.5,1.4-1.2,1.8-2s0.7-1.9,0.7-3c0-1.1-0.2-2.1-0.7-2.9
				c-0.4-0.9-1-1.5-1.8-2c-0.8-0.5-1.7-0.7-2.7-0.7c-1,0-1.9,0.2-2.6,0.7c-0.8,0.5-1.4,1.2-1.8,2c-0.4,0.9-0.7,1.8-0.7,2.9
				c0,1.1,0.2,2.1,0.7,3c0.4,0.9,1,1.5,1.8,2C399.7,298.8,400.6,299,401.6,299z"/>
			<path class="st1" d="M419.7,301.8l-7.1-16.9h3.6l5.1,12.6l-0.6,0.3l5.5-12.9h3.4l-7.5,16.9H419.7z"/>
			<path class="st1" d="M439.9,302.1c-1.7,0-3.3-0.4-4.6-1.1c-1.3-0.7-2.4-1.8-3.1-3c-0.8-1.3-1.1-2.8-1.1-4.4
				c0-1.3,0.2-2.5,0.6-3.6c0.4-1.1,1-2,1.8-2.8s1.7-1.4,2.7-1.9c1.1-0.4,2.2-0.7,3.5-0.7c1.1,0,2.1,0.2,3.1,0.6
				c0.9,0.4,1.8,1,2.5,1.7c0.7,0.7,1.2,1.6,1.6,2.6c0.4,1,0.6,2.1,0.5,3.3l0,1.4h-13.8l-0.7-2.6h11.7l-0.5,0.5v-0.8
				c-0.1-0.7-0.3-1.3-0.7-1.9c-0.4-0.6-0.9-1-1.5-1.3s-1.3-0.5-2-0.5c-1.2,0-2.1,0.2-2.9,0.7c-0.8,0.4-1.4,1.1-1.8,1.9
				c-0.4,0.8-0.6,1.9-0.6,3.1c0,1.2,0.2,2.2,0.7,3.1c0.5,0.9,1.2,1.5,2.1,2c0.9,0.5,1.9,0.7,3.1,0.7c0.8,0,1.6-0.1,2.3-0.4
				c0.7-0.3,1.5-0.8,2.3-1.5l1.7,2.3c-0.5,0.5-1.1,1-1.9,1.3c-0.7,0.4-1.5,0.7-2.3,0.9C441.5,302,440.7,302.1,439.9,302.1z"/>
			<path class="st1" d="M459.8,301.8v-16.9h3.3v3.6l-0.6,0.4c0.2-0.6,0.4-1.1,0.8-1.6c0.4-0.5,0.8-1,1.4-1.4
				c0.5-0.4,1.1-0.7,1.8-0.9c0.6-0.2,1.3-0.4,1.9-0.4c1,0,1.8,0.2,2.5,0.5c0.7,0.3,1.3,0.8,1.8,1.4c0.5,0.6,0.8,1.4,1,2.4l-0.5-0.1
				l0.2-0.5c0.2-0.5,0.6-1,1-1.4c0.4-0.4,0.9-0.8,1.4-1.2s1.1-0.6,1.7-0.8c0.6-0.2,1.2-0.3,1.8-0.3c1.3,0,2.3,0.3,3.1,0.8
				c0.8,0.5,1.4,1.3,1.9,2.3c0.4,1,0.6,2.4,0.6,3.9v10.1h-3.3v-9.9c0-1-0.1-1.8-0.4-2.4c-0.2-0.6-0.6-1.1-1.1-1.4
				c-0.5-0.3-1.1-0.5-1.9-0.5c-0.6,0-1.2,0.1-1.7,0.3c-0.5,0.2-1,0.5-1.4,0.9c-0.4,0.4-0.7,0.8-0.9,1.3c-0.2,0.5-0.3,1-0.3,1.6v10.1
				h-3.3v-10c0-0.9-0.1-1.6-0.4-2.2s-0.6-1.1-1.1-1.4c-0.5-0.3-1.1-0.5-1.8-0.5c-0.6,0-1.2,0.1-1.7,0.3c-0.5,0.2-1,0.5-1.3,0.8
				s-0.7,0.8-0.9,1.3c-0.2,0.5-0.3,1-0.3,1.6v10.2H459.8z"/>
			<path class="st1" d="M497,302.1c-1.6,0-3.1-0.4-4.4-1.1c-1.3-0.8-2.3-1.8-3.1-3.1c-0.8-1.3-1.1-2.8-1.1-4.5
				c0-1.7,0.4-3.2,1.1-4.5c0.7-1.3,1.8-2.4,3.1-3.1c1.3-0.8,2.8-1.1,4.4-1.1c1.6,0,3.1,0.4,4.4,1.1c1.3,0.8,2.3,1.8,3.1,3.1
				c0.7,1.3,1.1,2.8,1.1,4.5c0,1.7-0.4,3.2-1.1,4.5c-0.8,1.3-1.8,2.4-3.1,3.1C500.1,301.7,498.7,302.1,497,302.1z M497,299.1
				c1,0,1.9-0.3,2.7-0.8c0.8-0.5,1.4-1.2,1.9-2.1c0.5-0.9,0.7-1.8,0.6-2.9c0-1.1-0.2-2.1-0.6-3c-0.4-0.9-1.1-1.5-1.9-2
				c-0.8-0.5-1.7-0.7-2.7-0.7c-1,0-1.9,0.3-2.7,0.8c-0.8,0.5-1.4,1.2-1.9,2.1c-0.4,0.9-0.7,1.8-0.6,2.9c0,1.1,0.2,2.1,0.6,2.9
				c0.5,0.9,1.1,1.6,1.9,2.1C495.1,298.8,496,299.1,497,299.1z"/>
			<path class="st1" d="M509.2,301.8v-16.9h3.3v5.3l-0.3-1.3c0.2-0.8,0.6-1.6,1.2-2.2c0.6-0.7,1.2-1.2,2-1.6
				c0.7-0.4,1.5-0.6,2.3-0.6c0.4,0,0.7,0,1,0.1c0.3,0.1,0.6,0.1,0.8,0.2l-0.9,3.6c-0.3-0.1-0.5-0.2-0.9-0.3
				c-0.3-0.1-0.6-0.1-0.9-0.1c-0.6,0-1.1,0.1-1.7,0.3c-0.5,0.2-1,0.5-1.4,0.9c-0.4,0.4-0.7,0.9-0.9,1.4c-0.2,0.5-0.4,1.1-0.4,1.7
				v9.3H509.2z"/>
			<path class="st1" d="M529.3,302.1c-1.7,0-3.3-0.4-4.6-1.1c-1.3-0.7-2.4-1.8-3.1-3s-1.1-2.8-1.1-4.4c0-1.3,0.2-2.5,0.6-3.6
				c0.4-1.1,1-2,1.8-2.8c0.8-0.8,1.7-1.4,2.7-1.9c1.1-0.4,2.2-0.7,3.5-0.7c1.1,0,2.1,0.2,3.1,0.6c0.9,0.4,1.8,1,2.5,1.7
				c0.7,0.7,1.2,1.6,1.6,2.6s0.6,2.1,0.5,3.3l0,1.4h-13.8l-0.7-2.6h11.7l-0.5,0.5v-0.8c-0.1-0.7-0.3-1.3-0.7-1.9
				c-0.4-0.6-0.9-1-1.5-1.3s-1.3-0.5-2-0.5c-1.2,0-2.1,0.2-2.9,0.7c-0.8,0.4-1.4,1.1-1.8,1.9c-0.4,0.8-0.6,1.9-0.6,3.1
				c0,1.2,0.2,2.2,0.7,3.1s1.2,1.5,2.1,2c0.9,0.5,1.9,0.7,3.1,0.7c0.8,0,1.6-0.1,2.3-0.4c0.7-0.3,1.5-0.8,2.3-1.5l1.7,2.3
				c-0.5,0.5-1.1,1-1.9,1.3c-0.7,0.4-1.5,0.7-2.3,0.9C530.9,302,530.1,302.1,529.3,302.1z"/>
			<path class="st1" d="M549.2,301.8v-16.9h3.3v3.6l-0.6,0.4c0.2-0.6,0.4-1.1,0.8-1.6c0.4-0.5,0.8-1,1.4-1.4
				c0.5-0.4,1.1-0.7,1.8-0.9c0.6-0.2,1.3-0.4,1.9-0.4c1,0,1.8,0.2,2.5,0.5c0.7,0.3,1.3,0.8,1.8,1.4c0.5,0.6,0.8,1.4,1,2.4l-0.5-0.1
				l0.2-0.5c0.2-0.5,0.6-1,1-1.4c0.4-0.4,0.9-0.8,1.4-1.2s1.1-0.6,1.7-0.8c0.6-0.2,1.2-0.3,1.8-0.3c1.3,0,2.3,0.3,3.1,0.8
				c0.8,0.5,1.4,1.3,1.9,2.3c0.4,1,0.6,2.4,0.6,3.9v10.1h-3.3v-9.9c0-1-0.1-1.8-0.4-2.4c-0.2-0.6-0.6-1.1-1.1-1.4
				c-0.5-0.3-1.1-0.5-1.9-0.5c-0.6,0-1.2,0.1-1.7,0.3c-0.5,0.2-1,0.5-1.4,0.9c-0.4,0.4-0.7,0.8-0.9,1.3c-0.2,0.5-0.3,1-0.3,1.6v10.1
				h-3.3v-10c0-0.9-0.1-1.6-0.4-2.2s-0.6-1.1-1.1-1.4c-0.5-0.3-1.1-0.5-1.8-0.5c-0.6,0-1.2,0.1-1.7,0.3c-0.5,0.2-1,0.5-1.3,0.8
				s-0.7,0.8-0.9,1.3c-0.2,0.5-0.3,1-0.3,1.6v10.2H549.2z"/>
			<path class="st1" d="M586.4,302.1c-1.6,0-3.1-0.4-4.4-1.1c-1.3-0.8-2.3-1.8-3.1-3.1c-0.8-1.3-1.1-2.8-1.1-4.5
				c0-1.7,0.4-3.2,1.1-4.5c0.7-1.3,1.8-2.4,3.1-3.1c1.3-0.8,2.8-1.1,4.4-1.1c1.6,0,3.1,0.4,4.4,1.1c1.3,0.8,2.3,1.8,3.1,3.1
				c0.7,1.3,1.1,2.8,1.1,4.5c0,1.7-0.4,3.2-1.1,4.5c-0.8,1.3-1.8,2.4-3.1,3.1C589.5,301.7,588.1,302.1,586.4,302.1z M586.4,299.1
				c1,0,1.9-0.3,2.7-0.8c0.8-0.5,1.4-1.2,1.9-2.1c0.5-0.9,0.7-1.8,0.6-2.9c0-1.1-0.2-2.1-0.6-3c-0.4-0.9-1.1-1.5-1.9-2
				c-0.8-0.5-1.7-0.7-2.7-0.7c-1,0-1.9,0.3-2.7,0.8c-0.8,0.5-1.4,1.2-1.9,2.1c-0.4,0.9-0.7,1.8-0.6,2.9c0,1.1,0.2,2.1,0.6,2.9
				c0.5,0.9,1.1,1.6,1.9,2.1C584.5,298.8,585.4,299.1,586.4,299.1z"/>
			<path class="st1" d="M598.6,301.8v-16.9h3.3v3.5l-0.6,0.4c0.2-0.8,0.6-1.4,1.3-2.1c0.6-0.6,1.4-1.1,2.2-1.5
				c0.9-0.4,1.7-0.6,2.6-0.6c1.3,0,2.4,0.3,3.2,0.8c0.9,0.5,1.5,1.3,1.9,2.3c0.4,1,0.6,2.3,0.6,3.9v10.3h-3.3v-10.1
				c0-1-0.1-1.8-0.4-2.4c-0.3-0.6-0.7-1.1-1.2-1.4c-0.5-0.3-1.2-0.4-2-0.4c-0.6,0-1.2,0.1-1.8,0.3c-0.5,0.2-1,0.5-1.4,0.9
				s-0.7,0.8-0.9,1.3c-0.2,0.5-0.3,1-0.3,1.6v10.2h-1.6c-0.3,0-0.6,0-0.8,0S598.9,301.8,598.6,301.8z"/>
			<path class="st1" d="M625.6,302.1c-1.7,0-3.3-0.4-4.6-1.1c-1.3-0.7-2.4-1.8-3.1-3s-1.1-2.8-1.1-4.4c0-1.3,0.2-2.5,0.6-3.6
				c0.4-1.1,1-2,1.8-2.8c0.8-0.8,1.7-1.4,2.7-1.9c1.1-0.4,2.2-0.7,3.5-0.7c1.1,0,2.1,0.2,3.1,0.6c0.9,0.4,1.8,1,2.5,1.7
				c0.7,0.7,1.2,1.6,1.6,2.6s0.6,2.1,0.5,3.3l0,1.4h-13.8l-0.7-2.6h11.7l-0.5,0.5v-0.8c-0.1-0.7-0.3-1.3-0.7-1.9
				c-0.4-0.6-0.9-1-1.5-1.3s-1.3-0.5-2-0.5c-1.2,0-2.1,0.2-2.9,0.7c-0.8,0.4-1.4,1.1-1.8,1.9c-0.4,0.8-0.6,1.9-0.6,3.1
				c0,1.2,0.2,2.2,0.7,3.1s1.2,1.5,2.1,2c0.9,0.5,1.9,0.7,3.1,0.7c0.8,0,1.6-0.1,2.3-0.4c0.7-0.3,1.5-0.8,2.3-1.5l1.7,2.3
				c-0.5,0.5-1.1,1-1.9,1.3c-0.7,0.4-1.5,0.7-2.3,0.9C627.2,302,626.4,302.1,625.6,302.1z"/>
			<path class="st1" d="M639.1,309.2l3.4-7.9l0,2.6l-8.4-19h3.9l5.3,12.4c0.1,0.2,0.2,0.5,0.4,1c0.1,0.4,0.3,0.9,0.4,1.3l-0.8,0.2
				c0.2-0.5,0.3-0.9,0.5-1.3c0.2-0.4,0.3-0.9,0.5-1.3l4.4-12.2h3.9l-6.9,16.9l-2.9,7.4H639.1z"/>
		</g>
		<linearGradient id="SVGID_2_" gradientUnits="userSpaceOnUse" x1="115.6309" y1="178.0894" x2="651.5912" y2="178.0894">
			<stop  offset="0.3957" style="stop-color:#5F27CD"/>
			<stop  offset="1" style="stop-color:#27272E"/>
		</linearGradient>
		<path class="st2" d="M624.6,103.6v122h-47.5c-0.8,0-2.6-0.1-5.2-0.4c-2.7-0.2-5.8-0.8-9.3-1.8c-3.5-1-7.2-2.5-11.1-4.5
			c-3.9-2-7.4-4.8-10.7-8.3c-3.3-3.5-5.9-7.9-8.1-13.2c-2.1-5.3-3.2-11.7-3.2-19.3v-74.5h-99.5c6,0,11.1,1.1,15.3,3.3
			c4.2,2.2,7.5,4.9,10.1,8.2c2.6,3.3,4.5,6.8,5.6,10.7c0.5,1.7,0.9,3.3,1.2,4.9h40.3v47.5c0,8.7,1,16.6,3.1,23.7
			c2.1,7.1,4.9,13.4,8.6,18.9c3.6,5.5,7.9,10.3,12.7,14.3c4.8,4,10,7.3,15.5,9.9c5.5,2.6,11.2,4.5,17.1,5.8
			c5.9,1.2,11.7,1.9,17.5,1.9H638c1.9,0,3.6-0.3,5.3-1c1.7-0.7,3.1-1.6,4.4-2.9c1.2-1.2,2.2-2.7,2.9-4.3c0.7-1.7,1-3.5,1-5.4V103.6
			H624.6z M316.3,103.6H159c-4.4,0-9.1,0.8-14.1,2.3c-5.1,1.6-9.8,4.1-14.1,7.6c-4.3,3.5-7.9,8-10.8,13.6
			c-2.9,5.6-4.3,12.4-4.3,20.5s1.4,15,4.3,20.6c2.9,5.6,6.5,10.2,10.8,13.6c4.3,3.5,9,6,14.1,7.5c5.1,1.6,9.8,2.3,14.1,2.3h62.1
			c2.5,0,4.8,0.4,6.8,1.2c2,0.8,3.8,2,5.2,3.5c1.4,1.5,2.5,3.3,3.3,5.4c0.8,2.1,1.1,4.4,1.1,6.9c0,5.1-1.4,9.2-4.3,12.3
			c-2.9,3-6.9,4.6-12.1,4.6H116.9v27h104.2c2.9,0,6-0.3,9.3-1c3.3-0.7,6.5-1.8,9.7-3.2c3.2-1.5,6.3-3.3,9.3-5.6
			c3-2.3,5.6-5.1,7.8-8.3c2.2-3.3,4-7,5.4-11.3c1.4-4.3,2-9.1,2-14.4c0-5.3-0.7-10.1-2-14.3c-1.3-4.2-3.1-8-5.4-11.2
			c-2.3-3.3-4.8-6-7.7-8.4c-2.9-2.3-6-4.2-9.2-5.8c-3.2-1.5-6.5-2.7-9.7-3.4c-3.3-0.7-6.3-1.1-9.3-1.2H159c-5.1,0-9.1-1.5-12-4.5
			c-2.9-3-4.3-7.1-4.3-12.3c0-5.1,1.4-9.2,4.3-12.4c2.9-3.1,6.9-4.7,12-4.7h143.7v-13.4c0-1.9,0.3-3.6,1-5.3
			c0.7-1.7,1.6-3.1,2.9-4.4c1.2-1.2,2.7-2.2,4.3-2.9C312.5,103.9,314.3,103.6,316.3,103.6z M417.9,202.7c3.8-0.8,7.5-2,11.2-3.7
			c3.7-1.7,7.3-3.9,10.7-6.5c3.4-2.6,6.4-5.8,9-9.5c2.6-3.7,4.7-8,6.2-12.8c1.5-4.8,2.3-10.4,2.3-16.5v-17.3c0-3.3-0.6-6.9-1.7-10.7
			c-1.1-3.8-3-7.4-5.6-10.7c-2.6-3.3-6-6-10.1-8.2c-4.2-2.2-9.2-3.3-15.3-3.3H321.9c-1.9,0-3.7,0.3-5.4,1c-1.7,0.7-3.1,1.7-4.3,2.9
			c-1.2,1.2-2.2,2.7-2.9,4.4c-0.7,1.7-1,3.4-1,5.3v135.4h27v-122h89.2c0.6,0,1.2,0,1.8,0.1c0.7,0.1,1.3,0.3,1.9,0.7
			c0.6,0.4,1.1,1,1.5,1.8c0.4,0.8,0.6,2,0.6,3.5v17c0,3.5-0.6,6.7-1.7,9.4c-1.1,2.7-2.7,5.1-4.7,7c-2,1.9-4.5,3.5-7.3,4.6
			c-2.8,1.1-5.9,1.9-9.3,2.1h-61.1v27h19.4l56.3,48.7h41.8l-56.4-48.7C410.5,203.9,414.1,203.5,417.9,202.7z"/>
	</g>
</g>
</svg>
