<svg width="81" height="85" viewBox="0 0 81 85" fill="none" xmlns="http://www.w3.org/2000/svg">
<path d="M26.6109 79.5599C25.8797 79.861 25.084 80.3341 24.998 81.1084C24.9119 82.0331 25.8797 82.6783 26.7399 83.0439C30.7185 84.6783 35.0627 85.1945 39.3209 84.5278C42.0521 84.0977 44.7188 83.1729 47.4716 83.1299C50.0308 83.0869 52.5255 83.7751 55.0417 84.1192C58.4181 84.5923 61.8375 84.4418 65.1494 83.6891C66.3538 83.4095 67.7516 82.8718 68.0527 81.646C68.2893 80.6567 67.6226 79.6245 66.7194 79.1298C65.8161 78.6352 64.7838 78.5492 63.7515 78.4846C61.0848 78.3341 58.4181 78.2911 55.7514 78.3771C53.2997 78.4631 50.3749 79.2158 47.9662 78.8287C46.0092 78.5061 44.2027 77.6244 42.1596 77.3663C39.6865 77.0653 37.1918 77.0653 34.7186 77.3663C31.9444 77.7319 29.1916 78.4631 26.6109 79.5599Z" fill="white"/>
<path d="M35.6649 85.0009C32.5896 85.0009 29.5357 84.3988 26.6754 83.2159C25.9442 82.9149 24.7184 82.2267 24.8259 81.1084C24.912 80.2051 25.8582 79.7105 26.5249 79.4094C29.1271 78.2911 31.8799 77.5599 34.6971 77.2158C37.1703 76.9147 39.6865 76.9147 42.1812 77.2158C43.2565 77.3663 44.3318 77.6244 45.3425 77.99C46.2028 78.2696 47.0845 78.5062 47.9878 78.6782C49.4932 78.9148 51.2136 78.6997 52.8911 78.4846C53.8804 78.3556 54.8266 78.2481 55.7514 78.2051C58.4181 78.119 61.1063 78.1621 63.7516 78.3126C64.8269 78.3771 65.8806 78.4847 66.7839 78.9793C67.6871 79.4739 68.4613 80.5707 68.1818 81.6675C67.9452 82.6998 66.9129 83.431 65.171 83.8181C61.8375 84.5708 58.3751 84.7214 54.9987 84.2482C54.203 84.1407 53.3857 83.9901 52.59 83.8396C50.9126 83.5385 49.1706 83.2159 47.4501 83.259C45.7296 83.302 43.9447 83.6891 42.2672 84.0762C41.2994 84.2912 40.3102 84.5063 39.3209 84.6783C38.1381 84.8934 36.8907 85.0009 35.6649 85.0009ZM26.6109 79.5599L26.6754 79.7105C26.0518 79.9686 25.2345 80.3987 25.17 81.1299C25.084 82.0331 26.1593 82.6353 26.826 82.8933C30.7831 84.5278 35.1057 85.0439 39.3209 84.3773C40.3102 84.2267 41.2779 83.9902 42.2457 83.7751C43.9447 83.388 45.7081 83.0009 47.4931 82.9579C49.2781 82.9149 50.9986 83.2374 52.6975 83.56C53.4718 83.7106 54.289 83.8611 55.0847 83.9686C58.4396 84.4418 61.8375 84.2912 65.1494 83.5385C66.7839 83.1729 67.7086 82.5278 67.9237 81.6245C68.1388 80.6782 67.4721 79.732 66.6764 79.2804C65.8376 78.8072 64.8269 78.7212 63.7946 78.6567C61.1493 78.5062 58.4611 78.4631 55.8159 78.5492C54.9342 78.5707 53.9879 78.6997 52.9986 78.8072C51.2997 79.0223 49.5577 79.2374 48.0093 78.9793C47.106 78.8072 46.2028 78.5707 45.321 78.2911C44.3103 77.947 43.2565 77.6889 42.2027 77.5384C39.751 77.2373 37.2563 77.2373 34.8047 77.5384C32.0089 77.8825 29.2992 78.6137 26.7184 79.7105L26.6109 79.5599Z" fill="#27272E"/>
<path d="M53.9879 27.9458C52.3319 26.72 50.2889 25.8598 48.7189 24.5264C47.2565 23.2791 46.3318 21.6876 45.0199 20.3543C43.7081 19.0209 41.6865 17.8381 39.7295 18.0962C38.7617 18.2467 37.8585 18.6768 37.1273 19.322C36.009 20.2467 35.1487 21.4941 35.4498 22.849C35.7294 24.1178 36.9767 25.1501 38.2456 25.9888C41.0198 27.8168 44.0522 29.2362 47.235 30.1825C48.848 30.6341 50.5039 30.9997 52.1599 31.2793C53.0416 31.4298 54.1814 31.8169 54.9126 31.3223C56.289 30.3545 55.1277 28.7846 53.9879 27.9458Z" fill="#27272E"/>
<path d="M25.8152 3.75175C25.041 3.14958 24.1592 2.54742 23.1915 2.59043C22.3743 2.63344 21.7076 3.14958 21.1054 3.66573L3.34156 18.3757C3.06198 18.6123 2.7394 18.8919 2.7394 19.279C2.7394 19.6661 3.01897 19.9457 3.29855 20.2252C6.09431 22.935 9.7073 24.763 13.3633 26.1609C18.3527 28.0749 23.5356 29.3222 28.7185 30.5481L42.2887 33.7955C44.5898 34.3546 49.1061 35.774 50.2029 32.9567C51.1276 30.5911 48.2458 27.5587 46.9125 25.6662C43.1489 20.3113 38.8477 15.3434 34.095 10.8272C31.4712 8.31099 28.697 5.96685 25.8152 3.75175Z" fill="#27272E"/>
<path d="M48.7835 31.5158C48.762 31.5158 48.7404 31.5158 48.7404 31.4943C35.1917 24.6554 20.5463 20.2252 5.49214 18.4188C5.42763 18.4188 5.38462 18.3542 5.40612 18.2897C5.40612 18.2252 5.47064 18.1822 5.53516 18.2037C20.6323 20.0317 35.2778 24.4619 48.8695 31.3008C48.9125 31.3223 48.934 31.3868 48.9125 31.4513C48.8695 31.4943 48.8265 31.5158 48.7835 31.5158Z" fill="#27272E"/>
<path d="M18.2021 5.3862C18.9763 6.24644 19.2774 7.60131 18.7183 8.61208C18.1591 9.62286 16.6107 10.0315 15.7719 9.23575C15.3418 10.8057 14.4816 12.3111 13.0837 13.1283C11.6858 13.9455 9.7288 13.9025 8.61049 12.7412C7.94381 12.053 7.62122 11.0853 7.5567 10.1175C7.44918 8.18196 8.2664 6.31095 9.7288 5.08512C11.9439 3.25712 16.1806 3.08507 18.2021 5.3862Z" fill="white"/>
<path d="M10.9977 13.838C10.0514 13.8595 9.14815 13.5154 8.45996 12.8487C7.83629 12.2036 7.44919 11.2358 7.36316 10.139C7.25564 8.16045 8.07286 6.22492 9.59978 4.95608C11.8149 3.12808 16.2021 2.87001 18.3097 5.27867C19.1914 6.26794 19.4065 7.68732 18.8258 8.67659C18.4817 9.27876 17.8795 9.66586 17.1913 9.77339C16.7182 9.85942 16.2236 9.75189 15.815 9.49382C15.3203 11.1928 14.3526 12.5046 13.1267 13.2358C12.5031 13.6444 11.7504 13.838 10.9977 13.838ZM13.987 3.83777C12.4385 3.83777 10.8901 4.33241 9.83634 5.19264C8.39545 6.39697 7.59973 8.22497 7.70726 10.096C7.77178 11.1283 8.13738 12.01 8.71803 12.6122C9.75032 13.6444 11.5783 13.795 12.9977 12.9563C14.2235 12.2466 15.1483 10.8917 15.6214 9.17123C15.6429 9.10671 15.6859 9.0637 15.7289 9.0637C15.7935 9.04219 15.8365 9.0637 15.8795 9.10671C16.2451 9.4293 16.7182 9.55833 17.1913 9.47231C17.772 9.38629 18.2881 9.04219 18.5892 8.54756C19.0839 7.64431 18.8903 6.39697 18.0946 5.51523C17.0838 4.35391 15.5354 3.83777 13.987 3.83777Z" fill="#27272E"/>
<path d="M11.7504 13.9025C11.7073 13.9025 11.6643 13.881 11.6428 13.838C10.4385 11.0637 10.288 7.94539 11.2342 5.08511C11.2557 5.02059 11.2987 4.99908 11.3633 4.99908C11.4278 5.02059 11.4493 5.0636 11.4493 5.12812V5.14963C10.5245 7.9669 10.6536 11.0422 11.8364 13.752C11.8579 13.8165 11.8364 13.8595 11.7934 13.9025C11.7934 13.9025 11.7719 13.9025 11.7504 13.9025Z" fill="#27272E"/>
<path d="M37.0843 79.5169C37.0843 79.9255 37.1488 80.3342 37.2563 80.7213C37.3423 81.0654 37.3854 81.4525 37.1703 81.7105C37.0198 81.8611 36.8262 81.9686 36.6111 82.0116C34.7616 82.6138 32.8476 83.1944 30.9336 82.9579C30.6325 82.9149 30.2669 82.7858 30.2669 82.4847C30.2669 82.2482 30.5035 82.0761 30.74 81.9686C31.9659 81.3234 33.1487 80.6137 34.2885 79.818C35.3423 79.0868 36.4176 78.2696 37.7079 78.2481C37.8155 78.2481 37.3638 78.7642 37.3423 78.7857C37.1703 79.0008 37.0843 79.2589 37.0843 79.5169Z" fill="#27272E"/>
<path d="M49.4501 65.6026C50.1168 63.5596 50.4609 61.1294 48.4394 59.6025C47.9232 59.2154 47.3211 58.9573 46.6759 58.8498C44.3963 58.4412 42.3102 59.581 40.6973 61.0649C39.0843 62.5488 37.7725 64.5058 37.3423 66.6779C36.9767 68.5489 37.2993 70.592 38.3531 72.1619C38.4391 72.291 38.6112 72.3125 38.7187 72.2264C38.8047 72.1619 38.8478 72.0759 38.8262 71.9684C38.6972 70.6565 38.6327 69.3231 38.8693 68.0328C39.1918 66.2908 40.1166 64.5703 41.7295 63.7746C42.1382 63.5596 42.5898 63.4735 43.0629 63.5166C44.4823 63.7101 44.8479 65.194 44.8049 66.4199C44.7189 69.1511 43.4715 71.7533 41.751 73.8824C40.2456 75.7534 38.3746 77.2588 36.4821 78.7212C36.3746 78.8072 36.3531 78.9578 36.4391 79.0653C36.5036 79.1513 36.6111 79.1943 36.7187 79.1513C37.5359 78.8502 38.4391 78.2481 38.9983 77.947C40.1811 77.3018 41.2994 76.5491 42.3532 75.7104C44.4393 74.0329 46.2028 71.9899 47.5576 69.6887C48.3533 68.4414 48.977 67.0435 49.4501 65.6026Z" fill="white"/>
<path d="M36.6542 79.3879C36.4176 79.3879 36.2455 79.1943 36.2455 78.9578C36.2455 78.8287 36.3101 78.7212 36.3961 78.6352C38.1166 77.3233 40.0736 75.7749 41.6435 73.8394C42.9769 72.2049 44.5683 69.5812 44.6543 66.4629C44.6758 65.7102 44.5683 63.9252 43.0414 63.7101C42.6113 63.6671 42.1812 63.7531 41.8156 63.9467C40.3962 64.6349 39.4069 66.1403 39.0413 68.0758C38.8047 69.3877 38.8693 70.721 38.9983 71.9684C39.0198 72.1619 38.8908 72.3555 38.7187 72.42C38.5252 72.4845 38.3316 72.42 38.2241 72.2479C37.1488 70.592 36.7832 68.5704 37.1918 66.6349C37.7079 64.0112 39.3424 62.0757 40.6112 60.9144C42.5898 59.0864 44.7189 58.3121 46.7189 58.6562C47.3856 58.7638 48.0093 59.0433 48.5469 59.452C50.2244 60.7208 50.5685 62.7424 49.6222 65.6456C49.1491 67.108 48.5039 68.5059 47.7297 69.8178C46.3533 72.1404 44.5898 74.205 42.4822 75.8824C41.4285 76.7427 40.3102 77.4954 39.1273 78.1406C38.9768 78.2266 38.8047 78.3341 38.6112 78.4416C38.0305 78.7857 37.4499 79.1083 36.8262 79.3449C36.7617 79.3664 36.6972 79.3879 36.6542 79.3879ZM42.8263 63.3875C42.9124 63.3875 43.0199 63.3875 43.1059 63.409C44.3318 63.5811 45.0414 64.7209 44.9984 66.4844C44.9124 69.6888 43.278 72.377 41.9016 74.0544C40.3102 76.0115 38.3316 77.5814 36.6111 78.9148C36.5681 78.9363 36.5681 78.9793 36.5896 79.0223C36.6111 79.0653 36.6542 79.0868 36.6972 79.0653C37.2993 78.8072 37.88 78.5062 38.4391 78.1836C38.6327 78.076 38.8047 77.9685 38.9553 77.8825C40.1381 77.2373 41.2349 76.5061 42.2887 75.6674C44.3533 73.9899 46.0952 71.9684 47.4501 69.6888C48.2243 68.3984 48.848 67.0005 49.3211 65.5811C50.2244 62.8069 49.9233 60.9574 48.3533 59.753C47.8587 59.3659 47.2781 59.1294 46.6544 59.0218C44.2457 58.5917 42.1597 59.9681 40.8263 61.1939C39.6005 62.3337 38.009 64.2048 37.5144 66.7424C37.1488 68.635 37.5144 70.635 38.5037 72.1189C38.5252 72.1619 38.5897 72.1834 38.6327 72.1619C38.6757 72.1404 38.7187 72.0974 38.6972 72.0544C38.5897 70.7855 38.5037 69.4307 38.7402 68.0758C39.1273 66.0328 40.2026 64.4413 41.708 63.6886C42.0306 63.4951 42.4177 63.3875 42.8263 63.3875Z" fill="#27272E"/>
<path d="M38.4176 70.9576C38.5897 70.6995 38.7617 70.3769 39.0843 70.3339C39.4284 70.2909 39.7295 70.635 39.8155 70.9791C39.9876 71.7103 39.6005 72.4415 39.1273 73.0222C38.2241 74.162 36.9122 74.9362 35.4713 75.1727C35.1918 75.2158 34.9122 75.2158 34.6326 75.1512C34.353 75.0867 34.138 74.8717 34.0304 74.6136C33.8584 74.119 34.267 73.8394 34.6541 73.7318C35.1702 73.6028 35.6649 73.4093 36.1165 73.1512C37.0628 72.6351 37.8585 71.8823 38.4176 70.9576Z" fill="#27272E"/>
<path d="M61.7085 37.2149C63.1279 44.2473 62.1386 51.6883 59.1708 58.2046C56.203 64.7209 51.3212 70.3339 45.3855 74.334C45.2135 74.463 45.0199 74.5491 44.8049 74.5706C44.3963 74.5706 44.1382 74.1405 43.9661 73.7749C42.5468 70.6995 41.2994 67.5167 40.2671 64.2908C40.0091 63.4951 39.7725 62.6778 39.88 61.8606C40.0736 60.5488 41.1274 59.5595 42.2027 58.7638C44.2027 57.3014 46.4178 56.1616 48.805 55.4304C50.4179 54.9357 52.1814 54.5701 53.4072 53.4303C54.6331 52.2905 55.1277 50.484 54.9771 48.8065C54.8266 47.1291 54.0524 45.5592 53.1061 44.1613C51.5362 41.8171 49.2996 39.5375 49.4286 36.7202C49.4932 35.0643 50.3964 33.5804 51.2781 32.161C51.9878 30.9997 52.719 29.8384 53.6868 28.8706C55.7944 26.763 57.4503 26.8491 58.8912 29.3652C60.2246 31.7954 61.1923 34.4621 61.7085 37.2149Z" fill="#5F27CD"/>
<path d="M54.9341 51.7959C53.6223 51.7098 52.3104 51.0647 51.5792 49.9679C50.9125 48.9571 50.805 47.6882 50.676 46.4839C50.5469 45.2796 50.3534 44.0107 49.5577 43.086C48.762 42.1612 47.192 41.8171 46.3533 42.6989C45.1275 42.0752 43.6436 41.7956 42.3532 42.2903C41.0629 42.7849 40.0736 44.1613 40.3317 45.5162C40.5252 46.5054 41.2994 47.2796 42.1597 47.7958C43.0199 48.3119 44.0092 48.613 44.9124 49.0431C46.6114 49.8388 48.0738 51.0647 49.6437 52.0969C51.2136 53.1292 52.9986 54.011 54.8696 53.9464C56.4611 53.9034 59.1063 52.6776 58.9772 50.7851C57.5794 51.1722 56.4826 51.9034 54.9341 51.7959Z" fill="white"/>
<path d="M54.7191 54.1185C53.1492 54.1185 51.5147 53.5163 49.5577 52.226C49.0846 51.9034 48.5899 51.5593 48.1383 51.2367C47.106 50.5055 46.0307 49.7313 44.8694 49.1937C44.5253 49.0431 44.1812 48.8926 43.8371 48.7635C43.235 48.5485 42.6543 48.2689 42.0951 47.9463C41.493 47.5807 40.4177 46.785 40.1811 45.5592C39.9231 44.1828 40.8478 42.6989 42.3102 42.1397C43.493 41.6881 44.9554 41.8171 46.3318 42.5053C46.6974 42.1827 47.192 42.0107 47.6867 42.0322C48.4609 42.0537 49.1706 42.3978 49.6867 42.9785C50.5039 43.9247 50.719 45.2796 50.848 46.4624L50.8695 46.6345C50.9986 47.7743 51.1276 48.9571 51.7298 49.8818C52.3965 50.8926 53.6008 51.5378 54.9557 51.6453C55.9449 51.7098 56.7622 51.4088 57.6224 51.0862C58.0525 50.9141 58.5041 50.7851 58.9342 50.6561C58.9773 50.6345 59.0418 50.6561 59.0633 50.6776C59.1063 50.6991 59.1278 50.7421 59.1278 50.8066C59.1493 51.4518 58.9127 52.0969 58.4396 52.5486C57.5364 53.5378 55.9019 54.097 54.8481 54.14L54.7191 54.1185ZM43.7941 42.2042C43.321 42.2042 42.8478 42.2903 42.4177 42.4408C40.9553 43 40.2887 44.4193 40.5037 45.4946C40.7188 46.6129 41.708 47.3441 42.2672 47.6667C42.8048 47.9678 43.3855 48.2259 43.9662 48.4624C44.3103 48.5915 44.6758 48.742 45.0199 48.9141C46.2028 49.4732 47.2996 50.2474 48.3534 50.9786C48.805 51.3012 49.2996 51.6453 49.7727 51.9679C51.7298 53.2583 53.3642 53.8389 54.9126 53.7959C55.9019 53.7744 57.4073 53.2368 58.2676 52.312C58.6117 51.9679 58.8267 51.4948 58.8697 51.0001C58.4826 51.1077 58.1385 51.2367 57.7729 51.3657C56.9127 51.6883 56.0309 52.0109 54.9772 51.9249C53.5148 51.8174 52.2244 51.1077 51.5147 50.0109C50.848 49.0001 50.719 47.7958 50.59 46.6129L50.5685 46.4409C50.4394 45.2581 50.2459 44.0107 49.4717 43.129C49.02 42.6129 48.3964 42.3118 47.7082 42.2903C47.2566 42.2688 46.8264 42.4408 46.5038 42.7419C46.4608 42.7849 46.3748 42.8064 46.3103 42.7849C45.5146 42.4408 44.6543 42.2257 43.7941 42.2042Z" fill="#27272E"/>
<path d="M57.7084 27.9674C57.1277 28.1609 56.7406 28.7846 56.6761 29.3867C56.6331 30.0104 56.7191 30.6126 56.9557 31.1932C57.6439 33.3008 58.7837 35.2578 59.6224 37.3009C60.4612 39.344 60.9773 41.6666 60.3751 43.8172C59.6224 46.4409 57.2783 48.4624 56.8697 51.1722C56.7621 51.8389 56.8052 52.5701 57.1923 53.1507C57.5794 53.7314 58.3966 54.011 58.9772 53.6669C60.3751 55.0648 62.8268 54.6346 64.4397 53.4733C66.8484 51.7313 68.1818 48.742 68.3108 45.7742C68.4398 42.8064 67.4721 39.8601 66.0312 37.2579C64.8268 35.0643 63.2999 33.0858 61.73 31.1502C60.8913 30.1179 59.2568 27.4297 57.7084 27.9674Z" fill="#27272E"/>
<path d="M49.4071 13.709C48.1813 14.1606 46.7404 14.3111 45.9017 15.3004C45.1275 16.2252 45.1275 17.58 45.364 18.7629C45.7942 20.8919 47.0415 23.0855 49.1276 23.6662C50.7405 24.1178 52.418 23.5156 53.9879 23.021C55.5578 22.5264 57.3643 22.1178 58.8267 22.892C60.2461 23.6447 60.9343 25.2576 61.9666 26.4835C63.9236 28.7201 67.0204 29.6018 69.8592 28.6986C71.4722 28.1609 73.0206 26.7845 73.0421 25.0641C73.0636 23.3006 71.5152 21.9242 70.956 20.2253C69.9668 17.2359 72.2464 14.0746 71.9023 10.9562C71.6872 9.49382 71.0205 8.13895 69.9668 7.08517C68.913 6.05288 67.6871 5.21415 66.3323 4.6335C63.9451 3.5582 61.2354 3.02056 58.7192 3.70874C56.8912 4.20338 55.3213 5.42921 54.3965 7.08517C54.0094 7.81637 53.9019 8.65509 53.5578 9.4078C53.2137 10.2895 52.719 11.0853 52.1169 11.8165C51.3857 12.6767 50.4394 13.3004 49.4071 13.709Z" fill="#27272E"/>
<path d="M51.8803 7.83786C50.4394 12.7412 50.805 18.0316 52.2459 22.935C52.418 23.6662 52.719 24.3544 53.1061 24.978C53.5148 25.6232 54.1384 26.0748 54.8696 26.2469C55.9234 26.4404 56.9557 25.8598 57.7944 25.1931C60.3106 23.2146 62.0096 20.3973 63.8161 17.7736C64.5903 16.6338 65.429 15.5155 65.9021 14.2251C66.3753 12.9347 66.4613 11.4293 65.7946 10.225C65.2785 9.30026 64.3967 8.65508 63.472 8.11743C62.0956 7.30021 60.6547 6.61202 59.1493 6.09588C57.7729 5.66577 56.3535 5.4077 54.9341 5.34318C53.2352 5.27866 52.3319 6.31094 51.8803 7.83786Z" fill="white"/>
<path d="M55.2997 26.4619C55.1492 26.4619 54.9987 26.4404 54.8481 26.4189C54.0739 26.2469 53.3857 25.7523 52.9771 25.0856C52.5685 24.4404 52.2889 23.7307 52.0954 22.978C50.5039 17.623 50.3749 12.3541 51.7298 7.79485C52.2674 6.00986 53.3427 5.12812 54.9557 5.21415C56.3965 5.27866 57.8374 5.53673 59.2138 5.98836C60.7407 6.5045 62.2031 7.19269 63.5795 8.00991C64.4397 8.52605 65.4075 9.19273 65.9452 10.182C66.5688 11.3003 66.6118 12.8057 66.0527 14.3111C65.6226 15.5155 64.8699 16.5692 64.1602 17.6015L63.9666 17.9026C63.7085 18.2897 63.429 18.6768 63.1709 19.0639C61.644 21.322 60.074 23.6447 57.902 25.3651C56.9557 26.0963 56.0955 26.4619 55.2997 26.4619ZM54.7621 5.51523C53.4287 5.51523 52.504 6.31094 52.0524 7.88087C50.719 12.3971 50.848 17.58 52.418 22.892C52.59 23.6017 52.8911 24.2683 53.2567 24.892C53.6223 25.4942 54.2245 25.9243 54.9126 26.0963C55.7299 26.2469 56.6331 25.9243 57.7084 25.0856C59.8375 23.4081 61.3859 21.0855 62.9128 18.8489C63.1709 18.4618 63.4505 18.0747 63.7085 17.6875L63.9021 17.408C64.6118 16.3972 65.343 15.3434 65.7516 14.1821C66.2677 12.7627 66.2462 11.3648 65.6656 10.311C65.1494 9.40779 64.2462 8.76261 63.4075 8.26798C62.0526 7.45076 60.6117 6.78407 59.1063 6.26793C57.7514 5.83782 56.3535 5.57975 54.9341 5.51523H54.7621Z" fill="#27272E"/>
<path d="M54.1384 15.0638C54.1169 14.9778 54.0524 14.8488 53.9449 14.8703C53.8373 14.8918 53.8373 14.9563 53.8158 15.0423C53.7298 15.3004 53.1707 16.8488 53.7943 16.9348C54.332 16.9994 54.2244 15.3434 54.1384 15.0638Z" fill="#27272E"/>
<path d="M58.8267 16.9133C58.8697 16.8273 58.8697 16.7413 58.8267 16.6553C58.5471 16.0961 57.4503 17.5585 57.5794 17.9671C57.7944 18.6768 58.7622 17.1929 58.8267 16.9133Z" fill="#27272E"/>
<path d="M63.515 4.3109C64.3107 5.23565 64.9559 6.26793 65.472 7.36473C65.9882 8.46153 66.1817 9.70887 66.0097 10.9132C65.7516 12.4616 64.8053 13.8595 64.8053 15.4079C64.8053 15.8165 64.9129 16.2682 65.2355 16.4832C65.515 16.6338 65.8591 16.6983 66.1817 16.6338C67.4721 16.5262 68.6979 16.0531 69.7517 15.2789C70.784 14.5047 71.5367 13.3864 71.8808 12.139C72.2464 10.6981 71.9883 9.17123 71.4722 7.79485C71.1926 6.99913 70.7625 6.26793 70.2033 5.62276C69.5581 4.99909 68.8269 4.48295 68.0097 4.11735C66.8269 3.51518 65.6441 3.30012 64.4182 2.89151C64.0741 2.78398 63.6225 2.54742 63.2999 2.8485C62.8268 3.27862 63.2139 3.92379 63.515 4.3109Z" fill="#27272E"/>
<path d="M59.773 3.98832C59.9235 4.20338 60.1171 4.41844 60.3321 4.59049C61.2569 5.3647 62.1171 6.26794 62.8268 7.23571C63.558 8.22498 64.0311 9.36479 64.2247 10.5691C64.3107 11.4078 64.2892 12.2466 64.1602 13.0638C64.1172 13.2789 64.1171 13.5154 64.1387 13.7305C64.1602 13.967 64.3107 14.1606 64.5258 14.2251C64.8914 14.3326 65.2355 13.9885 65.429 13.666C67.5151 10.3971 66.8269 6.1174 63.8376 3.66573C63.0419 3.02056 62.0956 2.61194 61.1063 2.48291C60.2891 2.37538 59.1708 3.06357 59.773 3.98832Z" fill="#5F27CD"/>
<path d="M60.3321 15.0208C58.7837 15.2359 57.1923 15.0853 55.7084 14.5907C52.7405 13.5369 50.633 10.7627 49.6222 7.79485C49.1061 6.26794 48.8265 4.61199 49.3426 3.08507C49.6007 2.26785 50.1168 1.51514 50.8695 1.12803C51.6868 0.719422 52.676 0.805446 53.5793 0.977493C56.0955 1.47213 58.4181 2.63344 60.7192 3.77326C61.7515 4.2894 62.7838 4.80554 63.601 5.60125C64.6118 6.63354 65.2355 7.9669 65.386 9.38629C65.515 10.6336 65.4075 11.881 65.0634 13.0853C64.7623 14.1606 63.6655 14.2681 62.6978 14.5262C61.9236 14.7412 61.1278 14.9133 60.3321 15.0208Z" fill="#27272E"/>
<path d="M55.4503 22.6554C55.2782 22.6769 55.1062 22.7629 54.9771 22.892C54.8696 23.0855 54.8696 23.3436 55.0202 23.5156C55.3643 24.0103 56.0094 24.2038 56.5686 24.0103C57.1277 23.7952 57.5794 23.3651 57.7944 22.8275C58.031 22.2898 57.7084 22.1393 57.2783 22.2468C56.6761 22.3758 56.0739 22.5049 55.4503 22.6554Z" fill="#27272E"/>
<path d="M46.0092 47.3441C45.9662 47.3441 45.9447 47.3226 45.9232 47.3011C44.6758 45.6452 42.9124 44.4193 40.9338 43.8387C40.8693 43.8172 40.8478 43.7527 40.8693 43.7097C40.8908 43.6451 40.9553 43.6236 40.9983 43.6451C43.0414 44.2688 44.8264 45.4946 46.1167 47.1936C46.1597 47.2366 46.1382 47.3011 46.0952 47.3441C46.0522 47.3441 46.0307 47.3441 46.0092 47.3441Z" fill="#27272E"/>
<path d="M48.0093 45.2796C47.9662 45.2796 47.9232 45.2581 47.9017 45.1936C47.6006 44.1613 47.02 43.2365 46.2458 42.5268C46.2028 42.4838 46.1813 42.4193 46.2243 42.3763C46.2673 42.3333 46.3318 42.3118 46.3748 42.3548L46.3963 42.3763C47.2135 43.129 47.8157 44.0753 48.1168 45.129C48.1383 45.1936 48.0953 45.2366 48.0523 45.2581C48.0093 45.2796 48.0093 45.2796 48.0093 45.2796Z" fill="#27272E"/>
<path d="M7.98683 14.5262C8.09436 13.6444 8.2664 12.6982 8.95459 12.1175C9.38471 11.7734 9.94386 11.6229 10.4815 11.4939C19.686 9.30026 29.1271 7.08516 38.5252 8.18196L32.8691 45.043C32.8046 45.4731 32.7401 45.9248 32.4605 46.2689C32.0089 46.871 31.1702 46.957 30.4175 46.9785C24.7184 47.0646 19.2559 44.9785 13.944 42.9139C12.3955 42.3118 10.3095 41.8601 8.95459 40.8279C7.72876 39.8816 7.72876 38.2687 7.57822 36.8493C7.10509 32.0535 6.99756 27.2362 7.25563 22.4188C7.40617 19.7521 7.64273 17.1284 7.98683 14.5262Z" fill="white"/>
<path d="M30.0949 47.1291C24.4173 47.1291 18.8258 44.957 13.9009 43.043C13.4708 42.8709 12.9762 42.7204 12.4816 42.5483C11.1912 42.1182 9.85784 41.6881 8.89008 40.9354C7.72876 40.0322 7.62123 38.6558 7.5137 37.3224C7.4922 37.1504 7.4922 36.9998 7.47069 36.8493C6.99756 32.0535 6.89003 27.2147 7.1266 22.3973C7.25563 19.7306 7.5137 17.0854 7.83629 14.5047C7.96532 13.5584 8.13737 12.5907 8.86857 11.9885C9.3417 11.6014 9.92236 11.4724 10.46 11.3433C19.5785 9.17123 29.0196 6.91312 38.5682 8.03142C38.6542 8.05293 38.7187 8.11745 38.7187 8.20347L33.0627 45.0645C32.9982 45.4731 32.9336 45.9678 32.6326 46.3549C32.1379 47.0216 31.2132 47.1076 30.4605 47.1291H30.0949ZM33.3423 8.05293C25.6216 8.05293 17.9656 9.88093 10.5245 11.6444C10.0299 11.7734 9.47074 11.9025 9.06213 12.2251C8.43845 12.7412 8.26641 13.6445 8.15888 14.5262C7.81478 17.0854 7.57822 19.7306 7.44918 22.3758C7.21262 27.1716 7.32015 31.989 7.79328 36.7848C7.81478 36.9353 7.81478 37.1074 7.83629 37.2579C7.94382 38.5267 8.05135 39.8386 9.10514 40.6558C10.0299 41.387 11.3417 41.8171 12.6106 42.2258C13.1267 42.3978 13.5999 42.5483 14.0515 42.7204C18.9548 44.6344 24.5033 46.785 30.1379 46.785H30.482C31.1487 46.785 31.9874 46.699 32.396 46.1398C32.6326 45.8172 32.6971 45.3871 32.7616 45L38.3961 8.311C36.6757 8.13895 34.9982 8.05293 33.3423 8.05293Z" fill="#27272E"/>
<path d="M20.6538 7.45076C28.9766 9.92393 37.4284 11.9885 45.9662 13.6445C42.2242 25.8168 37.794 37.774 32.6756 49.4302C32.7186 49.3442 21.9872 46.0753 20.9979 45.8172C18.9763 45.3011 16.9333 44.828 14.8687 44.3978C13.7074 44.1613 11.6643 44.1398 11.0192 42.9354C10.331 41.6451 11.1912 39.2149 11.4063 37.8816C11.7504 35.8815 12.116 33.8815 12.5461 31.8814C13.4063 27.9243 14.4601 24.0318 15.7074 20.2037C17.1268 15.8596 18.7828 11.6014 20.6538 7.45076Z" fill="#5F27CD"/>
<path d="M40.8478 16.0101C34.1165 15.7305 27.4926 14.2251 21.3205 11.5369C21.2559 11.5154 21.2344 11.4509 21.2559 11.3863C21.2774 11.3218 21.342 11.3003 21.4065 11.3218C27.5572 13.9885 34.1595 15.494 40.8478 15.7735C40.9123 15.7735 40.9553 15.8165 40.9553 15.8811C40.9553 15.9671 40.9123 16.0101 40.8478 16.0101Z" fill="#27272E"/>
<path d="M39.8155 19.322C33.2132 18.4403 26.783 16.6553 20.6538 14.0316C20.5893 14.0101 20.5678 13.9455 20.5893 13.881C20.6108 13.8165 20.6753 13.795 20.7398 13.8165C26.8475 16.4187 33.2562 18.2037 39.837 19.0854C39.9015 19.0854 39.9446 19.15 39.9446 19.193C39.9446 19.236 39.88 19.322 39.8155 19.322Z" fill="#27272E"/>
<path d="M39.2349 22.4188C32.5896 21.3436 26.1378 19.4725 19.9656 16.8273C19.9011 16.8058 19.8796 16.7413 19.9011 16.6983C19.9226 16.6338 19.9871 16.6123 20.0301 16.6338H20.0516C26.2023 19.2575 32.6541 21.1285 39.2564 22.2038C39.3209 22.2038 39.3639 22.2683 39.3639 22.3113C39.3639 22.3543 39.2994 22.4188 39.2349 22.4188Z" fill="#27272E"/>
<path d="M37.9875 24.677H37.966C31.5788 23.2361 25.3206 21.3866 19.1914 19.0854C19.1269 19.0639 19.1054 18.9994 19.1269 18.9564C19.1484 18.8919 19.2129 18.8704 19.2559 18.8919C25.3636 21.1715 31.6218 23.0425 37.9875 24.4619C38.052 24.4834 38.0735 24.5264 38.0735 24.5909C38.0735 24.634 38.0305 24.677 37.9875 24.677Z" fill="#27272E"/>
<path d="M37.2348 26.7845C30.74 25.7523 24.3743 24.0748 18.2451 21.7522C18.2021 21.7307 18.1806 21.6661 18.2021 21.6016C18.2236 21.5586 18.2666 21.5371 18.3312 21.5371C24.4603 23.8597 30.783 25.5372 37.2563 26.5695C37.3208 26.5695 37.3638 26.634 37.3423 26.6985C37.3208 26.7415 37.2778 26.7845 37.2348 26.7845Z" fill="#27272E"/>
<path d="M37.0413 29.1287C30.2884 28.591 23.6861 26.8491 17.5569 24.0103C17.4924 23.9888 17.4709 23.9243 17.5139 23.8597C17.5354 23.8167 17.5999 23.7737 17.643 23.8167C23.7506 26.6555 30.3314 28.376 37.0628 28.9136C37.1273 28.9136 37.1703 28.9781 37.1703 29.0211C37.1488 29.0857 37.0843 29.1287 37.0413 29.1287Z" fill="#27272E"/>
<path d="M34.5466 31.0857C28.3529 30.9782 22.2667 29.4083 16.7827 26.5265C16.7182 26.505 16.6967 26.4404 16.7182 26.3759C16.7397 26.3114 16.8042 26.2899 16.8688 26.3114C16.8688 26.3114 16.8688 26.3114 16.8903 26.3114C22.3312 29.1932 28.3959 30.7416 34.5466 30.8491C34.6111 30.8491 34.6541 30.8922 34.6541 30.9567C34.6541 31.0212 34.6111 31.0857 34.5466 31.0857Z" fill="#27272E"/>
<path d="M27.6647 32.4621C23.7936 31.8169 20.0731 30.6341 16.5462 28.9351C16.5032 28.9136 16.4601 28.8491 16.5032 28.7846C16.5462 28.7201 16.5892 28.6986 16.6537 28.7416C20.1376 30.4405 23.8582 31.6234 27.6862 32.247C27.7507 32.247 27.7937 32.3115 27.7722 32.3761C27.7507 32.4191 27.7077 32.4621 27.6647 32.4621Z" fill="#27272E"/>
<path d="M49.1276 51.6668C48.9555 53.1292 48.6974 54.6992 47.6221 55.6884C46.7404 56.4841 45.4716 56.6992 44.2887 56.8282C30.7615 58.3336 16.8472 54.2475 5.7072 46.3979C3.81469 45.0645 1.92217 43.5376 1.04043 41.4085C0.287723 39.5805 0.352241 37.5375 0.481276 35.5589C0.782358 30.6556 1.2985 25.7738 2.0297 20.8919C2.15873 20.0532 2.37379 19.0854 3.148 18.7413C3.66415 18.4833 4.28781 18.4833 4.80396 18.7413C13.0407 23.5156 22.9334 27.8168 32.568 30.4405C36.8692 31.6019 50.3104 30.6556 50.2459 32.9352C50.1168 38.4622 49.7512 46.2043 49.1276 51.6668Z" fill="white"/>
<path d="M38.7617 57.3014C27.3206 57.3014 15.4924 53.5163 5.59968 46.5484C3.66415 45.1936 1.77163 43.6451 0.868386 41.473C0.115681 39.6666 0.180198 37.645 0.309233 35.5589C0.610315 30.6771 1.12646 25.7307 1.85766 20.8919C1.98669 19.9887 2.24476 18.9994 3.06199 18.6123C3.64264 18.3327 4.30933 18.3327 4.86848 18.6338C13.5784 23.6877 23.428 27.8383 32.5895 30.3115C34.2885 30.7631 37.4929 30.9137 40.5897 31.0427C45.8587 31.2578 50.4179 31.4513 50.3964 32.9782C50.2889 38.3762 49.9448 46.1398 49.2996 51.7098C49.1276 53.2368 48.8695 54.8282 47.7297 55.8175C46.7834 56.6562 45.4716 56.8712 44.2887 57.0003C42.4607 57.1938 40.6112 57.2799 38.7617 57.3014ZM3.98674 18.7198C3.70716 18.7198 3.44909 18.7844 3.19102 18.8919C2.50283 19.2145 2.28777 20.0962 2.15874 20.9134C1.42754 25.7523 0.911398 30.6771 0.610316 35.5589C0.481281 37.602 0.438268 39.5805 1.16947 41.3225C2.0297 43.4086 3.90071 44.9355 5.79323 46.2473C17.2344 54.2905 31.2562 58.0756 44.2672 56.6347C45.3855 56.5056 46.6544 56.3121 47.5146 55.5379C48.5684 54.6131 48.805 53.0862 48.977 51.6238C49.6007 46.0753 49.9448 38.3117 50.0523 32.9137C50.0738 31.6879 45.0199 31.4943 40.5467 31.3008C37.2778 31.1717 34.2025 31.0427 32.482 30.5696C23.299 28.0749 13.4278 23.9243 4.67493 18.8489C4.48137 18.7844 4.2233 18.7198 3.98674 18.7198Z" fill="#27272E"/>
<path d="M46.2458 54.6346C46.2028 54.6346 46.1598 54.6131 46.1382 54.5701C42.0521 46.2043 36.6972 38.5052 30.2669 31.7739C30.2239 31.7309 30.2239 31.6664 30.2669 31.6234C30.3099 31.5803 30.3744 31.5803 30.4175 31.6234C36.8692 38.3762 42.2457 46.0753 46.3318 54.4626C46.3533 54.5056 46.3318 54.5701 46.2888 54.6131C46.2673 54.6346 46.2673 54.6346 46.2458 54.6346Z" fill="#27272E"/>
<path d="M1.27699 37.1719C1.25549 37.1719 1.23398 37.1719 1.21248 37.1504C1.16947 37.1074 1.14796 37.0428 1.19097 36.9998C3.98673 33.0427 7.47069 29.6018 11.4493 26.8491C11.4923 26.806 11.5568 26.8275 11.5998 26.8706C11.6428 26.9136 11.6213 26.9781 11.5783 27.0211C7.59972 29.7739 4.15878 33.1933 1.36302 37.1289C1.34151 37.1719 1.32001 37.1719 1.27699 37.1719Z" fill="#27272E"/>
<path d="M19.7075 61.323C20.4387 61.4305 21.2129 61.581 21.8366 61.9896C22.9979 62.7854 23.3635 64.3123 23.6216 65.7102C23.7721 66.3123 23.8151 66.936 23.7506 67.5382C23.6646 68.1403 23.342 68.764 22.8044 69.0436C22.2882 69.3016 21.6861 69.2371 21.1054 69.1511L12.9117 68.0758C12.1805 67.9683 11.4278 67.8607 10.8256 67.4521C9.64277 66.6134 9.53525 64.9359 9.53525 63.4735C9.53525 62.6778 9.3847 61.323 10.0729 60.7423C10.6536 60.2477 11.6428 60.4412 12.331 60.4842C14.8042 60.6563 17.2559 60.9359 19.7075 61.323Z" fill="white"/>
<path d="M21.9226 69.3877C21.643 69.3877 21.3635 69.3662 21.1054 69.3231L12.9117 68.2478C12.202 68.1618 11.4063 68.0543 10.7611 67.5812C9.55675 66.7424 9.40621 65.108 9.40621 63.4735C9.40621 63.366 9.40621 63.237 9.40621 63.1079C9.3847 62.2907 9.3632 61.1724 10.0084 60.6348C10.546 60.1831 11.3632 60.2477 12.0299 60.3122C12.159 60.3122 12.2665 60.3337 12.374 60.3337C14.7827 60.4842 17.2774 60.7638 19.7505 61.1509C20.5462 61.2799 21.3205 61.4305 21.9441 61.8606C23.1485 62.6778 23.5141 64.2047 23.7936 65.6887C23.9442 66.3123 23.9872 66.936 23.9442 67.5812C23.9012 68.635 23.0194 69.4522 21.9656 69.4092C21.9441 69.4092 21.9441 69.4092 21.9226 69.3877ZM11.2342 60.5918C10.8686 60.5703 10.4815 60.6563 10.1804 60.8713C9.64277 61.323 9.66428 62.3552 9.68578 63.1079C9.68578 63.237 9.68578 63.366 9.68578 63.4951C9.68578 65.0435 9.83633 66.5704 10.9116 67.3231C11.4923 67.7317 12.245 67.8392 12.9332 67.9253L21.1269 69.0006C21.6215 69.0651 22.2452 69.1511 22.7183 68.893C23.213 68.5919 23.5356 68.0758 23.5786 67.5167C23.6216 66.9145 23.5786 66.3123 23.4495 65.7317C23.1915 64.3123 22.8259 62.8499 21.7291 62.1187C21.1484 61.7316 20.4602 61.6025 19.6645 61.4735C17.2128 61.0864 14.7397 60.8068 12.331 60.6563C12.2235 60.6563 12.0944 60.6348 11.9654 60.6348C11.7503 60.6133 11.4923 60.5918 11.2342 60.5918Z" fill="#27272E"/>
<path d="M21.3635 62.3337C20.1592 63.323 18.9118 64.2478 17.643 65.1295C17.2989 65.3661 16.9118 65.6241 16.5032 65.6026C15.944 65.5811 15.5139 65.1295 15.1483 64.7209L11.9869 61.1079" fill="white"/>
<path d="M16.5462 65.7747C15.9225 65.7532 15.4494 65.28 15.0623 64.8284L11.9009 61.2154C11.8364 61.1509 11.8579 61.0434 11.9224 60.9789C11.9869 60.9143 12.0944 60.9359 12.159 61.0004L15.3203 64.6134C15.6859 65.022 16.073 65.4306 16.5677 65.4306H16.5892C16.9333 65.4306 17.2774 65.2155 17.6215 64.979C18.8903 64.0972 20.1376 63.151 21.3205 62.1832C21.385 62.1187 21.4925 62.1402 21.557 62.2047C21.6215 62.2692 21.6 62.3767 21.5355 62.4413C20.3312 63.4305 19.0839 64.3768 17.815 65.2585C17.3634 65.5381 16.9763 65.7747 16.5462 65.7747Z" fill="#27272E"/>
<path d="M16.5462 65.6886C15.944 65.6671 15.4924 65.2155 15.1053 64.7854L11.9439 61.1724C11.9224 61.1294 11.9224 61.0864 11.9439 61.0434C11.9654 61.0004 12.0299 61.0219 12.0729 61.0434L15.2343 64.6564C15.5999 65.0865 16.0085 65.4951 16.5247 65.5166C16.8903 65.5166 17.2559 65.3015 17.6215 65.065C18.8903 64.1832 20.1376 63.237 21.342 62.2692C21.385 62.2262 21.428 62.2262 21.471 62.2692C21.514 62.3122 21.514 62.3552 21.471 62.3983C20.2667 63.366 19.0193 64.3123 17.7505 65.194C17.3419 65.4521 16.9763 65.6886 16.5462 65.6886Z" fill="#27272E"/>
<path d="M25.2776 66.4414C26.3744 66.2908 27.5572 66.2908 28.4819 66.893C29.4712 67.5597 29.9013 68.7855 30.2454 69.9253C30.482 70.678 30.6755 71.5813 30.1594 72.1619C29.8153 72.549 29.2776 72.635 28.7615 72.6996L22.2022 73.6673C21.514 73.7749 20.7828 73.8609 20.1807 73.5598C19.2989 73.1082 18.9763 72.0114 18.8473 71.0221C18.7183 70.0328 18.6753 68.979 19.1054 68.0758C19.6 67.0435 20.6538 66.5274 21.7506 66.5919C22.9334 66.6779 24.1162 66.6134 25.2776 66.4414Z" fill="#5F27CD"/>
<path d="M28.0948 67.4306L25.5141 70.6565C25.299 70.9361 25.041 71.2157 24.6969 71.2587C24.3528 71.3017 23.9872 71.0436 23.7076 70.7855C22.6753 69.8393 21.7291 68.807 20.8688 67.7102" fill="#5F27CD"/>
<path d="M24.5894 71.3447C24.2238 71.3447 23.9227 71.1081 23.6216 70.8501C22.5893 69.9038 21.6431 68.8715 20.7828 67.7532C20.7613 67.7102 20.7613 67.6672 20.8043 67.6242C20.8473 67.6027 20.8903 67.6027 20.9334 67.6457C21.7936 68.7425 22.7399 69.7748 23.7506 70.721C24.0302 70.9791 24.3528 71.2157 24.6754 71.1727C24.998 71.1296 25.213 70.8716 25.4281 70.592L28.0088 67.3661C28.0303 67.3231 28.0948 67.3231 28.1378 67.3446C28.1808 67.3661 28.1808 67.4306 28.1593 67.4736L25.5786 70.6995C25.3421 71.0006 25.0625 71.3017 24.6969 71.3447H24.5894Z" fill="white"/>
<path d="M76.0959 40.1827C75.9669 40.1827 75.8379 40.0967 75.7948 39.9891C75.6873 39.7311 75.5798 39.473 75.4507 39.2149C75.3647 39.0644 75.4292 38.8708 75.6013 38.7848C75.7733 38.6988 75.9454 38.7633 76.0314 38.9353C76.1604 39.1934 76.268 39.473 76.397 39.7526C76.4615 39.9246 76.397 40.0967 76.225 40.1827C76.225 40.1827 76.225 40.1827 76.2035 40.1827C76.1819 40.1827 76.1389 40.1827 76.0959 40.1827Z" fill="#27272E"/>
<path d="M66.2032 63.151C66.0957 63.151 66.0097 63.1079 65.9451 63.0219C65.8376 62.8714 65.8591 62.6778 66.0097 62.5703C66.5043 62.1832 66.9344 61.8391 67.343 61.5165C67.4721 61.409 67.6871 61.4305 67.7947 61.5595C67.9022 61.6886 67.8807 61.9036 67.7516 62.0111C67.343 62.3552 66.8914 62.6993 66.3968 63.0864C66.3323 63.1295 66.2677 63.151 66.2032 63.151ZM68.8484 60.9574C68.6764 60.9574 68.5259 60.8068 68.5259 60.6348C68.5259 60.5487 68.5689 60.4627 68.6334 60.3982C68.9345 60.1186 69.214 59.8391 69.4721 59.581C69.6012 59.4519 69.7087 59.3229 69.8162 59.1939C69.9452 59.0648 70.1388 59.0648 70.2678 59.1939C70.3754 59.3014 70.3969 59.495 70.2893 59.624C70.1603 59.753 70.0528 59.8821 69.9237 60.0111C69.6657 60.2907 69.3646 60.5703 69.0635 60.8713C69.0205 60.9359 68.9345 60.9574 68.8484 60.9574ZM71.1496 58.3982C71.0851 58.3982 71.0205 58.3767 70.956 58.3336C70.8055 58.2261 70.784 58.0326 70.8915 57.882C71.2141 57.4304 71.5367 56.9573 71.7947 56.4841C71.8808 56.3336 72.0743 56.2691 72.2464 56.3551C72.3969 56.4411 72.4614 56.6347 72.3754 56.8067C72.0958 57.3229 71.7732 57.8175 71.4076 58.2906C71.3431 58.3552 71.2571 58.3982 71.1496 58.3982ZM72.827 55.4088C72.784 55.4088 72.741 55.4088 72.7195 55.3873C72.5475 55.3228 72.4614 55.1293 72.5259 54.9572C72.5475 54.9357 72.5475 54.8927 72.569 54.8497C72.2894 54.9357 72.0098 55.0002 71.7087 55.0217C71.5367 55.0217 71.3861 54.8927 71.3646 54.7207C71.3646 54.5486 71.4937 54.3981 71.6657 54.3766C72.0743 54.3551 72.4614 54.226 72.827 54.0325C72.87 53.8604 72.9131 53.7099 72.9561 53.5378C72.9776 53.4948 72.9776 53.4303 72.9991 53.3658C73.0421 53.1937 73.2141 53.0862 73.3862 53.1077C73.5582 53.1292 73.6658 53.3228 73.6443 53.4948L73.6012 53.6669L73.5367 53.9034L73.5582 53.9249C73.6658 54.0755 73.6227 54.269 73.4722 54.3766L73.3862 54.4411C73.3002 54.6776 73.2141 54.9357 73.1281 55.1938C73.0636 55.3228 72.9561 55.4088 72.827 55.4088ZM70.0743 54.5271C70.0098 54.5271 69.9452 54.5056 69.8807 54.4626C69.4076 54.1185 69.042 53.6239 68.8699 53.0432C68.8484 52.9787 68.8269 52.9142 68.8269 52.8712C68.7839 52.6991 68.8915 52.5271 69.085 52.484C69.2786 52.441 69.4291 52.5486 69.4721 52.7421C69.4721 52.7851 69.4936 52.8281 69.5151 52.8712C69.6442 53.3013 69.9237 53.6884 70.2893 53.9464C70.4399 54.054 70.4614 54.2475 70.3539 54.3981C70.2678 54.4841 70.1818 54.5271 70.0743 54.5271ZM74.5045 53.2798C74.44 53.2798 74.3539 53.2583 74.3109 53.2152C74.1819 53.1077 74.1389 52.8927 74.2679 52.7636C74.4185 52.5701 74.569 52.355 74.698 52.14C74.8271 51.9249 75.0206 51.6238 75.1497 51.3657C75.2142 51.1937 75.4077 51.1292 75.5798 51.2152C75.7518 51.2797 75.8163 51.4733 75.7303 51.6453C75.7303 51.6668 75.7088 51.6668 75.7088 51.6883C75.5583 51.9679 75.4077 52.2475 75.2357 52.5056C75.0636 52.7636 74.9131 52.9787 74.7626 53.1722C74.698 53.2153 74.612 53.2583 74.5045 53.2798ZM73.3647 52.0539C73.2141 52.0539 73.0851 51.9464 73.0421 51.7959C72.9991 51.5808 72.9131 51.3657 72.784 51.1722C72.6335 50.9571 72.4614 50.7636 72.2249 50.6345C72.0743 50.5485 72.0098 50.355 72.1173 50.1829C72.2249 50.0109 72.3969 49.9679 72.569 50.0754C72.8915 50.2689 73.1496 50.5055 73.3432 50.8281C73.4937 51.0862 73.6227 51.3657 73.6873 51.6668C73.7303 51.8389 73.6227 52.0109 73.4507 52.0539C73.4077 52.0539 73.3862 52.0539 73.3647 52.0539ZM69.4291 51.4733C69.3646 51.4733 69.3216 51.4518 69.2786 51.4303C69.128 51.3442 69.085 51.1507 69.1495 51.0001C69.3861 50.5915 69.7302 50.2474 70.1603 50.0109C70.3323 49.9249 70.5044 49.8603 70.6764 49.8173C70.8485 49.7743 71.0205 49.8818 71.0636 50.0539C71.1066 50.2259 70.999 50.398 70.827 50.441C70.6979 50.4625 70.5689 50.527 70.4614 50.57C70.1388 50.7421 69.8807 51.0001 69.7087 51.3012C69.6442 51.4088 69.5366 51.4733 69.4291 51.4733ZM76.1604 50.2689C76.1174 50.2689 76.0744 50.2689 76.0529 50.2474C75.8809 50.1829 75.7948 50.0109 75.8594 49.8388C76.0529 49.3227 76.225 48.785 76.354 48.2259C76.397 48.0538 76.5691 47.9463 76.7411 47.9893C76.9131 48.0323 77.0207 48.2044 76.9777 48.3764C76.8486 48.9571 76.6551 49.5162 76.4615 50.0539C76.4185 50.1829 76.2895 50.2689 76.1604 50.2689ZM76.9777 46.9355H76.9346C76.7626 46.914 76.6336 46.7635 76.6551 46.5914C76.7196 46.0538 76.7411 45.5161 76.7411 44.9785V44.9355C76.7411 44.7634 76.8916 44.6129 77.0637 44.6129C77.2357 44.6129 77.3863 44.7634 77.3863 44.9355V44.9785C77.3863 45.5377 77.3433 46.1183 77.2787 46.6775C77.2572 46.8065 77.1282 46.9355 76.9777 46.9355ZM76.9562 43.4946C76.7841 43.4946 76.6551 43.3656 76.6336 43.215C76.5691 42.6559 76.4615 42.1182 76.311 41.5591C76.268 41.387 76.3755 41.215 76.5475 41.172C76.7196 41.1289 76.8916 41.2365 76.9346 41.4085C77.0852 41.9677 77.1927 42.5483 77.2572 43.129C77.2787 43.301 77.1497 43.4731 76.9777 43.4946H76.9562Z" fill="#27272E"/>
<path d="M64.1172 64.6994C63.9451 64.6994 63.7946 64.5488 63.7946 64.3768C63.7946 64.2693 63.8376 64.1832 63.9236 64.1187L64.6118 63.6241C64.7623 63.5166 64.9559 63.5596 65.0634 63.6886C65.1709 63.8176 65.1279 64.0327 64.9989 64.1402L64.3107 64.6564C64.2462 64.6779 64.1817 64.6994 64.1172 64.6994Z" fill="#27272E"/>
<path d="M73.2356 42.6559C72.7625 39.7096 72.3754 36.5267 71.8808 33.5804C73.0206 35.1933 75.9024 35.0643 76.5475 36.9353C76.7626 37.5375 78.354 38.5052 78.9132 38.2042C79.4293 37.9246 78.8487 40.0752 77.6658 42.4623C77.5583 42.6774 73.2571 42.7419 73.2356 42.6559Z" fill="#27272E"/>
<path d="M77.7949 42.1827L78.5476 40.4623C76.4185 38.1611 74.0314 35.8815 71.9023 33.5589C73.3217 35.9245 75.0206 38.2472 76.526 40.5698C76.8271 41.0429 77.5583 41.7741 77.6659 42.3118C77.7734 42.7849 77.3218 43.4086 77.1067 43.8602C76.9777 44.1613 76.0099 45.6882 76.1389 45.9893C74.483 41.9247 73.0636 37.774 71.9023 33.5589L80.1175 37.1719C80.139 37.1719 78.8917 39.9676 77.7734 42.3978" fill="white"/>
<path d="M76.1174 46.1828C76.0529 46.1828 75.9884 46.1398 75.9669 46.0753C74.3109 42.0107 72.8915 37.8601 71.7087 33.6234C71.7087 33.6019 71.7087 33.5804 71.7087 33.5589V33.5374C71.7087 33.4944 71.7302 33.4729 71.7732 33.4514C71.7947 33.4298 71.8378 33.4298 71.8593 33.4298H71.9023H71.9238L80.139 37.0428C80.3111 37.1289 80.3111 37.1289 79.4723 38.9569C79.0207 39.9676 78.4186 41.258 77.8809 42.4838C77.8594 42.5268 77.8379 42.5483 77.7949 42.5698C77.7304 42.9354 77.6013 43.2795 77.3863 43.6021C77.3218 43.7312 77.2572 43.8387 77.2142 43.9462C77.1712 44.0537 77.1067 44.1613 76.9992 44.3763C76.7841 44.7634 76.225 45.7527 76.268 45.9678C76.311 46.0538 76.268 46.1398 76.1819 46.1828C76.1604 46.1828 76.1389 46.1828 76.1174 46.1828ZM72.3539 34.6557C73.4077 38.3332 74.655 41.9247 76.0744 45.4731C76.268 45.043 76.483 44.6129 76.7196 44.2043C76.8271 44.0322 76.9131 43.8817 76.9346 43.8172C76.9777 43.7097 77.0422 43.5806 77.1282 43.4516C77.3218 43.086 77.5368 42.6774 77.4723 42.3763C77.4078 42.0752 77.0637 41.6021 76.7411 41.215C76.5906 41.0214 76.44 40.8494 76.354 40.6988C75.7733 39.7956 75.1497 38.8708 74.526 37.9676C73.8163 36.8708 73.0636 35.774 72.3539 34.6557ZM72.87 34.8492C73.4937 35.8385 74.1604 36.8063 74.8056 37.774C75.4077 38.6773 76.0529 39.602 76.6336 40.5053C76.7196 40.6558 76.8701 40.8279 76.9992 40.9999C77.2572 41.301 77.4938 41.6451 77.6874 42.0107L78.3325 40.5053C77.2787 39.387 76.1604 38.2472 75.0851 37.1289C74.3539 36.3977 73.6012 35.6234 72.87 34.8492ZM72.5475 34.032C73.4507 34.9998 74.397 35.9675 75.3432 36.8923C76.4185 37.9891 77.5368 39.1289 78.5691 40.2472C79.1282 38.9999 79.7304 37.688 79.9025 37.2579L72.5475 34.032Z" fill="#27272E"/>
</svg>
