<svg width="81" height="93" viewBox="0 0 81 93" fill="none" xmlns="http://www.w3.org/2000/svg">
<path d="M7.13598 42.2986C7.85943 44.447 9.964 43.7454 9.74478 41.4436C9.74478 41.4216 9.74478 41.3778 9.74478 41.3559C8.53903 28.5311 7.28944 15.4872 3.73797 3.3201C2.66377 -0.384827 0.646881 -0.121756 0.515345 3.73663C0.38381 7.46348 0.822263 11.5192 1.23879 15.2899C2.07185 22.9189 3.56259 30.4384 5.71101 37.8044C6.17139 39.339 6.63176 40.8297 7.13598 42.2986Z" fill="#27272E"/>
<path d="M8.62672 49.2919C7.79366 50.2126 7.59636 51.528 8.10058 52.6461V52.668C8.42942 53.3257 8.99941 53.9176 9.72285 54.0491C10.4463 54.1806 11.2136 53.8518 11.7617 53.3257C12.5509 52.5364 12.9236 51.4184 12.7263 50.3223C12.5509 49.4015 11.6959 47.9108 10.6217 47.9108C9.964 47.9108 9.24055 48.5904 8.62672 49.2919Z" fill="#27272E"/>
<path d="M64.3322 42.4958C65.5379 48.415 64.9898 54.4437 63.8499 60.319C63.4553 62.3797 62.973 64.4404 61.8768 66.2819C60.7807 68.1234 59.0269 69.7676 56.7031 70.4253C52.8666 71.5214 48.3725 69.6799 46.0268 66.7861C43.681 63.8923 43.1549 60.2532 43.3741 56.8113C43.5933 53.3695 44.5579 50.0153 44.8648 46.5735C45.1498 43.4385 44.9306 40.2597 45.1937 37.1248C45.5006 33.4856 48.5259 22.8751 55.1466 27.0623C60.4738 30.4384 63.258 37.2783 64.3322 42.4958Z" fill="white"/>
<path d="M54.4012 70.9076C51.2882 70.9076 47.934 69.395 45.9171 66.8958C43.8564 64.3528 42.9576 60.9548 43.2426 56.8114C43.396 54.9699 43.6591 53.1503 44.0318 51.3526C44.3168 49.7742 44.6018 48.1739 44.7552 46.5516C44.9087 44.9293 44.9087 43.3509 44.9306 41.7724C44.9525 40.2379 44.9525 38.6594 45.0841 37.1029C45.3033 35.1518 45.7856 33.2226 46.5529 31.403C47.2763 29.6273 48.5478 27.3254 50.4551 26.3827C51.9239 25.6593 53.5681 25.8347 55.3 26.9308C61.7672 31.0303 64.0033 39.8432 64.5514 42.452C65.6037 47.5819 65.4502 53.2818 64.0691 60.3409C63.6964 62.2482 63.2141 64.4404 62.0741 66.3696C60.8464 68.4742 58.9611 69.965 56.8127 70.5788C56.0015 70.798 55.1904 70.9076 54.4012 70.9076ZM52.2528 26.2731C51.6609 26.2731 51.0909 26.4047 50.5647 26.6677C47.2325 28.3119 45.6102 34.538 45.391 37.1248C45.2594 38.6594 45.2375 40.2379 45.2375 41.7505C45.2375 43.3289 45.2156 44.9512 45.0621 46.5516C44.9087 48.1519 44.6237 49.7961 44.3387 51.3746C43.9879 53.1722 43.7249 54.9699 43.5714 56.7895C43.2864 60.8451 44.1633 64.1774 46.1802 66.6546C48.6575 69.7019 53.1735 71.2584 56.6811 70.25C58.7638 69.658 60.5615 68.2111 61.7672 66.1723C62.8633 64.3089 63.3456 62.2263 63.7183 60.2532C65.0994 53.238 65.2529 47.5819 64.2006 42.4959C63.6745 39.909 61.4603 31.2057 55.1027 27.172C54.0943 26.5801 53.1516 26.2731 52.2528 26.2731Z" fill="#27272E"/>
<path d="M49.0959 70.228C49.0521 69.8991 49.0302 69.5703 49.074 69.2415C49.4905 66.0188 56.7688 62.577 58.9173 66.3915C59.1803 66.8519 59.3996 67.3342 59.5749 67.8384C60.123 68.6715 60.5834 69.5703 61.0218 70.2499L69.6594 83.2939C70.3828 84.39 71.1282 85.6177 70.9528 86.9111C70.7116 88.6211 68.9798 89.6514 67.4013 90.3091C64.6391 91.4491 61.7234 92.1506 58.7638 92.4137C57.7115 92.5014 56.5715 92.5014 55.7385 91.8876C54.9931 91.3176 54.6424 90.3749 54.3574 89.4761C52.6474 84.3242 51.069 79.1505 49.6001 73.9329C49.2494 72.7052 48.9205 71.4556 49.0959 70.228Z" fill="#5F27CD"/>
<path d="M35.2627 2.50898C36.3589 2.11437 37.7619 2.50898 39.0115 2.88166C43.1768 4.13125 60.8026 10.6204 64.7925 12.3522C65.9983 12.8784 67.3136 13.4922 67.8836 14.5007C68.5413 15.6406 68.0809 16.956 67.6206 18.1179C62.0303 31.8415 56.4838 45.4335 50.9813 58.9159C50.2797 60.6697 49.4028 62.5551 47.4079 63.2566C45.2595 64.0239 42.6287 63.1251 40.3269 62.2701L32.8512 59.464L25.3318 56.7456C23.008 55.9125 20.4211 54.8822 19.2811 52.9091C18.2288 51.0896 18.7988 49.0727 19.3688 47.275C23.9068 33.4637 28.4886 19.499 33.1143 5.42469C33.5308 4.24087 34.0131 2.94743 35.2627 2.50898Z" fill="#27272E"/>
<path d="M36.8412 5.0739C37.7838 4.76698 38.9677 5.09582 40.0419 5.42466C43.5933 6.52079 58.6761 12.0453 62.096 13.536C63.1264 13.9964 64.2445 14.5006 64.7706 15.3337C65.3406 16.2764 64.9679 17.3506 64.5952 18.2713L51.0251 51.3526C50.4551 52.7776 49.7317 54.3121 48.0436 54.8602C46.246 55.4521 43.9879 54.6848 42.0149 53.9395L35.6135 51.528L29.1902 49.2042C27.1952 48.4807 25.0029 47.6038 23.9945 45.9815C23.0737 44.4689 23.5122 42.8466 23.9945 41.3997C27.6556 30.1753 31.3605 18.8413 35.0873 7.41962C35.3943 6.45502 35.7889 5.40274 36.8412 5.0739Z" fill="white"/>
<path d="M36.3808 54.6191C36.5781 55.6714 35.8985 56.6579 34.8462 56.8552C33.7939 57.0525 32.8074 56.3729 32.6101 55.3206C32.5443 54.9479 32.5882 54.5533 32.7416 54.2025C33.487 52.5145 36.052 52.8214 36.3808 54.6191Z" fill="white"/>
<path d="M54.4231 39.9967C53.3489 39.2294 52.0116 38.484 50.5867 38.6375C49.6001 38.7252 48.7671 39.339 48.3505 40.2378C48.0217 41.027 48.1313 41.8601 48.2848 42.6932C48.9863 46.2666 50.9813 49.7303 53.9847 52.668C51.4416 54.5752 49.0959 56.6798 47.5175 59.1132C45.9391 61.5466 45.1937 64.3308 45.9171 67.0492C46.2679 68.4084 47.0133 69.6142 48.0655 70.5349C49.359 71.6091 50.9593 72.201 52.6255 72.223C54.9054 72.223 56.7908 71.083 58.2596 69.8553C61.7891 66.9396 65.0337 62.862 64.8583 58.7405C64.661 54.2902 63.6087 50.0811 60.6272 46.0473C58.9173 43.7016 56.8127 41.6628 54.4231 39.9967Z" fill="white"/>
<path d="M52.6474 72.3983C50.9155 72.3764 49.2713 71.7626 47.9559 70.6665C46.8817 69.7238 46.1144 68.4742 45.7637 67.0931C44.8868 63.8266 46.1802 60.889 47.386 59.0036C48.7232 56.9429 50.7401 54.9041 53.7435 52.646C50.784 49.7084 48.8328 46.2885 48.1313 42.7151C47.9559 41.882 47.8683 41.0051 48.1971 40.1721C48.6355 39.2294 49.5344 38.5717 50.5647 38.4621C52.0993 38.2867 53.5462 39.1636 54.5108 39.8432C56.9004 41.5313 59.0269 43.592 60.7807 45.9377C63.4553 49.5769 64.8145 53.6326 65.0337 58.7186C65.231 63.5416 60.9561 67.8384 58.3692 69.9649C56.3962 71.6311 54.5766 72.3983 52.6474 72.3983ZM50.9813 38.769C50.8497 38.769 50.7182 38.769 50.6086 38.7909C49.6878 38.8786 48.8986 39.4486 48.504 40.3036C48.1971 41.049 48.2848 41.882 48.4602 42.6712C49.1617 46.2227 51.1347 49.6426 54.1162 52.5584C54.1601 52.6022 54.16 52.646 54.16 52.6899C54.16 52.7337 54.1381 52.7776 54.0943 52.7995C51.047 55.1014 49.0082 57.1183 47.671 59.179C46.4871 61.0205 45.2595 63.8485 46.0925 67.0054C46.4214 68.3207 47.1448 69.5265 48.1752 70.4034C49.4248 71.4557 51.0032 72.0257 52.6255 72.0476C54.467 72.0476 56.2208 71.3022 58.15 69.7238C64.0472 64.857 64.7706 60.7574 64.7048 58.7405C64.4856 53.7203 63.1483 49.7084 60.5176 46.135C58.7857 43.8112 56.6812 41.7724 54.3135 40.1063C53.5024 39.5363 52.2747 38.769 50.9813 38.769Z" fill="#27272E"/>
<path d="M47.5394 59.2009C47.5175 59.2009 47.4956 59.2009 47.4736 59.179C47.4298 59.1351 47.4079 59.0694 47.4517 59.0255C48.789 56.9429 50.8278 54.926 53.8531 52.646C50.8717 49.7084 48.9205 46.2665 48.1971 42.7151C48.0217 41.882 47.934 41.027 48.2629 40.194C48.6794 39.2513 49.5782 38.6155 50.5867 38.5278C52.0993 38.3525 53.5462 39.2294 54.4889 39.8871C56.8785 41.5751 59.005 43.6139 60.7588 45.9815C60.8026 46.0254 60.7807 46.0912 60.7368 46.135C60.693 46.1788 60.6272 46.1569 60.5834 46.1131C58.8515 43.7893 56.7469 41.7505 54.3793 40.0844C53.4585 39.4267 52.0774 38.5717 50.6305 38.7471C49.6878 38.8348 48.8767 39.4267 48.4821 40.2817C48.1752 41.049 48.2629 41.882 48.4382 42.6712C49.1398 46.2227 51.1128 49.6645 54.1162 52.5803C54.1601 52.6241 54.1601 52.6899 54.1162 52.7337C54.1162 52.7337 54.1162 52.7337 54.0943 52.7556C51.047 55.0575 49.0082 57.0963 47.649 59.1571C47.6052 59.2009 47.5833 59.2009 47.5394 59.2009Z" fill="#27272E"/>
<path d="M35.0435 42.8028C35.5477 43.4166 36.315 44.0743 37.0823 43.4605C37.2796 43.307 37.4331 43.0878 37.5208 42.8685C38.0688 41.7066 38.5511 40.5009 38.9238 39.2732C39.165 38.3744 39.9542 37.7606 40.8749 37.7386C43.5495 37.7167 46.509 37.8921 49.0301 37.7825C49.9071 37.7386 50.762 37.6948 51.4416 37.1248C52.2747 36.4233 52.0774 33.946 52.1651 32.828C52.5597 27.7638 52.7351 22.6997 52.6912 17.6137C52.6693 15.6187 52.5597 13.4045 51.1786 12.0015C49.7536 10.5107 47.4956 10.423 45.4568 10.423H16.8258C14.1951 10.423 11.1697 10.5984 9.54747 12.7468C8.51711 14.106 8.34172 15.9475 8.21019 17.6575C7.81558 22.7436 7.42097 27.8515 7.6402 32.9595C7.70597 34.2529 7.81558 35.6341 8.6048 36.6425C9.52555 37.8263 11.0821 38.1771 12.5509 38.3963C16.19 38.9225 19.873 38.9444 23.5341 38.7471C25.3975 38.6594 27.239 38.5059 29.1025 38.3306C30.0671 38.2429 31.207 37.9359 32.0401 38.5936C32.6101 39.054 32.9389 39.8871 33.3335 40.479C33.8597 41.2901 34.4297 42.0574 35.0435 42.8028Z" fill="#5F27CD"/>
<path d="M24.6741 13.7115C25.3975 13.2292 26.1429 12.7249 27.0198 12.6372C28.3133 12.5057 29.519 13.273 30.5494 14.0403C32.2593 15.2899 33.9255 16.6272 35.5477 18.0083C37.0604 19.3237 38.6169 20.8144 39.0992 22.7655C39.6473 24.9578 38.6607 27.3473 37.0165 28.9038C35.3723 30.4604 33.1143 31.2276 30.8563 31.5346C28.5983 31.8415 26.3402 31.7099 24.0603 31.6661C21.8899 31.6223 19.588 31.6223 17.7027 30.5261C15.6858 29.3642 13.3839 26.0978 13.5593 23.6643C13.647 22.4367 14.6993 21.5817 15.5543 20.8363C16.9135 19.6306 18.2946 18.4906 19.7196 17.3725C21.3199 16.0791 22.9641 14.8734 24.6741 13.7115Z" fill="#27272E"/>
<path d="M18.5357 22.919C18.5357 22.064 18.5796 21.0994 19.1934 20.5294C19.7634 20.0032 20.5965 19.9813 21.3857 19.9813L32.4566 19.9594C32.7635 19.9375 33.0485 19.9813 33.3116 20.1348C33.6624 20.3759 33.7062 20.8582 33.7501 21.2748C33.9474 24.1905 34.1227 27.0843 34.32 30C34.3639 30.6796 34.3858 31.4249 33.9693 31.9511C33.5528 32.4772 32.8293 32.6088 32.1716 32.6964C28.1817 33.2445 23.9287 33.398 19.9169 32.8061C17.9877 32.5211 18.5577 30.6576 18.5577 29.0573L18.5357 22.919Z" fill="white"/>
<path d="M13.7566 33.3322C13.9101 34.3187 14.6993 35.1079 15.7077 35.1956C22.8984 35.919 30.1767 35.371 37.4111 34.8229C38.0688 34.7791 38.7923 34.6914 39.2088 34.1871C39.5596 33.7706 39.6034 33.1787 39.6253 32.6306C39.7349 29.2546 39.5376 25.8565 39.0115 22.5024C34.4516 24.4316 31.8866 26.7554 27.4802 29.0134C27.2829 29.1011 13.8443 23.0285 13.5593 23.73C13.077 24.9577 13.2962 27.5007 13.3401 28.7723C13.4059 30.3068 13.5593 31.8195 13.7566 33.3322Z" fill="white"/>
<path d="M23.1395 35.6998C20.6403 35.6998 18.1631 35.6122 15.6858 35.3491C14.6116 35.2395 13.7347 34.4064 13.5812 33.3322C13.362 31.8195 13.2305 30.285 13.1866 28.7723C13.1866 28.5969 13.1647 28.3777 13.1647 28.1365C13.0989 26.7773 12.9893 24.7385 13.4278 23.6643C13.4497 23.5986 13.4935 23.5547 13.5593 23.5328C14.1074 23.3136 17.7027 24.7385 24.1479 27.4789C25.7045 28.1365 27.1733 28.7723 27.4583 28.8381C29.2998 27.8954 30.8344 26.9308 32.3032 25.9881C34.3639 24.6947 36.315 23.467 38.9457 22.349C38.9896 22.327 39.0553 22.327 39.0992 22.349C39.143 22.3709 39.165 22.4147 39.1869 22.4586C39.6911 25.8127 39.9103 29.2107 39.8007 32.6088C39.7788 33.2007 39.7349 33.8145 39.3623 34.253C38.9019 34.7791 38.1565 34.8887 37.455 34.9326C32.7416 35.3491 27.9406 35.6998 23.1395 35.6998ZM13.932 33.2884C14.0635 34.2091 14.8089 34.9326 15.7297 35.0202C22.9422 35.7437 30.2863 35.1956 37.4111 34.6476C38.0469 34.6037 38.7265 34.516 39.0992 34.0776C39.4061 33.7049 39.45 33.1568 39.4719 32.6307C39.5815 29.3204 39.3842 26.032 38.9019 22.7436C36.3808 23.8178 34.4954 25.0235 32.5005 26.2731C31.0097 27.2158 29.4532 28.2023 27.5898 29.145C27.4802 29.2107 27.4583 29.2107 24.0603 27.7639C20.7061 26.3389 14.4801 23.7082 13.7566 23.8178C13.362 24.8481 13.4716 26.7993 13.5374 28.1146C13.5593 28.3558 13.5593 28.5531 13.5593 28.7504C13.5812 30.285 13.7347 31.7976 13.932 33.2884Z" fill="#27272E"/>
<path d="M35.4381 16.4079C34.2543 18.8194 34.912 21.9982 36.9508 23.752C38.9896 25.5058 42.2122 25.7031 44.4702 24.2124C47.1229 22.4585 48.2409 18.4686 46.4433 15.7283C44.7552 13.1414 42.541 12.2645 39.6473 13.1633C37.8934 13.7333 36.2931 14.6979 35.4381 16.4079Z" fill="white"/>
<path d="M41.0503 25.3962C39.5157 25.4181 38.025 24.892 36.8631 23.9054C34.7366 22.0859 34.0789 18.8413 35.3066 16.364C36.0739 14.8075 37.5208 13.6895 39.6253 13.0318C42.5849 12.1111 44.8648 12.988 46.6187 15.6625C48.3725 18.3371 47.4079 22.5243 44.5799 24.3658C43.5276 25.0454 42.2999 25.3962 41.0503 25.3962ZM41.7518 12.988C41.0722 12.988 40.3707 13.1195 39.7349 13.3168C37.7181 13.9306 36.3369 15.0048 35.6135 16.4737C34.4516 18.8413 35.0873 21.9105 37.1042 23.6204C39.1211 25.3304 42.2341 25.5058 44.4264 24.0589C47.101 22.3051 48.0217 18.359 46.3556 15.7941C45.106 13.9306 43.5933 12.988 41.7518 12.988Z" fill="#27272E"/>
<path d="M39.1211 16.0791C38.7704 16.3641 38.4634 16.8025 38.5511 17.241C38.6388 17.6794 39.1869 17.9206 39.6473 17.8548C40.1076 17.789 40.5022 17.504 40.8749 17.241L40.4584 21.4063C40.1076 21.5378 39.713 21.4063 39.3403 21.4063C38.9677 21.4063 38.5073 21.6255 38.5292 21.9982C38.5292 22.4147 39.0554 22.5901 39.4719 22.6339C40.5899 22.7435 41.7299 22.7435 42.848 22.5901C43.4618 22.5024 44.2072 22.2612 44.2729 21.6474C44.2949 21.2528 44.0537 20.8801 43.6591 20.7486C43.2864 20.617 42.8918 20.617 42.5191 20.7486L42.7164 17.6794C42.7603 17.0437 43.0672 15.8598 42.6945 15.3118C41.8834 14.1718 39.8007 15.4652 39.1211 16.0791Z" fill="#5F27CD"/>
<path d="M17.6369 66.6108C17.1327 66.8739 16.6723 67.2246 16.2997 67.6411C15.927 68.1015 15.7297 68.7373 15.9708 69.0442C16.3216 69.4826 17.1546 69.0442 17.8123 68.6057C18.7331 67.97 23.9945 64.8789 23.6218 64.0678C23.2272 63.147 18.5577 66.0627 17.6369 66.6108Z" fill="#27272E"/>
<path d="M26.2525 75.6648C26.0771 76.2129 25.8579 76.7609 25.5729 77.2652C25.2879 77.7913 24.8714 78.2955 24.4549 78.4709C23.7753 78.7997 23.3807 78.1201 23.5122 77.2652C23.6437 76.4102 24.126 75.4675 24.6083 74.5687C25.5949 72.771 26.7568 70.6226 28.0283 69.088C28.7956 69.7676 26.7348 74.2837 26.2525 75.6648Z" fill="#27272E"/>
<path d="M36.2493 81.277C35.6135 82.0881 34.9777 82.0662 34.7366 81.4962C34.4954 80.9262 34.5612 80.0055 34.627 79.0847C34.7366 77.7475 34.7585 71.1049 36.4027 72.5518C37.4331 73.4725 36.6658 78.8655 36.2493 81.277Z" fill="#27272E"/>
<path d="M75.6223 30.3288C75.9292 30.5261 76.28 30.6795 76.6527 30.7672C77.0254 30.833 77.4638 30.7453 77.5734 30.5041C77.7269 30.1534 77.1788 29.8026 76.7184 29.5834C76.0608 29.2545 72.5751 27.1938 72.2243 27.6542C71.8297 28.2023 75.0085 29.9561 75.6223 30.3288Z" fill="#27272E"/>
<path d="M78.0996 22.4147C78.4723 22.327 78.8669 22.2832 79.2396 22.2832C79.6122 22.2612 79.9849 22.3489 80.2918 22.5243C80.7084 22.8093 80.4234 23.2478 79.8972 23.467C79.3711 23.6862 78.6476 23.6862 77.99 23.7081C76.6308 23.7081 75.0085 23.7301 73.715 23.4889C73.8685 22.8312 77.1569 22.5901 78.0996 22.4147Z" fill="#27272E"/>
<path d="M78.1653 14.8076C78.8449 14.9172 79.0422 15.2899 78.7792 15.6187C78.5161 15.9475 77.968 16.2106 77.42 16.4518C76.6088 16.8244 72.7504 18.9509 73.0574 17.526C73.2327 16.6271 76.6308 15.3337 78.1653 14.8076Z" fill="#27272E"/>
</svg>
