<svg width="318" height="410" viewBox="0 0 318 410" fill="none" xmlns="http://www.w3.org/2000/svg">
<path d="M12 37.7H200.9C207.5 37.7 212.9 43.1 212.9 49.7V397.1C212.9 403.7 207.5 409.1 200.9 409.1H12C5.4 409.1 0 403.7 0 397.1V49.7C0 43 5.4 37.7 12 37.7Z" fill="#27272E"/>
<path d="M22.2 56.9H190.8C197.4 56.9 202.8 62.3 202.8 68.9V356.4C202.8 363 197.4 368.4 190.8 368.4H22.2C15.6 368.4 10.2 363 10.2 356.4V68.9C10.2 62.3 15.6 56.9 22.2 56.9Z" fill="white"/>
<path d="M190.7 369.1H22.2C15.2 369.1 9.5 363.4 9.4 356.3V68.9C9.4 61.9 15.1 56.2 22.2 56.1H190.8C197.8 56.1 203.5 61.8 203.6 68.9V356.4C203.5 363.4 197.8 369.1 190.7 369.1ZM22.2 57.6C16 57.6 11 62.6 11 68.8V356.3C11 362.5 16 367.5 22.2 367.5H190.8C197 367.5 202.1 362.5 202.1 356.3V68.9C202.1 62.7 197.1 57.7 190.9 57.7H22.2V57.6Z" fill="#27272E"/>
<path d="M21.1 79.6C21.6 84 25 87.6 29.4 88.4C33.9 88.9 38.1 86.3 39.5 82C43.3 69.6 19.7 65.7 21.1 79.6Z" fill="#5F27CD"/>
<path d="M47.2 75.5C45.5 80.2 47.4 85.4 51.6 87.9C53.3 88.9 55.3 89.2 57.2 88.9C59.7 88.3 61.9 86.7 63.3 84.4C65.1 82 65.9 79 65.4 76C63.6 66.8 50.3 67.7 47.2 75.5Z" fill="#5F27CD"/>
<path d="M91.9 384.2C89.8 390 92.1 396.5 97.5 399.7C99.6 400.9 102.1 401.4 104.5 400.9C107.7 400.3 110.3 398 112.2 395.3C114.3 392.3 115.6 388.4 114.9 384.8C112.4 373.4 95.8 374.5 91.9 384.2Z" fill="white"/>
<path d="M61 131.4C60.4 128.5 61 125 63.6 123.5C65.7 122.6 68.1 122.9 69.9 124.2C71.7 125.6 73.1 127.3 74.3 129.2C76.3 126.8 78.4 124.3 81.3 123.3C84.2 122.3 88.1 123.2 89.2 126.1C90 128.2 89.1 130.5 88.1 132.5C85.7 137.3 80.5 146.3 74.1 145.5C68 144.6 62.1 137 61 131.4Z" fill="white"/>
<path d="M74.9 146.2C74.6 146.2 74.3 146.2 74 146.1C67.7 145.3 61.5 137.5 60.3 131.4C59.7 128.5 60.2 124.4 63.3 122.7C65.6 121.6 68.3 121.9 70.4 123.5C72 124.7 73.3 126.2 74.4 127.8C76.1 125.7 78.3 123.4 81.1 122.4C84.3 121.2 88.7 122.3 90 125.6C90.9 128 89.9 130.6 88.8 132.6C87 136.2 81.8 146.2 74.9 146.2ZM61.8 131.2C62.8 136.7 68.6 143.9 74.2 144.6C80.5 145.4 85.7 135.3 87.4 132C88.3 130.3 89.2 128.1 88.5 126.2C87.6 123.7 84.1 122.9 81.6 123.8C78.8 124.8 76.7 127.3 74.9 129.5C74.7 129.7 74.5 129.8 74.3 129.8C74.1 129.8 73.8 129.7 73.7 129.5C72.6 127.7 71.2 126.1 69.5 124.7C68.1 123.8 65.9 123 64 124C61.8 125.4 61.3 128.6 61.8 131.2Z" fill="#27272E"/>
<path d="M91.7 131.4C91.1 128.5 91.7 125 94.3 123.5C96.4 122.6 98.8 122.9 100.6 124.2C102.3 125.6 103.8 127.3 105 129.2C107 126.8 109.1 124.3 112 123.3C114.9 122.3 118.8 123.2 119.9 126.1C120.7 128.2 119.8 130.5 118.8 132.5C116.4 137.3 111.2 146.3 104.8 145.5C98.7 144.6 92.8 137 91.7 131.4Z" fill="white"/>
<path d="M105.6 146.2C105.3 146.2 105 146.2 104.7 146.1C98.4 145.3 92.2 137.5 91 131.4C90.4 128.5 90.9 124.4 94 122.7C96.3 121.6 99 121.9 101.1 123.5C102.7 124.7 104 126.2 105.1 127.8C106.8 125.7 109 123.4 111.8 122.4C115 121.2 119.4 122.3 120.7 125.6C121.6 128 120.6 130.6 119.5 132.6C117.6 136.2 112.4 146.2 105.6 146.2ZM92.4 131.2C93.4 136.7 99.2 143.9 104.8 144.6C111.1 145.4 116.3 135.3 118 132C118.9 130.3 119.8 128.1 119.1 126.2C118.2 123.7 114.7 122.9 112.2 123.8C109.4 124.8 107.3 127.3 105.5 129.5C105.3 129.7 105.1 129.8 104.9 129.8C104.7 129.8 104.4 129.7 104.3 129.5C103.2 127.7 101.8 126.1 100.1 124.7C98.7 123.8 96.5 123 94.6 124C92.4 125.4 91.9 128.6 92.4 131.2Z" fill="#27272E"/>
<path d="M124.3 131.4C123.7 128.5 124.3 125 126.9 123.5C128.8 122.4 131.3 123 133.2 124.2C134.9 125.6 136.4 127.3 137.6 129.2C139.6 126.8 141.7 124.3 144.6 123.3C147.5 122.3 151.4 123.2 152.5 126.1C153.3 128.2 152.4 130.5 151.4 132.5C149 137.3 143.8 146.3 137.4 145.5C131.3 144.6 125.4 137 124.3 131.4Z" fill="white"/>
<path d="M138.2 146.2C137.9 146.2 137.6 146.2 137.3 146.1C131 145.3 124.8 137.5 123.6 131.4C123 128.5 123.5 124.4 126.6 122.7C128.9 121.6 131.6 121.9 133.7 123.5C135.3 124.7 136.6 126.2 137.7 127.8C139.4 125.7 141.6 123.4 144.4 122.4C147.6 121.2 152 122.3 153.3 125.6C154.2 128 153.2 130.6 152.1 132.6C150.2 136.2 145.1 146.2 138.2 146.2ZM125 131.2C126 136.7 131.8 143.9 137.4 144.6C143.7 145.4 148.9 135.3 150.6 132C151.5 130.3 152.4 128.1 151.7 126.2C150.8 123.7 147.3 122.9 144.8 123.8C142 124.8 139.9 127.3 138.1 129.5C137.9 129.7 137.7 129.8 137.5 129.8C137.3 129.8 137 129.7 136.9 129.5C135.8 127.7 134.4 126.1 132.7 124.7C131.3 123.8 129.1 123 127.2 124C125 125.4 124.5 128.6 125 131.2Z" fill="#27272E"/>
<path d="M21.8 219.2C21.7 230.2 30 240.3 40.1 242.5C50.2 244.7 61.2 239.6 67.2 230.7C70 226.8 71.4 222.2 71.3 217.4C71 211.5 67.6 206.3 63.6 202.2C60.9 199.2 57.5 196.9 53.7 195.5C47.2 193.4 38.9 197 33.1 200.2C26.2 204 21.9 211.3 21.8 219.2Z" fill="#5F27CD"/>
<path d="M44.7 205C44.2 206.8 44.1 208.6 44.3 210.4C44.4 211.3 44.6 212.2 45 213C45.4 213.8 46.2 214.4 47.2 214.5C48 214.5 48.8 214.1 49.4 213.5C49.9 212.9 50.3 212.1 50.5 211.3C51.3 208.8 51.5 204.8 49.8 202.6C47.8 200.1 45.4 202.8 44.7 205Z" fill="#27272E"/>
<path d="M39.7 211.7C40.3 212.7 40.6 213.9 41.1 215C42.8 218.2 46.8 219.5 50 217.8C50.6 217.5 51.1 217.1 51.6 216.6C52.7 215.4 53.4 213.9 54.6 212.8C55.8 211.7 58 211.3 59 212.6C59.5 213.5 59.6 214.5 59.3 215.5C58 220.4 53.6 223.9 48.5 224L48 230.2C49 230.2 50.1 230.4 51 230.9C52 231.4 52.4 232.6 52 233.6C51.5 234.5 50.3 234.7 49.2 234.8C46.9 234.9 44.5 234.8 42.2 234.6C41.1 234.5 39.7 233.9 39.7 232.8C39.8 232.1 40.3 231.6 41 231.5C41.7 231.4 42.4 231.5 43 231.7L43.4 224.3C43.4 224.3 39.5 221.5 39.1 221.1C37.9 219.6 37 218 36.4 216.2C36 214.9 35 213.3 35.3 211.9C36.1 209.2 38.7 210 39.7 211.7Z" fill="#27272E"/>
<path d="M81.4 214.1C79.6 224 84 234 92.6 239.3C101.3 244.3 112.2 243.6 120.3 237.6C128.2 231.3 131.7 221.1 129.5 211.3C128.2 205.5 124.7 200.4 119.8 197C106.2 187.8 84.6 198.6 81.4 214.1Z" fill="#5F27CD"/>
<path d="M93 207C92.7 208.4 93.4 209.8 94.6 210.5C95.8 211.2 97.3 211.1 98.5 210.3C99.6 209.4 100.1 208 99.8 206.6C99.6 205.8 99.1 205.1 98.5 204.6C96.4 203.4 93.4 204.9 93 207Z" fill="#27272E"/>
<path d="M103.1 207C102.8 208.4 103.5 209.8 104.7 210.5C105.9 211.2 107.4 211.1 108.6 210.3C109.7 209.4 110.2 208 109.9 206.6C109.7 205.8 109.2 205.1 108.6 204.6C106.6 203.4 103.6 204.9 103.1 207Z" fill="#27272E"/>
<path d="M112.7 207C112.4 208.4 113.1 209.8 114.3 210.5C115.5 211.2 117 211.1 118.2 210.3C119.3 209.4 119.8 208 119.5 206.6C119.3 205.8 118.8 205.1 118.2 204.6C116.2 203.4 113.2 204.9 112.7 207Z" fill="#27272E"/>
<path d="M93 216.8C92.7 218.2 93.4 219.6 94.6 220.3C95.8 221 97.3 220.9 98.5 220.1C99.6 219.2 100.1 217.8 99.8 216.4C99.6 215.6 99.1 214.9 98.5 214.4C96.4 213.1 93.4 214.6 93 216.8Z" fill="#27272E"/>
<path d="M103.1 216.8C102.8 218.2 103.5 219.6 104.7 220.3C105.9 221 107.4 220.9 108.6 220.1C109.7 219.2 110.2 217.8 109.9 216.4C109.7 215.6 109.2 214.9 108.6 214.4C106.6 213.1 103.6 214.6 103.1 216.8Z" fill="#27272E"/>
<path d="M112.7 216.8C112.4 218.2 113.1 219.6 114.3 220.3C115.5 221 117 220.9 118.2 220.1C119.3 219.2 119.8 217.8 119.5 216.4C119.3 215.6 118.8 214.9 118.2 214.4C116.2 213.1 113.2 214.6 112.7 216.8Z" fill="#27272E"/>
<path d="M93 226.9C92.7 228.3 93.4 229.7 94.6 230.4C95.8 231.1 97.3 231 98.5 230.2C99.6 229.3 100.1 227.9 99.8 226.5C99.6 225.7 99.1 225 98.5 224.5C96.4 223.2 93.4 224.8 93 226.9Z" fill="#27272E"/>
<path d="M103.1 226.9C102.8 228.3 103.5 229.7 104.7 230.4C105.9 231.1 107.4 231 108.6 230.2C109.7 229.3 110.2 227.9 109.9 226.5C109.7 225.7 109.2 225 108.6 224.5C106.6 223.2 103.6 224.8 103.1 226.9Z" fill="#27272E"/>
<path d="M112.7 226.9C112.4 228.3 113.1 229.7 114.3 230.4C115.5 231.1 117 231 118.2 230.2C119.3 229.3 119.8 227.9 119.5 226.5C119.3 225.7 118.8 225 118.2 224.5C116.2 223.2 113.2 224.8 112.7 226.9Z" fill="#27272E"/>
<path d="M57.4 181.8C54.6 181.8 51.9 180.3 50.5 177.8C49.6 176.1 48.9 174.3 48.7 172.4C48.2 169.6 48.1 166.8 48.3 164C48.4 161.6 49.2 159.3 50.7 157.4C52.9 155.1 56.2 154.3 59.2 155.3C64.9 157.3 67 167.5 65 174.6C63.7 179.2 61 181.8 57.4 181.8ZM56.5 159.2C55.5 159.2 54.6 159.6 53.9 160.3C53.1 161.5 52.6 162.9 52.6 164.3C52.4 166.7 52.5 169.2 52.9 171.6C53.1 172.9 53.5 174.2 54.1 175.4C54.6 176.3 55.5 177 56.5 177.3C58.5 177.7 59.9 176.4 60.7 173.5C62.2 168.1 60.5 160.5 57.6 159.4C57.3 159.3 56.9 159.2 56.5 159.2Z" fill="#5F27CD"/>
<path d="M74.2 181.1C72.3 181.1 70.5 180.7 68.8 179.9C67.7 179.4 67.3 178.1 67.8 177C68.3 176 69.5 175.5 70.5 175.9C72 176.6 73.6 176.9 75.3 176.7C76.7 176.5 78 175.7 78.7 174.5C79.3 173.5 79.3 172.2 78.7 171.2C78.1 170.6 77.3 170.1 76.5 170C75 170.3 73.4 170.1 72 169.4C70.9 168.9 70.5 167.6 71 166.5C71.4 165.8 72.1 165.3 73 165.3C74.1 165.3 75.2 165.4 76.3 165.5C77.1 165.2 77.8 164.6 78.2 163.8C78.8 162 78 160 76.4 159.1C74.6 158.2 72.4 158.6 71 160C70.1 160.8 68.8 160.8 67.9 160C67 159.2 67.1 157.8 67.9 156.9C70.7 154.1 75 153.5 78.5 155.3C82.1 157.3 83.7 161.6 82.2 165.5C81.9 166.2 81.5 166.9 81 167.4C81.4 167.7 81.8 168.1 82.1 168.6C83.8 171 84 174.2 82.5 176.8C81.1 179.1 78.7 180.7 76 181.1C75.4 181.1 74.8 181.1 74.2 181.1Z" fill="#5F27CD"/>
<path d="M96.5 165.7C95.7 165.7 94.9 165.5 94.1 165.1C91.7 163.8 90.9 160.8 92.2 158.5C93.4 156.3 96 155.4 98.3 156.3L98.6 156.4L98.9 156.5C101.3 158 101.9 161.2 100.4 163.5C100 164.1 99.6 164.6 99 164.9C98.2 165.5 97.3 165.7 96.5 165.7ZM96.5 160.3C96.3 160.3 96.2 160.4 96.1 160.5C95.9 160.6 95.8 160.7 95.8 160.9C95.8 161 95.9 161.1 96.2 161.3C96.4 161.4 96.5 161.4 96.7 161.4C96.8 161.3 96.9 161.1 96.8 160.9C96.8 160.7 96.8 160.5 96.6 160.4L96.5 160.3Z" fill="#5F27CD"/>
<path d="M96.6 177.8C96.1 177.8 95.6 177.7 95.2 177.6C93.8 177.2 92.7 176.3 92 175.1C90.8 172.7 91.4 169.8 93.5 168.1C94.6 167.2 96 166.9 97.4 167.1C98.9 167.4 100.2 168.6 100.5 170.1C101.3 171.1 101.6 172.4 101.4 173.6C101.1 176 99.1 177.8 96.6 177.8ZM96.3 171.4C95.8 171.8 95.6 172.4 95.8 172.9C95.9 173.1 96.1 173.2 96.3 173.3C96.5 173.4 96.6 173.4 96.8 173.3C96.9 173.2 96.9 173.1 97 173C97 172.9 97 172.8 97 172.7C96.8 172.5 96.6 172.2 96.5 171.8C96.4 171.7 96.4 171.6 96.3 171.4Z" fill="#5F27CD"/>
<path d="M114.6 182.4C112.4 182.4 110.2 181.6 108.7 180C107.8 179.2 107.8 177.8 108.7 176.9C109.6 176 110.9 176 111.8 176.9L111.9 177C113.1 178.1 114.8 178.4 116.3 177.8C118.1 177.1 119.5 175.7 120.4 174C120.8 173.2 121.5 171.6 121.1 170.4C120.5 169.3 119.5 168.6 118.3 168.4C116.6 168.2 114.9 168.2 113.2 168.5C112 168.7 110.9 167.8 110.8 166.6C110.8 166.5 110.8 166.4 110.8 166.3L111 157.6C111 156.5 111.9 155.6 113 155.5C117 155.2 120.9 155.2 124.9 155.7C126.1 155.9 126.9 157 126.7 158.2C126.5 159.3 125.5 160.1 124.4 160.1C121.4 159.8 118.4 159.7 115.3 159.8L115.2 164C116.5 163.9 117.9 164 119.2 164.2C121.9 164.7 124.2 166.5 125.2 169C126 171.1 125.6 173.6 124.2 176.2C122.8 178.9 120.6 180.9 117.8 182C116.7 182.2 115.7 182.4 114.6 182.4Z" fill="#5F27CD"/>
<path d="M137.7 182.1C133.6 182 129.8 179.7 127.8 176C125.9 172.4 125.5 168.3 126.7 164.4C127.6 160.5 130.1 157.1 133.5 154.9C137.3 152.7 142.1 152.9 145.6 155.5C146.5 156.3 146.7 157.6 145.9 158.6C145.1 159.5 143.8 159.7 142.8 158.9C140.7 157.4 137.8 157.3 135.6 158.7C133.2 160.2 131.4 162.7 130.8 165.5C130.7 165.7 130.7 165.9 130.7 166.1C133.3 164.4 136.4 163.7 139.4 164.3C143.8 165.2 146.9 169 147 173.4C146.7 178.1 142.9 181.8 138.2 182L137.7 182.1ZM130.7 171.6C130.9 172.4 131.2 173.2 131.6 173.9C132.9 176.3 135.3 177.7 138 177.7C140.4 177.6 142.4 175.7 142.7 173.3C142.6 171 140.9 169 138.6 168.6C136 168.2 133.4 169.1 131.7 171C131.4 171.3 131.1 171.5 130.7 171.6Z" fill="#5F27CD"/>
<path d="M141.1 224.2C139.3 214.3 143.7 204.3 152.3 199C161 194 171.9 194.7 180 200.7C187.9 207 191.4 217.2 189.2 227C187.9 232.8 184.4 237.9 179.6 241.3C166 250.5 144.3 239.7 141.1 224.2Z" fill="#5F27CD"/>
<path d="M151.5 229.6C153 230.3 154.8 229.4 156.2 228.5C158.3 227 160.2 225.4 162 223.6C163.7 222 165.3 220 165.3 217.6C165.1 215.7 164.3 213.9 162.9 212.6C160.1 209.5 151.2 202.6 149.7 209.9C149.1 212.9 149.5 216.4 149.5 219.5C149.4 222 148.5 228.1 151.5 229.6Z" fill="#27272E"/>
<path d="M166.4 225C166.3 226 166.4 227.1 166.8 228.1C167.2 229.1 168.3 229.7 169.3 229.5C170.5 229.2 171 227.6 171.1 226.3C171.8 221.1 172 215.9 171.8 210.7C171.6 206.3 167.7 205 166.6 209.8C165.6 214.5 166.5 220.2 166.4 225Z" fill="#27272E"/>
<path d="M173.6 224.8C173.6 225.6 173.7 226.5 174 227.3C174.3 228.1 175.1 228.7 176 228.7C177.5 228.7 178.2 226.9 178.5 225.4C179 222.4 181.4 209.1 176.9 208.4C171.9 207.7 173.5 222 173.6 224.8Z" fill="#27272E"/>
<path d="M22.4 277.1C20.6 267.2 25 257.2 33.6 251.9C42.3 246.9 53.2 247.6 61.3 253.6C69.2 259.9 72.7 270.1 70.5 279.9C69.2 285.7 65.7 290.8 60.9 294.2C47.3 303.4 25.6 292.6 22.4 277.1Z" fill="#5F27CD"/>
<path d="M33.6 273.8C34.4 274.7 35.6 275.3 36.8 275.4C39.2 275.7 41.5 275.2 43.6 274C42.8 277.7 42.9 281.6 44 285.2C44.3 286.3 44.9 287.6 46.1 287.8C47.7 288.1 48.9 286.4 49.3 284.9C50.4 281.3 50.2 277.4 48.7 273.9C51.8 275.3 55.3 275.6 58.6 274.8C60.4 274.3 62.5 273 62.2 271.1C62 269.8 60.6 269 59.4 268.5C55.9 267.3 52 267.9 49 269.9C50.7 267.1 50.9 263.7 49.7 260.7C49.1 259.2 47.6 257.7 46.1 258.3C45.2 258.9 44.6 259.8 44.5 260.9C43.6 264.9 45.4 268.9 40.3 268.5C37.7 268.4 30.5 269.5 33.6 273.8Z" fill="#27272E"/>
<path d="M80.4 319.4C77 329.8 81.8 342 90.7 347.2C99.6 352.4 111.7 351 120.1 344.3C123.9 341.5 126.7 337.5 128.1 332.9C129.6 327.2 128 321.2 125.5 316C123.8 312.3 121.3 309.1 118.1 306.5C112.6 302.5 103.5 303.4 97 304.6C89.3 306.3 82.9 311.9 80.4 319.4Z" fill="#5F27CD"/>
<path d="M109.7 317.8C105.3 316.7 100.6 317.1 96.4 319C94 319.9 91.8 321.4 90.1 323.4C88.4 325.4 87.7 328.1 88.2 330.6C88.8 333.2 91 335.1 93.6 335.4C96.2 335.5 98.7 333.2 98.5 330.6C98.5 330.1 98.3 329.6 98.3 329.1C98.3 327.5 99.3 326.1 100.8 325.4C102.2 324.8 103.8 324.6 105.4 324.8C107.8 325.1 110.5 326.3 110.8 328.8C110.8 329.4 110.8 330.1 110.9 330.7C111.3 331.6 112.1 332.2 113.1 332.3C114.1 332.4 115 332.2 115.9 331.9C117.3 331.6 118.5 331 119.5 330C121.5 327.8 119.2 324.5 117.6 322.7C115.6 320.3 112.8 318.6 109.7 317.8Z" fill="#27272E"/>
<path d="M129.5 277.1C131.3 267.2 126.9 257.2 118.3 251.9C109.6 246.9 98.7 247.6 90.6 253.6C82.7 259.9 79.1 270.1 81.4 279.9C82.7 285.7 86.1 290.8 91 294.2C104.6 303.4 126.2 292.6 129.5 277.1Z" fill="#5F27CD"/>
<path d="M91.7 267.7C90.8 268.4 90.1 269.4 89.6 270.5C89 272.4 90 274.5 91.2 276C92.7 278 94.6 279.7 96.7 281C97.8 281.6 99.1 282.2 100.2 281.5C101.3 280.8 101.3 279.7 101.3 278.6C101.5 274.8 102.8 267.7 100.5 264.5C98 260.6 94 265.5 91.7 267.7Z" fill="#27272E"/>
<path d="M105.6 281.5C108 281.8 110.3 281.2 112.2 279.7C114 278.2 115.6 276.4 116.9 274.5C118 273.1 119.1 271.4 118.8 269.7C118.4 268.2 117.4 267 116.1 266.2C112.9 264 107.3 260.3 106.3 265.7C106.1 267.1 104.8 281.4 105.6 281.5Z" fill="#27272E"/>
<path d="M143.6 260.2C138.9 267.7 138.2 277 141.8 285.1C144.3 290.5 148.9 295 154.6 296.7C158.6 297.8 162.9 297.7 166.9 296.5C174.3 294.4 180.6 289.4 184.2 282.6C187.8 275.7 187.9 267.6 184.5 260.6C178.4 248.4 163.1 245.5 151.9 252.2C148.6 254.2 145.7 256.9 143.6 260.2Z" fill="#5F27CD"/>
<path d="M158.1 256.5C156.6 258 155.8 260.2 156 262.3C156.1 264.5 157.5 266.4 159.4 267.4C161.6 268.3 164.1 267.4 165.9 265.9C167.7 264.5 168.7 262.3 168.7 260.1C168.6 254.8 161.7 253.2 158.1 256.5Z" fill="#27272E"/>
<path d="M164.9 269.7C163.1 269.5 161.5 270.8 160.2 272.1C158.4 274.1 156.8 276.3 155.5 278.6C154.8 280 154.1 281.6 154.7 283C155.3 284.4 157.1 285.3 158.7 285.6C161.4 286.2 164.2 286.3 166.9 285.8C168.6 285.7 170.2 284.9 171.3 283.6C172.2 282.2 172.3 280.4 171.7 278.9C170.8 276.4 168 270.1 164.9 269.7Z" fill="#27272E"/>
<path d="M290.5 118.2C302.7 111.4 310.1 98.3 313.8 84.8C318.1 68.9 317.7 50.9 308.5 37.2C304.5 31.3 299.2 26.5 293.6 22C286.5 16.3 278.9 11.1 270.2 8.5C248.2 1.7 226.2 15.5 212 31.4C202.8 41.7 196.4 54.8 195.4 68.7C194.4 82.6 199.2 96.9 209.2 106.5C214.9 111.9 222 115.5 229.5 118C229.1 118.6 228.7 119.3 228.2 119.9C217.3 133 199.7 140.6 182.7 138.2C178.9 137.7 173.6 137.6 172.7 141.4C171.8 145.2 176.6 147.4 180.3 147.9C205 151.6 231.8 141.9 246.9 122L249 122.3C263.1 124.4 278.2 125.1 290.5 118.2Z" fill="#5F27CD"/>
<path d="M309.5 126C311.4 123.3 317.8 112.4 313.6 110.9C309.4 109.4 304.4 118 301.9 120.2C297 124.3 291.5 127.6 285.5 130C278.9 132.6 272 133.9 264.9 133.9C262.7 133.7 260.5 133.9 258.3 134.4C256.2 135.1 254.2 136.8 254 139C253.8 141.2 255.4 143.2 257.3 144.2C259.3 145.1 261.5 145.5 263.7 145.4C275 145.6 286.6 143.7 296.3 138.1C301.6 135 306 130.9 309.5 126Z" fill="#5F27CD"/>
<path d="M316 131.3C312.6 129.4 311 135 309.3 136.9C306.6 140 303.3 142.6 299.7 144.5C294.7 147.4 289.3 149.5 284.2 152C283.1 152.6 281.8 153.3 281.7 154.6C281.7 156 282.7 157.1 284 157.3C285.3 157.4 286.6 157.3 287.9 156.8C293.4 155.1 298.9 153.5 303.9 150.8C308.9 148.1 313.6 144.4 316.5 139.5C317.3 138.2 317.8 136.7 318 135.2C318.1 133.6 317.3 132.1 316 131.3Z" fill="#5F27CD"/>
<path d="M180.1 50.2C180.5 52.2 181.9 53.9 183.9 54.6C186.1 55.2 188.6 54 190 52.1C191.3 50.2 192.3 48 192.8 45.7C195.2 37.8 198.3 30 203.1 23.3C207.9 16.6 214.2 10.7 221.9 7.8C223.8 7.1 226.1 6.1 226.2 4C226.3 1.7 223.2 0.499999 221 0.999999C200.8 5.6 184.7 24.2 180.5 44.1C179.8 46.1 179.7 48.2 180.1 50.2Z" fill="#5F27CD"/>
<path d="M176.9 28.4C178 27.2 178.3 25.6 178.9 24.2C179.9 21.8 191.6 9.5 187.9 8.9C185.7 8.5 181.2 12.9 179.8 14.3C176.5 17.4 174.1 21.3 172.6 25.5C172.2 26.6 172 27.9 172.6 28.8C173.7 30 175.9 29.6 176.9 28.4Z" fill="#5F27CD"/>
<path d="M292.3 59.1C291.3 54.7 290.2 50.2 288.1 46.2C286 42.2 282.8 38.5 278.6 36.9C270.2 33.7 260.9 39.2 254.9 46C251.9 40 243.8 37.9 237.5 40.2C231.2 42.5 226.9 48.4 224.7 54.8C223.3 59 220.5 67.7 223.2 71.8C223.4 72.1 223.6 72.3 223.8 72.6C221.3 74.4 220.9 78.2 222.4 80.9C223.8 83.6 226.6 85.5 229.3 87C241.4 93.8 256.2 96.9 269.3 92.5C281.2 88.5 290.9 77.5 291.8 65.2C293 63.7 292.8 61.1 292.3 59.1ZM275.4 70.9C269.5 73.4 263.3 75.1 256.9 75.9C252.2 76.5 247.4 76.1 242.9 74.5C239.4 73.3 235.8 72.3 232.1 71.6C234.4 70.2 236.5 68.5 238 67.6C245.2 63.3 252.6 58.9 261 57.8C269.5 56.7 278.1 59 284.8 64.3C285.4 64.8 286 65.3 286.7 65.7C282.4 67.9 276.8 70.3 275.4 70.9Z" fill="white"/>
<path d="M256.5 95.3C246.8 95.1 237.4 92.5 229 87.7C226.3 86.2 223.4 84.3 221.8 81.3C220.4 78.6 220.5 74.7 222.8 72.5C222.7 72.4 222.7 72.3 222.6 72.2C219.7 67.8 222.6 58.8 224.1 54.6C226.6 47.3 231.5 41.8 237.4 39.6C244.1 37.1 251.8 39.4 255.2 44.8C264 35.2 273.2 34.1 279 36.3C283 37.8 286.5 41.3 288.9 45.9C291.1 50 292.1 54.5 293.1 58.9C293.5 60.5 293.9 63.5 292.7 65.5C291.7 77.7 282.2 89.1 269.7 93.3C265.4 94.6 261 95.3 256.5 95.3ZM242.9 40.1C241.2 40.1 239.5 40.4 237.9 41C232.4 43.1 227.9 48.2 225.5 55.1C224.3 58.8 221.3 67.6 223.9 71.4C224.1 71.6 224.2 71.9 224.4 72.1C224.6 72.3 224.6 72.5 224.6 72.7C224.6 72.9 224.5 73.1 224.3 73.3C222 74.9 221.9 78.4 223.1 80.7C224.5 83.3 227.2 85.1 229.7 86.5C242.9 93.9 257.3 95.9 269.1 91.9C281.2 87.9 290.3 76.9 291.1 65.2C291.1 65.1 291.2 64.9 291.2 64.8C291.9 63.7 292.1 61.7 291.5 59.3C290.5 55 289.5 50.5 287.4 46.6C285.2 42.3 281.9 39.1 278.3 37.7C270 34.5 260.8 40.5 255.5 46.6C255.2 46.9 254.8 46.9 254.4 46.7C254.3 46.6 254.3 46.6 254.2 46.5C252.2 42.1 247.4 40.1 242.9 40.1ZM252.8 76.9C249.4 76.9 245.9 76.3 242.7 75.2L240.9 74.6C238 73.6 235.1 72.8 232.1 72.3C231.8 72.2 231.5 72 231.5 71.7C231.4 71.4 231.6 71.1 231.8 70.9C233 70.2 234.1 69.3 235.2 68.6C236.3 67.9 237 67.3 237.8 66.9C244.7 62.8 252.4 58.1 261 57C269.7 55.9 278.5 58.2 285.4 63.6C286 64.1 286.6 64.5 287.3 65C287.5 65.1 287.7 65.4 287.7 65.7C287.7 66 287.5 66.2 287.3 66.3C283 68.7 277.5 71 275.9 71.7C269.9 74.2 263.6 75.9 257.2 76.7C255.6 76.8 254.2 76.9 252.8 76.9ZM234.1 71.1C236.5 71.7 238.9 72.4 241.3 73.2L243.1 73.8C247.5 75.3 252.2 75.8 256.8 75.2C263.1 74.4 269.2 72.7 275.1 70.3C276.5 69.7 281.2 67.7 285.3 65.6C285 65.4 284.7 65.1 284.3 64.9C277.7 59.8 269.3 57.5 261 58.6C252.7 59.8 245.1 64.3 238.3 68.3C237.6 68.7 236.8 69.3 235.8 70C235.4 70.2 234.8 70.7 234.1 71.1Z" fill="#27272E"/>
</svg>
