<svg transform="scale(2)" id="_0327_Conversation" xmlns="http://www.w3.org/2000/svg" viewBox="0 0 500 500" class="show_show__wrapper__graphic__5Waiy "><title>React</title><defs><style>.cls-1{fill:#d6b2a4;}.cls-2{fill:#ffffff;}.cls-3{fill:#341f97;}.cls-4{fill:#ffde91;}.cls-5{fill:#af93a2;}.cls-6{fill:#5f27cd;}.cls-7{fill:#896ba7;}.cls-8{fill:#2d2d31;}</style></defs><g id="shadow"><path class="cls-8" d="M188.55,401.13c36.37,16.35,78.75,13.3,117.21,2.77,19.07-5.22,38.03-12.4,53.38-24.85,6.98-5.66,13.08-12.48,17.75-20.17,5.01-8.25,6.04-17.01,9.65-25.66,2.76-6.6,9.32-9.93,13.79-15.24,6.05-7.2,9.19-16.61,10.46-25.82,1.94-14.02,.56-28.49,4.02-42.22,4.33-17.18,15.93-31.95,19.48-49.3,4.53-22.15-4.93-45.14-18.92-62.9-13.98-17.76-32.25-31.56-48.94-46.8-14.66-13.38-28.63-28.26-46.68-36.51-21.07-9.63-45.53-9.09-68.18-4.23-22.65,4.86-44.22,13.75-66.4,20.44-30.54,9.22-64.43,15.49-85.9,39.07-15.19,16.68-21.5,39.39-27.33,61.19-6.27,23.47-12.6,47.75-8.99,71.78,4.34,28.82,22.34,53.46,39.79,76.81,23.91,31.99,49.39,65.27,85.81,81.65Zm205.49-182.59c-1.12-9.16,1.76-18.35,2.9-27.37,1.59-12.6-.21-25.62-5.16-37.32-.81-1.91-1.71-3.85-1.75-5.92-.03-2.07,1.09-4.33,3.09-4.87,1.97-.53,3.95,.72,5.55,1.98,11.65,9.22,19.68,22.91,22.04,37.58,1.67,10.38,.38,20.85-3.14,30.71-1.81,5.09-3.92,17.01-9.13,19.78-8.32,4.43-13.64-8.47-14.39-14.58Z"></path><path class="cls-8" d="M438.18,248.85c.78-3.07,.93-7.01-1.76-8.68-2.53-1.57-5.84,.01-8.04,2.01-5.03,4.56-7.75,11.22-8.78,17.93-1.02,6.71-.5,13.55,.08,20.31,.14,1.68,.48,3.66,2.01,4.39,1.39,.66,3.12-.16,3.98-1.43,.87-1.27,1.09-2.86,1.28-4.38,.73-5.72,1-9.77,4.04-14.6,3.04-4.84,6.02-9.88,7.2-15.56Z"></path><path class="cls-8" d="M78.95,301.74c-4.28-4.5-11.68,.3-9.16,5.98,1.22,2.74,2.76,5.4,4.29,7.86,13.27,21.33,27.2,42.41,44.33,60.78,17.13,18.37,37.7,34.04,61.33,42.55,2.78,1,6.26,1.77,8.28-.55,1.27-1.47,1.34-3.59,.54-5.37-1.27-2.82-3.98-4.35-6.56-5.83-19.49-11.19-36.71-25.37-52.15-41.64-6.55-6.91-11.68-12.02-16.9-20.24-5.75-9.06-12.01-17.79-18.75-26.14-4.85-6.01-9.93-11.81-15.25-17.41Z"></path><path class="cls-8" d="M208.16,414.1c-2.22-.66-4.56-1.33-6.82-.82s-4.33,2.64-3.91,4.92c.32,1.7,1.84,2.88,3.29,3.83,7.86,5.15,16.93,8.46,26.26,9.58,6.68,.8,14.87-5.61,6.88-10.32-2.72-1.6-7.31-1.74-10.36-2.61-5.13-1.47-10.23-3.05-15.35-4.57Z"></path></g><g id="character"><path class="cls-7" d="M75.05,267.15c1.27,1.96,3.1,4.08,5.42,3.82,2.04-.23,3.36-2.19,4.37-3.98,3.53-6.3,6.63-12.85,9.26-19.58,.37-.94,.73-1.96,.46-2.93-.4-1.44-1.97-2.16-3.39-2.61-6.11-1.92-18.72-4.05-22.66,2.89-3.81,6.72,3.04,16.96,6.55,22.38Z"></path><path class="cls-7" d="M283.44,111.81c.65,30.27,1.17,72.84-.23,102.86-.55,11.68-1.65,24.28-10.07,33.44-8.99,9.78-213.76,1.74-224.2-.51-7.18-1.55-4.01-26.86-4.12-43.75-.16-25.3-.23-52.97,3.49-78.8,.63-4.38,1.45-9.1,4.37-12.51,3.71-4.32,9.52-5.11,14.75-5.59,58.6-5.32,122.79-11.92,193.09-18.33,16.3-1.49,22.61,8.89,22.91,23.18Z"></path><path class="cls-3" d="M194.46,197.3c4.91,7.84,11.89,14.73,20.63,17.77,11.8,4.11,25.34,.53,35.29-7.03,9.95-7.56,16.72-18.61,21.61-30.11,7.27,3.66,14.54,7.32,21.82,10.97-9.18,20.04-25.11,37.82-45.93,45.04-20.82,7.23-46.53,1.91-59.82-15.67-7.2-9.53-10.29-21.55-11.95-33.38-.73-5.19,.72-17.69,7.79-9.86,5.01,5.55,6.49,15.73,10.57,22.26Z"></path><path class="cls-6" d="M181,252.27H102.14c10.85-17.91,22.97-35.05,36.07-51.39,7.19-8.98,14.79-17.8,23.83-25,6.57-5.23,21.05-17.33,24.63-3.01,.79,3.16,.52,6.47,.24,9.72-1.97,23.23-3.94,46.45-5.91,69.68Z"></path><path class="cls-3" d="M61.92,226.62c-2.6,2.6-5.19,5.33-6.63,8.69-1.44,3.36-1.55,7.51,.65,10.55,2.5,3.46,7.13,4.61,11.36,5.41,13.21,2.5,26.58,4.1,39.98,4.79,2.39-8.3,4.78-16.6,7.17-24.91-8.02,3.42-16.83,5.14-25.67,5.01-2.98-.05-6.52-.66-7.8-3.31-1.58-3.27,1.51-6.65,4.31-8.9,20.69-16.57,41.96-33.47,67.45-41.87,3.68-1.21,27.08-5.09,20.18-13.67-3.43-4.27-22.85,4.1-27.42,5.69-20.35,7.05-39.48,17.17-56.74,29.67-9.55,6.92-18.53,14.57-26.84,22.86Z"></path><path class="cls-4" d="M145.91,236.67c-.7,1.7-1.31,3.51-1.12,5.34,.19,1.83,1.4,3.67,3.21,4.03,1.78,.36,3.51-.76,4.86-1.98,4.09-3.7,6.84-8.85,7.63-14.31,.5-3.48-.71-8.87-5.33-7.24-4.2,1.48-7.7,10.42-9.24,14.17Z"></path><path class="cls-4" d="M113.3,217.96c6.84-5.6,16.92-8.23,24.67-3.97,5.41,2.97,8.76,8.66,10.99,14.42,2.49,6.44,3.92,13.28,4.2,20.18,.16,4.02-.3,8.56-3.41,11.11-3.05,2.5-7.71,2.09-11.11,.09-3.4-2-5.83-5.28-8.16-8.46,.99,4.69-3.08,9.37-7.77,10.35-4.69,.98-9.56-.91-13.51-3.63-5.33-3.68-13.33-11.28-11.31-18.49,2.14-7.6,9.44-16.71,15.41-21.59Z"></path><path class="cls-2" d="M153.15,249.09c-.27,0-.49-.21-.5-.48-.28-6.87-1.68-13.61-4.16-20.02-2.73-7.06-6.25-11.69-10.76-14.16-.24-.13-.33-.44-.2-.68,.13-.24,.44-.33,.68-.2,4.72,2.59,8.39,7.39,11.21,14.68,2.52,6.51,3.95,13.36,4.23,20.34,.01,.28-.2,.51-.48,.52,0,0-.01,0-.02,0Z"></path><path class="cls-2" d="M131,252.77c-.23,0-.44-.16-.49-.39-1.94-8.69-6.8-16.59-13.67-22.25-.21-.18-.24-.49-.07-.7,.18-.21,.49-.24,.7-.07,7.04,5.8,12.02,13.9,14.01,22.8,.06,.27-.11,.54-.38,.6-.04,0-.07,.01-.11,.01Z"></path><g><path class="cls-4" d="M187.63,166.41c.37,4.43,1.2,9.4,4.83,11.97,5.27,3.73,12.51,.02,17.55-4.01,20.39-16.3,35.48-38.55,46.07-62.41,1.92-4.34,3.65-9.6,1.06-13.58-2.1-3.22-6.27-4.29-10.07-4.91-13.64-2.25-35.29-4.57-48.1,2.04-5.77,2.98-6.37,10.09-7.63,15.85-1.85,8.46-3.12,17.04-3.79,25.68-.75,9.77-.73,19.61,.08,29.38Z"></path><path class="cls-6" d="M308.49,77.18c3.27-2.62,6.67-5.97,6.58-10.16-.07-3.23-2.33-6.09-5.12-7.72-2.79-1.63-6.04-2.21-9.24-2.65-30.8-4.19-63.09,3.81-88.37,21.9-6.65-3.69-13.52-7.44-21.08-8.32-7.55-.88-16.05,1.81-19.81,8.42-1.92,3.36-2.43,7.37-2.18,11.23,.88,13.84,10.59,25.3,19.82,35.65,2.18-7.02,6.08-23.16,14.61-23.04,8.9,.13,17.73,2.58,26.8,2.44,18.13-.3,36.19-4.44,52.63-12.07,9.03-4.19,17.58-9.44,25.35-15.68Z"></path><path class="cls-6" d="M216.89,132.86c-.13,.88,0,2.01,.85,2.34,.43,.17,.93,.05,1.31-.2s.66-.61,.92-.97c.93-1.28,5.41-6.93,2.13-7.64-2.92-.62-4.88,4.38-5.2,6.47Z"></path><path class="cls-6" d="M230.71,133.54c.17,.45,.48,.93,.97,.98,.44,.05,.83-.28,1.12-.61,1.12-1.26,4.9-8.68,1.6-8.86-3.7-.2-4.59,6.14-3.69,8.48Z"></path><path class="cls-4" d="M195.37,120.27c-.68-2.41-1.69-4.94-3.81-6.26-1.69-1.05-3.85-1.14-5.75-.59-3.46,.99-6.27,4.24-6.34,7.83-.04,1.99,.74,3.98,2.11,5.42,2.12,2.22,5.32,2.95,8.32,3.57"></path><path class="cls-2" d="M186.75,124.92s-.08,0-.13-.02c-1.64-.43-2.92-1.9-3.11-3.59-.19-1.69,.74-3.4,2.24-4.18,1.51-.78,3.44-.53,4.71,.6,.21,.18,.22,.5,.04,.71-.18,.21-.5,.22-.71,.04-.94-.85-2.45-1.04-3.58-.46-1.13,.58-1.84,1.92-1.71,3.18,.14,1.26,1.13,2.41,2.36,2.73,.27,.07,.43,.34,.36,.61-.06,.23-.26,.37-.48,.37Z"></path><path class="cls-6" d="M204.47,161.62c.5,.7,1.02,1.45,1.1,2.31,.09,.88-.3,1.76-.88,2.44-1.55,1.8-4.39,2.19-6.52,1.15-2.13-1.04-3.53-3.29-3.87-5.64-.33-2.35,.31-4.77,1.44-6.85,.35-.64,.78-1.29,1.46-1.56,2.32-.93,6.17,6.62,7.27,8.16Z"></path></g><path class="cls-4" d="M276.78,160.62c-.33-3.17-.34-6.95,2.23-8.83,2.75-2.02,6.94-.35,8.77,2.53,1.83,2.88,1.95,6.49,2.02,9.9,.65-11.42,6.5-22.44,15.59-29.38,2.4-1.83,5.1-3.42,8.08-3.9s6.31,.34,8.26,2.65c3.12,3.7,1.69,9.23,2.23,14.04,.73,6.49,5.3,12.91,2.99,19.01-1.45,3.83-5.23,6.2-8.81,8.2-5.34,2.98-10.79,5.78-16.32,8.39-4.08,1.92-11.16,6.78-15.85,5.93-8.8-1.6-8.5-21.97-9.18-28.54Z"></path><path class="cls-2" d="M309.44,174.26s-.07,0-.11-.01c-.27-.06-.44-.33-.38-.6,2.08-9.52-2.35-20.26-10.55-25.54-.23-.15-.3-.46-.15-.69,.15-.23,.46-.3,.69-.15,8.53,5.49,13.15,16.68,10.98,26.59-.05,.23-.26,.39-.49,.39Z"></path><path class="cls-2" d="M307.7,160.75c-.16,0-.32-.08-.42-.23-.15-.23-.09-.54,.14-.69l14.73-9.69c.23-.15,.54-.09,.69,.14,.15,.23,.09,.54-.14,.69l-14.73,9.69c-.08,.06-.18,.08-.27,.08Z"></path></g><g id="character-2"><path class="cls-7" d="M212.43,294.03c-.65,30.27-1.17,72.84,.23,102.86,.55,11.68,1.65,24.28,10.07,33.44,8.99,9.78,213.76,1.74,224.2-.51,7.18-1.55,4.01-26.86,4.12-43.75,.16-25.3,.23-52.97-3.49-78.8-.63-4.38-1.45-9.1-4.37-12.51-3.71-4.32-9.52-5.11-14.75-5.59-58.6-5.32-122.79-11.92-193.09-18.33-16.3-1.49-22.61,8.89-22.91,23.18Z"></path><path class="cls-7" d="M420.82,449.36c-1.27,1.96-3.1,4.08-5.42,3.82-2.04-.23-3.36-2.19-4.37-3.98-3.53-6.3-6.63-12.85-9.26-19.58-.37-.94-.73-1.96-.46-2.93,.4-1.44,1.97-2.16,3.39-2.61,6.11-1.92,18.72-4.05,22.66,2.89,3.81,6.72-3.04,16.96-6.55,22.38Z"></path><g id="character-3"><path class="cls-5" d="M318.94,336.54c-13.34,.53-27.5-2.52-37.14-10.73-4.45-3.79-7.84-8.57-12.92-11.68-5.09-3.11-12.97-3.86-16.76,.35,.22,13.26,9.97,25.74,23.18,32.39,13.21,6.65,29.34,7.88,44.13,5.17,5.9-1.08,46.5-13.22,43.75-20.46-2.11-5.54-38.92,4.74-44.23,4.96Z"></path><path class="cls-4" d="M270.64,288.26c.46-1.72,.8-3.78-.42-5.08-1.78-1.89-5.06-.31-6.48,1.86-1.42,2.17-2.15,4.92-4.27,6.42-5.57-8.67-13.77-15.63-23.24-19.71-4.32-1.86-9.94-2.9-13.23,.46-3.29,3.36-2.13,8.97-.17,13.24,5.3,11.53,15.13,20.92,26.8,25.86,14.74,6.25,17.85-11.27,21.01-23.06Z"></path><path class="cls-2" d="M245.73,294.97c-.19,0-.37-.11-.46-.29-4.31-9.49-11.77-17.39-21-22.24-.24-.13-.34-.43-.21-.68,.13-.25,.43-.34,.67-.21,9.43,4.95,17.04,13.02,21.45,22.71,.11,.25,0,.55-.25,.66-.07,.03-.14,.04-.21,.04Z"></path><path class="cls-2" d="M240.46,299.38c-.12,0-.24-.04-.34-.13-.2-.19-.22-.5-.03-.71,3.87-4.25,8.72-7.67,14.03-9.88,.25-.11,.55,.01,.65,.27,.11,.25-.01,.55-.27,.65-5.17,2.16-9.9,5.49-13.67,9.63-.1,.11-.23,.16-.37,.16Z"></path><path class="cls-6" d="M355.92,275.89c-7.02,3.18-15.96,5.64-18.05,13.06-1.93,6.83,3.48,13.51,9.15,17.79,14.88,11.21,33.72,15.67,52.15,18.36,12.62,1.84,25.81,2.94,37.88-1.19,8.97-3.07,17.54-10.04,18.62-19.45,.9-7.84-3.49-15.21-5.29-22.9-2.36-10.15-.14-20.74-.35-31.16-.21-10.42-4.02-22.14-13.61-26.21-6.14-2.61-13.22-1.43-19.55,.65-13.48,4.42-26.19,12.97-34.92,24.23-8.05,10.39-13.31,21.07-26.04,26.83Z"></path><path class="cls-4" d="M357.74,312.23c.6,4.69,2.37,10.2,8.73,11.32,6.72,1.18,13.43-3.43,17.85-7.72,18.86-18.28,29.52-39.65,39.88-60.6,2.61-5.28,5.26-10.84,3.94-16.06-1.92-7.64-12.17-12.54-23.01-13.69-9.1-.97-23.62-.71-32.4,3.22-9.27,4.14-9.86,12.81-11.42,19.39-5.06,21.46-6.28,43.09-3.56,64.16Z"></path><path class="cls-6" d="M361.89,230.1c-11.81-10.38-13.73-36.47-11.85-40.84,1.88-4.37,10.43-10.5,15.1-11.4,6.46-1.24,12.63,2.99,17.54,7.37,15.42,13.76,14.65,19.89,21.68,39.33,6.71-1.97,13.56-3.96,20.54-3.66,6.98,.29,14.24,3.28,17.88,9.24,4.99,8.18,1.71,19-3.69,26.92-3.16,4.63-7.16,8.91-12.29,11.16-15.05,6.6-20.18-7.97-28.03-16.83-4.54-5.12-11.24-6.34-17.27-8.96-7.11-3.09-13.78-7.21-19.61-12.33Z"></path><path class="cls-6" d="M369.03,305.6c-.44,.17-.91,.38-1.11,.8-.19,.4-.07,.88,.1,1.29,1.13,2.76,4.44,4.43,7.33,3.69,2.17-.56,3.92-2.28,4.9-4.3,.66-1.36,1.11-2.95,1.19-4.46,.13-2.38-.94-1.53-2.71-.84-3.23,1.27-6.46,2.54-9.7,3.81Z"></path><path class="cls-6" d="M371.91,270.54c0,.48,.07,1.04,.48,1.29,.33,.2,.77,.11,1.07-.12,.31-.23,.5-.57,.68-.91,.62-1.21,3-8.21,.43-8.42-2.55-.2-2.66,6.71-2.65,8.16Z"></path><path class="cls-6" d="M379.24,272.36c-.09,.44-.15,.91-.03,1.34,.12,.43,.48,.83,.93,.87,.45,.04,.85-.27,1.17-.58,1.46-1.38,2.58-3.11,3.24-5.01,.19-.55,.35-1.13,.3-1.72-.19-2.08-2.08-1.72-3.05-.59-1.32,1.53-2.18,3.73-2.56,5.69Z"></path><path class="cls-1" d="M412.09,257.04c2.13-7.94,3.66-16.21,2.63-24.36-.54-4.32-2.19-12.46-5.96-15.28-3.22-2.41-6.4-1.56-7.25,2.51-1.01,4.83,2.83,13.72,4.16,18.42,1.8,6.35,3.94,12.6,6.41,18.71Z"></path><path class="cls-5" d="M376.05,345.25c-.71-3.09-1.2-12.84-3.51-14.47-2.85-2.02-11.61,.55-14.59,1.36-9.88,2.68-18.65,8.23-27.08,13.67-6.69,4.31-13.51,8.75-18.29,15.07-6.69,8.87-8.6,20.4-10.32,31.47-2.2,14.14-4.05,29.74,1.74,42.67,11.88-.09,24.25-.29,36.54-.56,8.83-10.64,17.41-21.5,24.21-33.52,9.46-16.75,15.81-36.16,11.31-55.68Z"></path><path class="cls-5" d="M417.54,404.87c1.61,4.95,3,10.32,.42,14.45-4.51,7.21-17.06,13.88-28.04,12.52-5.75-.71-12.45-8.7-17.74-11.14-5.29-2.44-9.8-7.04-9.45-11.46,6.08,2.78,9.8-7.62,16.39-6.68,6.58,.93,19.8,10.18,22.58,5.9,4.02-6.19-5.76-11.94-10.91-18.85-8.62-11.57-15.06-23.95-19-36.49-1.92-6.11-8.82-26.52,7.17-18.47,10.96,5.52,17.99,24.03,22.61,32.77,6.5,12.3,11.86,24.84,15.98,37.47Z"></path><path class="cls-4" d="M356.47,405.09c-7.5-.67-15.12,2.7-20.27,8.03-5.16,5.33-8,12.41-8.94,19.55-.35,2.69-.35,5.69,1.49,7.71,2.73,2.99,7.99,2.18,11.52-.04s6.26-5.53,9.98-7.44c7.03-3.61,23.81-1.71,24.37-12.45,.4-7.71-11.33-14.75-18.15-15.36Z"></path><path class="cls-2" d="M331.47,442.83s-.06,0-.09,0c-.27-.05-.45-.31-.4-.58,2.2-11.93,12.03-22.86,24.46-27.2,.26-.09,.55,.05,.64,.31,.09,.26-.05,.55-.31,.64-12.11,4.22-21.68,14.85-23.81,26.44-.04,.24-.25,.41-.49,.41Z"></path><path class="cls-2" d="M345.39,360.37c-.21,0-.41-.14-.47-.34-.49-1.48,.05-3.18,1.59-5.05l.44-.53c.9-1.07,1.84-2.18,2.02-3.47,.12-.9-.11-1.82-.36-2.8-.31-1.22-.63-2.49-.22-3.76,.71-2.21,3.22-3.11,5.04-3.59,1.86-.49,3.91-1.03,4.79-2.56,.34-.58,.49-1.27,.64-1.99,.09-.43,.19-.88,.33-1.32,.55-1.68,1.87-3.11,3.62-3.92,1.75-.81,3.7-.89,5.33-.22,.25,.1,.38,.4,.27,.65-.11,.26-.4,.38-.65,.27-1.38-.57-3.03-.49-4.53,.2-1.5,.69-2.63,1.9-3.09,3.32-.13,.39-.21,.79-.31,1.22-.17,.77-.34,1.57-.76,2.29-1.1,1.88-3.35,2.48-5.34,3-1.66,.44-3.84,1.2-4.41,2.95-.32,.99-.05,2.07,.24,3.2,.26,1.03,.53,2.09,.38,3.18-.22,1.58-1.25,2.8-2.25,3.98l-.43,.52c-.23,.27-.43,.54-.6,.8,1.11-1.1,2.6-1.82,4.17-1.88,.54-.02,1.1,.02,1.65,.06,1.38,.1,2.67,.19,3.42-.67,.67-.77,.53-1.93,.38-3.16-.16-1.33-.33-2.71,.49-3.83,.79-1.09,2.35-1.56,4.15-1.24,.52,.09,1.04,.23,1.53,.36,.8,.21,1.55,.42,2.32,.43,1.31,.03,2.67-.68,3.6-1.87,.93-1.19,1.27-2.67,.92-3.95-.07-.27,.08-.54,.35-.61,.27-.07,.54,.08,.61,.35,.43,1.58,.02,3.39-1.1,4.83-1.12,1.44-2.77,2.28-4.41,2.26-.89-.02-1.74-.24-2.56-.46-.5-.13-.97-.26-1.44-.34-1.1-.19-2.51-.07-3.17,.85-.58,.8-.45,1.93-.3,3.13,.17,1.39,.34,2.83-.62,3.94-1.07,1.23-2.76,1.11-4.24,1.01-.54-.04-1.06-.07-1.54-.06-2.41,.09-4.61,2.04-5,4.42-.04,.23-.22,.4-.45,.42-.01,0-.03,0-.04,0Z"></path></g></g><g id="chat"><path class="cls-5" d="M145.87,140.64c1.33,2.99,2.44,7.05-.14,9.08-2.54,2-6.19,.05-8.79-1.88-5.64-4.2-11.29-8.41-16.93-12.61-14.02,2.8-29,.49-41.52-6.41-7.56-4.16-14.56-10.45-16.76-18.8-2.76-10.48,2.78-21.63,10.65-29.1,17.4-16.52,46.93-18.2,66.1-3.77,7.57,5.7,13.73,14.13,14.17,23.6,.48,10.33-6.29,17-14.94,20.82,1.82,6.5,5.41,12.86,8.17,19.06Z"></path><path class="cls-2" d="M134.95,88.03h-56.23c-.55,0-1-.45-1-1s.45-1,1-1h56.23c.55,0,1,.45,1,1s-.45,1-1,1Z"></path><path class="cls-2" d="M134.44,97.85h-55.21c-.55,0-1-.45-1-1s.45-1,1-1h55.21c.55,0,1,.45,1,1s-.45,1-1,1Z"></path><path class="cls-2" d="M133.6,108.14h-53.52c-.55,0-1-.45-1-1s.45-1,1-1h53.52c.55,0,1,.45,1,1s-.45,1-1,1Z"></path><path class="cls-2" d="M90.58,119.84c-.54,0-.99-.43-1-.98-.01-.55,.43-1.01,.98-1.02l32.52-.68c.59,0,1.01,.43,1.02,.98,.01,.55-.43,1.01-.98,1.02l-32.52,.68h-.02Z"></path></g><g id="chat-2"><path class="cls-3" d="M269.42,373.32c1.33-2.99,2.44-7.05-.14-9.08-2.54-2-6.19-.05-8.79,1.88-5.64,4.2-11.29,8.41-16.93,12.61-14.02-2.8-29-.49-41.52,6.41-7.56,4.16-14.56,10.45-16.76,18.8-2.76,10.48,2.78,21.63,10.65,29.1,17.4,16.52,46.93,18.2,66.1,3.77,7.57-5.7,13.73-14.13,14.17-23.6,.48-10.33-6.29-17-14.94-20.82,1.82-6.5,5.41-12.86,8.17-19.06Z"></path><path class="cls-2" d="M258.5,427.93h-56.23c-.55,0-1-.45-1-1s.45-1,1-1h56.23c.55,0,1,.45,1,1s-.45,1-1,1Z"></path><path class="cls-2" d="M257.99,418.1h-55.21c-.55,0-1-.45-1-1s.45-1,1-1h55.21c.55,0,1,.45,1,1s-.45,1-1,1Z"></path><path class="cls-2" d="M257.15,407.81h-53.52c-.55,0-1-.45-1-1s.45-1,1-1h53.52c.55,0,1,.45,1,1s-.45,1-1,1Z"></path><path class="cls-2" d="M246.65,396.8h-.02l-32.52-.68c-.55-.01-.99-.47-.98-1.02,.01-.55,.47-.96,1.02-.98l32.52,.68c.55,.01,.99,.47,.98,1.02-.01,.54-.46,.98-1,.98Z"></path></g></svg>