<svg width="116" height="145" viewBox="0 0 116 145" fill="none" xmlns="http://www.w3.org/2000/svg">
<path d="M113.243 3.11633C111.1 1.28883 107.761 1.00768 104.668 0.796811C94.5467 0.12907 50.8975 -0.0817966 40.776 0.480512C37.6833 0.656233 34.3797 0.902243 32.2359 2.6946C29.811 4.73297 29.7055 8.03653 29.7407 11.0589C30.0921 47.6793 30.4436 85.5648 30.795 124.751C30.8301 129.952 31.1113 135.751 35.1178 139.546C39.4405 143.658 46.4694 143.904 52.6899 143.904L72.8978 143.869L93.1058 144.15C99.3615 144.221 106.355 144.045 110.678 140.003C114.684 136.243 114.93 130.479 114.966 125.243C115.247 86.0217 115.528 48.101 115.774 11.5158C115.809 8.4934 115.668 5.1547 113.243 3.11633Z" fill="#27272E"/>
<path d="M109.588 5.26012C107.656 3.67863 104.598 3.39748 101.822 3.22175C92.6138 2.6243 52.9359 2.44858 43.7281 2.9406C40.9517 3.08118 37.8941 3.32719 35.9612 4.87354C33.7471 6.66589 33.6768 9.54772 33.712 12.2187C34.1337 44.2 34.5554 77.095 34.9772 110.939C35.0475 115.437 35.2935 120.393 38.9133 123.661C42.8143 127.176 49.1403 127.422 54.7282 127.386L72.8978 127.351L91.0674 127.597C96.6905 127.668 102.981 127.527 106.882 124.048C110.502 120.814 110.748 115.859 110.783 111.361C111.135 77.5167 111.486 44.5866 111.838 12.6053C111.873 9.96945 111.767 7.05248 109.588 5.26012Z" fill="white"/>
<path d="M92.6489 127.878C92.1217 127.878 91.5946 127.878 91.0323 127.878L72.8627 127.632L54.6931 127.668H54.412C48.5429 127.668 42.5683 127.316 38.7025 123.872C35.1178 120.639 34.7312 115.719 34.696 110.974L33.4308 12.2538C33.3957 9.4423 33.5363 6.52532 35.7855 4.69782C37.7184 3.11633 40.6354 2.87032 43.693 2.6946C52.9359 2.20258 92.5786 2.3783 101.822 2.97575C104.879 3.18662 107.796 3.46777 109.764 5.04926C112.013 6.87677 112.154 9.79374 112.154 12.6053L111.1 111.361C110.994 116.105 110.643 121.025 107.058 124.223C103.473 127.422 98.0963 127.878 92.6489 127.878ZM72.8627 127.105L91.0323 127.351C96.8662 127.422 102.911 127.211 106.671 123.837C110.116 120.744 110.432 116.175 110.502 111.361L111.557 12.6053C111.592 9.79374 111.451 7.12278 109.378 5.471C107.55 3.99494 104.739 3.67864 101.751 3.50292C92.5435 2.90546 52.9007 2.72974 43.693 3.22176C40.7057 3.39748 37.8941 3.64349 36.0666 5.11955C33.9931 6.77133 33.8526 9.4423 33.9228 12.2538L35.188 110.974C35.2583 115.789 35.5746 120.393 39.0539 123.485C42.8143 126.894 48.8592 127.176 54.6931 127.176L72.8627 127.105Z" fill="#27272E"/>
<path d="M91.0674 2.06199C90.1185 1.9917 88.6073 1.95656 87.2015 1.95656C82.5976 1.92141 62.706 1.81598 58.1021 1.81598C56.6963 1.81598 55.1851 1.81598 54.2362 1.88627C53.1468 1.95656 53.1468 2.13228 53.1819 2.23771C53.7091 3.85435 54.2362 5.43584 54.7634 6.98219C54.8337 7.19305 55.0094 7.40392 56.7315 7.57964C58.5941 7.75536 61.5462 7.75536 64.1821 7.79051L72.687 7.82565L81.1919 7.86079C83.8277 7.86079 86.7798 7.89594 88.6073 7.72022C90.3294 7.57964 90.5051 7.36877 90.5754 7.15791C91.1026 5.57642 91.6297 3.99492 92.1569 2.41343C92.1569 2.308 92.1569 2.13228 91.0674 2.06199Z" fill="#27272E"/>
<path d="M69.032 133.642C68.1534 136.243 69.5943 139.441 72.1598 140.495C74.7253 141.55 77.9938 140.32 79.1887 137.824C82.5625 130.795 71.5272 126.367 69.032 133.642Z" fill="white"/>
<path d="M74.1279 141.128C73.425 141.128 72.7221 140.987 72.0895 140.741C69.4186 139.652 67.8722 136.278 68.786 133.572C69.524 131.428 71.0703 130.057 73.1087 129.706C75.3931 129.39 77.6423 130.303 79.0481 132.131C80.2781 133.783 80.4187 135.856 79.4347 137.93C78.5209 139.898 76.3068 141.128 74.1279 141.128ZM69.278 133.748C68.4345 136.208 69.8403 139.265 72.2652 140.249C74.6902 141.233 77.8532 140.074 78.9427 137.684C79.8564 135.786 79.7158 133.923 78.5912 132.412C77.2909 130.76 75.2174 129.917 73.1438 130.198C71.3515 130.514 69.9809 131.779 69.278 133.748Z" fill="#27272E"/>
<path d="M84.9172 78.3251C84.3197 79.2388 83.5465 80.0823 82.7031 80.75C81.7893 81.4178 80.5944 81.8044 79.505 81.5583C77.5369 81.1015 76.9043 78.9225 76.6231 77.095C74.7956 65.4271 73.2844 53.7241 72.5112 41.9156C72.441 40.6504 72.4058 39.2446 73.3899 38.2606C74.6199 36.9954 76.7637 37.1711 78.4506 37.5577C82.9491 38.5769 87.2718 40.3693 91.1377 42.8645C96.093 46.0626 95.847 50.1745 94.863 55.411C93.8438 60.6124 92.1217 65.6028 89.7319 70.3122C88.3613 73.1237 86.7447 75.7947 84.9172 78.3251Z" fill="white"/>
<path d="M80.1727 81.9098C79.9267 81.9098 79.7158 81.8746 79.4698 81.8395C77.2909 81.3475 76.6583 78.9225 76.4123 77.1653C74.2333 63.1779 72.9681 52.3183 72.3004 41.9507C72.2301 40.6153 72.2301 39.1392 73.2493 38.0849C74.2685 37.0306 76.096 36.7494 78.5561 37.3468C83.0897 38.366 87.4124 40.1935 91.3134 42.6888C96.4796 46.0275 96.093 50.4557 95.1441 55.4813C94.125 60.6826 92.4029 65.7434 89.9779 70.4528C88.5722 73.2291 86.9555 75.9001 85.128 78.4656C84.4954 79.4145 83.7223 80.258 82.8437 80.9609C82.0705 81.5583 81.1216 81.8746 80.1727 81.9098ZM76.2014 37.5929C75.0416 37.5929 74.163 37.9092 73.5656 38.4715C72.687 39.3501 72.687 40.6504 72.7573 41.9156C73.425 52.248 74.6902 63.0725 76.8691 77.0599C77.1503 78.8171 77.7126 80.8906 79.5401 81.3123C80.5944 81.488 81.6839 81.2069 82.5274 80.5391C83.3708 79.8714 84.1089 79.0631 84.7063 78.1493C86.4987 75.619 88.1153 72.9831 89.4859 70.2067C91.8757 65.5326 93.5978 60.5069 94.5818 55.3759C95.5659 50.3854 95.9173 46.2735 90.9971 43.1105C87.1313 40.6153 82.8788 38.8581 78.3803 37.8389C77.6775 37.6983 76.9394 37.5929 76.2014 37.5929Z" fill="#27272E"/>
<path d="M67.4505 37.5929C63.3386 32.2861 60.2811 25.925 60.9488 19.2124C61.1597 17.174 61.9328 14.8545 63.9361 13.8353C65.9393 12.8161 68.3291 13.4487 70.262 14.2571C76.3068 16.7874 81.3676 20.9345 85.2686 25.7844C89.1696 30.6343 91.9812 36.1871 94.1601 41.9507C96.6202 42.1616 99.1506 42.3725 101.4 43.2159C103.649 44.0594 105.723 45.4652 106.601 47.5738C107.48 49.6825 107.058 52.0371 106.25 54.2161C103.86 60.6123 97.8854 65.9894 90.8566 68.0981C91.2432 67.9575 90.8214 59.6986 90.8214 58.8551C90.8214 57.8359 91.2432 55.7976 90.6808 54.919C90.1185 54.0404 88.1856 53.6889 87.2718 53.232C82.3165 50.9125 77.7477 47.8901 73.671 44.2351C71.4218 42.2319 69.3483 39.9827 67.4505 37.5929Z" fill="#27272E"/>
<path d="M84.4603 58.9606C84.39 59.2066 84.2143 59.4877 83.9331 59.4877C83.7926 59.4877 83.652 59.3823 83.5817 59.2417C83.5114 59.1012 83.5114 58.9606 83.5114 58.82C83.4763 58.3983 83.2303 56.6411 83.9683 56.7816C84.8118 56.9925 84.636 58.4334 84.4603 58.9606Z" fill="#27272E"/>
<path d="M78.4506 59.066C78.4155 59.2417 78.3101 59.3823 78.1695 59.4526C78.0289 59.5229 77.8532 59.4877 77.7126 59.3823C77.6072 59.2769 77.5017 59.1714 77.4314 59.0309C77.2206 58.6091 76.342 56.8871 77.4314 56.9925C78.3803 57.0979 78.6263 58.3983 78.4506 59.066Z" fill="#27272E"/>
<path d="M82.914 74.2483C83.3005 74.4592 83.7574 74.5295 84.2143 74.4592C84.6712 74.3538 85.0578 74.1077 85.3741 73.7563C85.6904 73.3346 85.8309 72.8426 85.7606 72.3154C85.7255 71.9288 85.5146 71.1908 85.0578 71.6476C84.7063 71.9639 84.5657 72.6668 84.2494 73.0886C83.8628 73.5103 83.406 73.932 82.914 74.2483Z" fill="#27272E"/>
<path d="M90.1888 63.1779C91.4892 62.0533 93.7032 61.983 94.9333 63.0022C96.1633 64.0213 96.2688 66.0246 95.109 67.2898C93.9492 68.555 91.7703 68.9064 90.3997 68.0278" fill="white"/>
<path d="M92.192 68.801C91.4892 68.801 90.8214 68.6253 90.224 68.2738C90.1185 68.2035 90.0834 68.0278 90.1537 67.9224C90.224 67.8169 90.3997 67.7818 90.5051 67.8521C91.7703 68.6604 93.8438 68.3441 94.8982 67.1843C95.4253 66.5869 95.6713 65.8489 95.6362 65.0405C95.601 64.3377 95.2847 63.7051 94.7576 63.2482C93.6329 62.2993 91.5594 62.3696 90.3645 63.4239C90.2591 63.5293 90.0834 63.4942 89.978 63.3888C89.8725 63.2833 89.9077 63.1076 90.0131 63.0022C91.4189 61.7721 93.7384 61.7018 95.109 62.8264C95.7416 63.3888 96.1282 64.1619 96.1633 65.0054C96.2336 65.9191 95.9173 66.8329 95.2847 67.5358C94.4764 68.3441 93.3518 68.801 92.192 68.801Z" fill="#27272E"/>
<path d="M92.8949 66.5517H92.7544C92.6489 66.5517 92.5786 66.4463 92.6138 66.3409C92.6138 66.2354 92.7192 66.1651 92.7895 66.1651C93.387 66.2003 93.9141 65.884 94.125 65.3217C94.2656 64.7945 94.0547 64.2673 93.5978 63.9862C93.0706 63.705 92.4381 63.7402 91.9109 64.0565C91.8406 64.0916 91.7352 64.0916 91.6649 63.9862C91.6297 63.9159 91.6297 63.8105 91.7352 63.7402C92.3678 63.3536 93.1409 63.3536 93.7735 63.6699C94.4061 64.0213 94.6873 64.7242 94.4764 65.392C94.1953 66.13 93.5978 66.5517 92.8949 66.5517Z" fill="#27272E"/>
<path d="M76.2717 88.1303C73.7764 88.6575 72.5464 90.4498 71.6326 92.1016C66.0096 102.012 61.9328 112.731 59.5782 123.872C59.2619 125.348 59.051 126.965 60.281 128.265C61.8977 129.987 65.2364 130.444 68.1885 130.62C72.8276 130.936 77.4666 131.006 82.1056 130.866C85.1632 130.795 88.5722 130.444 90.224 128.792C91.3486 127.668 91.3486 126.227 91.3134 124.821C91.208 120.92 90.3997 85.143 76.2717 88.1303Z" fill="#5F27CD"/>
<path d="M97.0771 120.147C98.3774 123.134 99.6778 126.332 102.349 128.511C105.02 130.69 109.553 131.323 111.24 128.863C112.787 126.648 111.275 123.45 109.694 120.85C103.79 111.08 97.0771 101.837 89.6265 93.1911C88.1153 91.4339 83.16 86.4083 80.981 89.3252C79.4347 91.3987 84.5657 96.8461 85.7255 98.6736C90.0482 105.527 93.8438 112.696 97.0771 120.147Z" fill="#5F27CD"/>
<path d="M113.243 3.11633C111.1 1.28883 107.761 1.00768 104.668 0.796811C94.5467 0.12907 50.8975 -0.0817966 40.776 0.480512C37.6833 0.656233 34.3797 0.902243 32.2359 2.6946C29.811 4.73297 29.7055 8.03653 29.7407 11.0589C30.0921 47.6793 30.4436 85.5648 30.795 124.751C30.8301 129.952 31.1113 135.751 35.1178 139.546C39.4405 143.658 46.4694 143.904 52.6899 143.904L72.8978 143.869L93.1058 144.15C99.3615 144.221 106.355 144.045 110.678 140.003C114.684 136.243 114.93 130.479 114.966 125.243C115.247 86.0217 115.528 48.101 115.774 11.5158C115.809 8.4934 115.668 5.1547 113.243 3.11633ZM111.838 12.6053C111.486 44.5866 111.135 77.5167 110.783 111.361C110.748 115.859 110.467 120.814 106.882 124.048C102.981 127.527 96.6554 127.668 91.0674 127.597L72.8978 127.351L54.7282 127.386C49.1052 127.386 42.8143 127.176 38.9133 123.661C35.2935 120.393 35.0475 115.437 34.9772 110.939C34.5203 77.095 34.0986 44.2 33.6768 12.2187C33.6417 9.58288 33.7471 6.6659 35.9261 4.87354C37.859 3.29205 40.9166 3.08119 43.693 2.94061C52.8656 2.44859 92.5786 2.62431 101.786 3.22176C104.598 3.39749 107.62 3.6435 109.553 5.26013C111.767 7.05249 111.873 9.96946 111.838 12.6053Z" fill="#27272E"/>
<path d="M91.0674 2.06199C90.1185 1.9917 88.6073 1.95656 87.2015 1.95656C82.5976 1.92141 62.706 1.81598 58.1021 1.81598C56.6963 1.81598 55.1851 1.81598 54.2362 1.88627C53.1468 1.95656 53.1468 2.13228 53.1819 2.23771C53.7091 3.85435 54.2362 5.43584 54.7634 6.98219C54.8337 7.19305 55.0094 7.40392 56.7315 7.57964C58.5941 7.75536 61.5462 7.75536 64.1821 7.79051L72.687 7.82565L81.1919 7.86079C83.8277 7.86079 86.7798 7.89594 88.6073 7.72022C90.3294 7.57964 90.5051 7.36877 90.5754 7.15791C91.1026 5.57642 91.6297 3.99492 92.1569 2.41343C92.1569 2.308 92.1569 2.13228 91.0674 2.06199Z" fill="#27272E"/>
<path d="M69.032 133.642C68.1534 136.243 69.5943 139.441 72.1598 140.495C74.7253 141.55 77.9938 140.32 79.1887 137.824C82.5625 130.795 71.5272 126.367 69.032 133.642Z" fill="white"/>
<path d="M74.1279 141.128C73.425 141.128 72.7221 140.987 72.0895 140.741C69.4186 139.652 67.8722 136.278 68.786 133.572C69.524 131.428 71.0703 130.057 73.1087 129.706C75.3931 129.39 77.6423 130.303 79.0481 132.131C80.2781 133.783 80.4187 135.856 79.4347 137.93C78.5209 139.898 76.3068 141.128 74.1279 141.128ZM69.278 133.748C68.4345 136.208 69.8403 139.265 72.2652 140.249C74.6902 141.233 77.8532 140.074 78.9427 137.684C79.8564 135.786 79.7158 133.923 78.5912 132.412C77.2909 130.76 75.2174 129.917 73.1438 130.198C71.3515 130.514 69.9809 131.779 69.278 133.748Z" fill="#27272E"/>
<path d="M56.7315 99.3062C53.6739 101.345 49.2809 103.559 44.7121 102.539C41.76 101.872 40.1082 100.079 38.9133 98.4276C35.0826 93.1559 32.9037 87.5329 32.4468 81.9449L20.2869 84.405C21.7278 91.469 25.7694 98.4627 32.0251 104.789C34.8015 107.565 38.9133 110.552 44.431 110.623C48.3671 110.693 51.6707 109.217 54.5174 107.776C58.9456 105.492 63.2332 102.926 67.345 100.115C70.5783 97.8653 76.834 94.386 77.7477 91.3987C77.9938 90.5553 77.572 88.6926 75.9202 88.2357C73.5656 87.5329 72.4058 89.0089 71.0352 89.9227C66.2556 93.0154 61.476 96.1432 56.7315 99.3062Z" fill="#5F27CD"/>
<path d="M11.0791 72.0694C9.39215 69.5741 7.8458 66.7626 8.02152 63.7402C8.19724 60.9638 9.88417 58.4686 12.028 56.6762C14.1718 54.8838 16.7373 53.7241 19.2677 52.5643C21.0249 51.756 23.2038 50.9828 24.7502 52.1777C25.7694 52.9509 26.0857 54.3215 26.3317 55.5516C27.3157 60.4366 28.2998 65.2865 29.2838 70.1716L31.779 62.4047C32.0602 61.5964 32.3765 60.6826 33.1145 60.2961C34.1337 59.7338 35.4692 60.4366 36.0315 61.491C36.5938 62.5453 36.4884 63.7753 36.3829 64.9351C35.7855 70.4176 34.1337 75.7244 31.533 80.5743C30.5841 82.3667 29.3892 84.159 27.5969 85.0728C21.5521 88.0952 13.75 76.0055 11.0791 72.0694Z" fill="white"/>
<path d="M25.4531 85.8108C20.0057 85.8108 13.9609 76.849 11.1845 72.702L10.8331 72.21C9.18128 69.785 7.5295 66.868 7.74037 63.7051C7.91609 61.1395 9.39215 58.4686 11.8171 56.4302C13.996 54.6027 16.5967 53.4078 19.092 52.2832C20.9195 51.4397 23.2038 50.6665 24.8556 51.9317C25.91 52.74 26.2614 54.0755 26.5425 55.4813L29.2838 69.1173L31.4627 62.3344C31.7439 61.4207 32.0953 60.5069 32.9388 60.0852C33.4308 59.8392 33.9931 59.804 34.5203 59.9798C35.2232 60.2258 35.8558 60.7178 36.2072 61.3855C36.7695 62.5102 36.6992 63.8105 36.5938 64.9703C35.9964 70.4879 34.3094 75.7947 31.7088 80.6797C30.7599 82.4018 29.565 84.3347 27.6672 85.2836C26.9643 85.5999 26.2263 85.8108 25.4531 85.8108ZM11.2899 71.9288L11.6414 72.4208C14.4529 76.5679 21.8684 87.6383 27.386 84.7916C29.1784 83.8779 30.3381 82.0504 31.2167 80.3986C33.8174 75.5838 35.434 70.3122 36.0666 64.8648C36.1721 63.8105 36.2775 62.5804 35.7503 61.5964C35.4692 61.0341 34.9772 60.6475 34.3797 60.4366C33.9931 60.2961 33.5714 60.3312 33.22 60.5069C32.5522 60.8584 32.2711 61.6667 32.0251 62.475L29.5298 70.2419C29.4947 70.3473 29.3892 70.4176 29.2487 70.4176C29.1432 70.4176 29.0378 70.3122 29.0026 70.2067L26.0505 55.5867C25.8045 54.2864 25.4882 53.0563 24.5745 52.3535C23.1687 51.264 21.0249 52.002 19.3731 52.7752C16.8779 53.8998 14.3123 55.0947 12.2037 56.8519C9.88417 58.7849 8.44325 61.3152 8.30268 63.7402C8.12696 66.7626 9.70845 69.5742 11.2899 71.9288Z" fill="#27272E"/>
<path d="M19.0217 68.0629C18.9514 68.0629 18.9162 68.0278 18.8811 67.9927C16.421 64.1971 15.1207 59.804 15.1207 55.3056C15.1207 55.2001 15.191 55.1299 15.2964 55.1299C15.4018 55.1299 15.4721 55.2001 15.4721 55.3056C15.4721 59.7338 16.7724 64.0916 19.1974 67.8169C19.2325 67.8872 19.2325 67.9927 19.1623 68.0629C19.092 68.0629 19.0568 68.0629 19.0217 68.0629Z" fill="#27272E"/>
<path d="M14.6286 73.2643C14.5935 73.2643 14.5935 73.2643 14.5584 73.2291C14.4881 73.194 14.4178 73.0886 14.4881 72.9831C16.6319 68.3792 20.4275 64.7242 25.1016 62.721C25.2071 62.6859 25.2774 62.721 25.3125 62.8264C25.3476 62.9319 25.3125 63.0022 25.2071 63.0724C20.6032 65.0405 16.8779 68.6252 14.7692 73.1589C14.7692 73.2291 14.6989 73.2643 14.6286 73.2643Z" fill="#27272E"/>
<path d="M74.2333 86.9003C73.671 88.4818 73.7413 90.2038 73.8467 91.8556C74.2333 91.223 74.7605 90.6607 75.3228 90.2038C75.9202 89.7469 76.7286 89.6064 77.4314 89.8524C78.1343 90.1335 78.5561 91.0121 78.2046 91.6799C78.9778 90.8364 79.8212 89.9227 80.9459 89.6767C82.0705 89.4306 83.4762 90.0984 83.5114 91.2582C84.1088 90.0984 84.6009 88.8332 84.6009 87.5329C84.6009 86.2325 83.9331 84.8268 82.7382 84.3347C81.5433 83.8427 79.8564 84.5456 79.6807 85.8459C79.8564 84.651 77.7126 83.8427 76.9043 83.9833C75.6742 84.1942 74.6199 85.8108 74.2333 86.9003Z" fill="#27272E"/>
<path d="M66.1501 19.9504C65.4824 19.4233 64.4632 19.3179 63.5495 19.2827C60.4568 19.0718 47.1722 19.0367 44.0795 19.1773C43.1306 19.2476 42.1115 19.3178 41.4789 19.845C40.7408 20.4425 40.7057 21.4265 40.7408 22.3051C40.8814 33.0241 41.022 44.0594 41.1626 55.3759C41.1977 56.8871 41.268 58.5389 42.4981 59.6283C43.7984 60.8232 45.907 60.8935 47.8048 60.8935H53.8848L59.9647 60.9638C61.8625 60.999 63.9712 60.9287 65.2715 59.7689C66.5016 58.6794 66.5719 57.0276 66.5719 55.5164C66.6773 44.1648 66.8179 33.1295 66.9233 22.4105C66.9233 21.5671 66.8882 20.583 66.1501 19.9504Z" fill="white"/>
<path d="M60.4568 61.245H59.8945L53.8145 61.1747H47.7345C45.7313 61.1747 43.6227 61.0692 42.252 59.8392C40.9868 58.7146 40.8814 57.0276 40.8463 55.3759L40.4245 22.3051C40.4245 21.3211 40.4597 20.3019 41.268 19.6341C41.9709 19.0718 42.9549 18.9664 44.0092 18.9313C47.1019 18.7555 60.4216 18.8258 63.5143 19.0367C64.5686 19.107 65.5878 19.2124 66.2907 19.7747C67.099 20.4425 67.1693 21.4616 67.1693 22.4457L66.8179 55.5516C66.8179 57.1682 66.6773 58.8551 65.4121 59.9798C64.1469 61.1044 62.3194 61.245 60.4568 61.245ZM53.8496 60.6124L59.9296 60.6826C61.8625 60.7178 63.8306 60.6475 65.0607 59.558C66.1501 58.574 66.2556 57.0979 66.2907 55.5164L66.6421 22.4105C66.6421 21.4968 66.607 20.6533 65.9744 20.1613C65.4121 19.7044 64.4984 19.599 63.5143 19.5287C60.4216 19.3178 47.1722 19.2827 44.0795 19.4233C43.0955 19.4936 42.1817 19.5639 41.6194 20.0207C40.9868 20.5127 40.9517 21.3562 40.9517 22.27L41.4086 55.3407C41.4437 56.9222 41.5491 58.4334 42.6386 59.4175C43.8687 60.5069 45.8368 60.6124 47.7697 60.6124H53.8496Z" fill="#27272E"/>
<path d="M54.2011 32.4969C55.0797 32.6024 56.0989 32.4969 56.8018 33.0241C57.4695 33.5161 57.6804 34.4299 57.6804 35.2733C57.7155 36.7845 57.2235 38.4363 55.888 39.1392C54.8688 39.7015 53.6388 39.5609 52.5142 39.4555C51.3895 39.3501 50.0892 39.3852 49.2106 40.1232C48.332 40.8613 48.1563 42.0562 47.6643 43.0402C46.6802 44.8677 44.7473 45.922 42.7089 45.7463C41.514 45.6409 40.284 44.938 40.0028 43.7782C39.7216 42.6185 40.53 41.4236 40.6705 40.1935C40.8814 38.0497 38.843 36.2574 38.597 34.0784C38.4916 33.0592 38.7376 32.0401 39.2999 31.1615C39.8271 30.318 40.53 29.5448 41.3734 28.9474C42.8143 27.8579 44.5716 27.0847 46.3639 27.155C47.6643 27.1901 48.8943 27.7876 49.7729 28.7716C50.1595 29.1934 50.3352 29.7557 50.6867 30.2126C51.0732 30.7397 51.495 31.2317 52.0221 31.6183C52.6899 32.1103 53.4279 32.3915 54.2011 32.4969Z" fill="#27272E"/>
<path d="M51.6004 28.9474C53.3225 32.0401 53.9199 35.6599 53.6739 39.1743C53.6739 39.7015 53.5685 40.1935 53.3928 40.6855C53.2171 41.1776 52.8656 41.5993 52.4087 41.8102C51.741 42.0913 50.9327 41.8804 50.2649 41.5641C48.2617 40.6152 46.6802 38.9986 45.0636 37.4874C44.3255 36.89 43.693 36.1871 43.1306 35.4139C42.5683 34.6407 42.3575 33.6567 42.5683 32.7078C42.8143 32.0049 43.2361 31.4075 43.7984 30.9154C44.6067 30.1423 45.4502 29.4745 46.3991 28.8771C47.2425 28.385 48.1563 27.9985 49.1403 27.7173C50.3001 27.4362 51.0732 27.9985 51.6004 28.9474Z" fill="white"/>
<path d="M51.741 42.1967C51.1787 42.1616 50.6515 42.021 50.1946 41.775C48.4374 40.9316 47.0317 39.6312 45.6259 38.3309L44.923 37.6631L44.7473 37.4874C44.0795 36.9251 43.4469 36.2574 42.9549 35.5193C42.3575 34.6759 42.1466 33.6215 42.3926 32.6024C42.6386 31.8643 43.0955 31.2317 43.693 30.7046C44.5013 29.9314 45.3799 29.2285 46.3288 28.6311C47.2074 28.1039 48.1563 27.7173 49.1052 27.4362C50.2298 27.1199 51.1787 27.5767 51.8464 28.7716C53.4631 31.6535 54.2011 35.2382 53.9551 39.1392C53.9551 39.6664 53.8496 40.2287 53.6739 40.7207C53.4982 41.283 53.0765 41.7399 52.5493 41.9859C52.2682 42.1616 52.0221 42.1967 51.741 42.1967ZM49.7729 27.9282C49.5972 27.9282 49.4215 27.9633 49.2457 27.9985C48.332 28.2445 47.4182 28.6311 46.5748 29.1231C45.661 29.6854 44.7824 30.3531 44.0092 31.1263C43.4821 31.5832 43.0955 32.1455 42.8495 32.7781C42.6386 33.6567 42.8495 34.5353 43.3767 35.2733C43.8687 35.9762 44.4661 36.5737 45.0987 37.136L45.2744 37.3117L45.9773 37.9794C47.348 39.2446 48.7186 40.545 50.4055 41.3533C51.2138 41.7399 51.8464 41.8102 52.3033 41.5993C52.6899 41.3884 53.0062 41.037 53.1468 40.6153C53.2873 40.1584 53.3928 39.6664 53.3928 39.1743C53.6388 35.3788 52.9008 31.8995 51.3544 29.0879C50.9327 28.3148 50.4055 27.9282 49.7729 27.9282Z" fill="#27272E"/>
<path d="M51.2138 34.1487C51.2138 34.0784 51.249 34.0081 51.3193 34.0081C51.3895 34.0081 51.4247 34.0433 51.4247 34.1136C51.5301 34.2893 52.1276 35.2382 51.741 35.3788C51.3544 35.5194 51.1787 34.3596 51.2138 34.1487Z" fill="#27272E"/>
<path d="M48.332 36.1168C48.2968 36.0817 48.2969 36.0114 48.2969 35.9411C48.4023 35.5193 49.3512 36.3277 49.3512 36.644C49.2809 37.136 48.4374 36.2925 48.332 36.1168Z" fill="#27272E"/>
<path d="M43.2361 28.3499C42.8495 29.0879 42.5683 29.8963 42.3926 30.7046C42.2169 31.5129 42.2872 32.3915 42.5683 33.1647C42.9901 34.1487 43.8335 34.957 44.0795 36.0114C44.1498 36.2925 44.1147 36.5737 43.9741 36.8197C43.7984 36.9603 43.5875 37.0657 43.3767 37.0657C42.498 37.2063 41.5843 37.0657 40.776 36.7143C39.9677 36.3628 39.2648 35.7302 38.843 34.9219C38.4213 33.973 38.2807 32.9538 38.4565 31.9346C38.5267 31.3723 38.7025 30.81 38.9836 30.2829C39.2999 29.7557 39.7217 29.334 40.2137 28.9474C40.9166 28.3499 41.6897 28.0336 42.4278 27.5767C42.6386 27.4362 42.9198 27.2253 43.1658 27.3659C43.5524 27.5767 43.3767 28.0688 43.2361 28.3499Z" fill="#27272E"/>
<path d="M45.6962 27.5767C45.6259 27.7524 45.5204 27.9282 45.415 28.0687C44.923 28.7365 44.4661 29.4745 44.1498 30.2477C43.7984 31.0209 43.6578 31.8643 43.7281 32.7078C43.7984 33.2701 43.939 33.8324 44.1498 34.3947C44.2201 34.5353 44.2553 34.6759 44.2553 34.8516C44.2553 35.0273 44.185 35.1679 44.0795 35.2382C43.8687 35.3788 43.5875 35.203 43.3767 34.9922C41.4789 33.1295 41.268 30.1071 42.8846 27.9985C43.3064 27.4362 43.9038 27.0144 44.5364 26.7684C45.0987 26.5575 45.9773 26.8738 45.6962 27.5767Z" fill="#5F27CD"/>
<path d="M47.0317 35.0976C48.1211 34.9922 49.1403 34.6759 50.0892 34.1136C51.9167 32.9538 52.9007 30.7749 53.1468 28.5959C53.2522 27.5065 53.1819 26.3467 52.6196 25.3627C52.3384 24.8355 51.8464 24.4489 51.2841 24.2732C50.6515 24.1677 49.9838 24.2732 49.4215 24.5895C47.8048 25.3275 46.4342 26.4521 45.0636 27.5767C44.431 28.0336 43.8687 28.5959 43.4118 29.2637C42.8846 30.1071 42.6738 31.0912 42.7792 32.0752C42.8846 32.9187 43.1306 33.7621 43.5875 34.5002C43.9741 35.1679 44.7121 35.0625 45.415 35.0976C45.907 35.1328 46.4693 35.1328 47.0317 35.0976Z" fill="#27272E"/>
<path d="M51.495 39.4555C51.6004 39.4203 51.741 39.4555 51.8464 39.5258C51.9519 39.6312 51.987 39.8069 51.9167 39.9475C51.741 40.3341 51.3544 40.5801 50.9327 40.5098C50.5109 40.4747 50.1595 40.2287 49.9135 39.9124C49.6675 39.5961 49.8783 39.4555 50.1595 39.4203L51.495 39.4555Z" fill="#27272E"/>
<path d="M52.0573 43.7783C52.4087 43.7431 52.7953 43.8134 53.0765 44.0243C53.3928 44.2 53.7091 44.3757 54.0254 44.5514C54.8688 44.8677 55.888 44.692 56.626 45.184C57.2586 45.7112 57.4695 46.5547 57.1883 47.3278C56.872 48.0659 56.2395 48.6282 55.5014 48.8742C54.904 49.1202 54.2714 49.1553 53.6739 48.9796C52.8656 48.6633 52.233 48.0307 51.9167 47.2224C51.5653 46.4844 50.6867 44.0594 52.0573 43.7783Z" fill="#5F27CD"/>
<path d="M58.4184 52.4589C59.4376 53.1618 60.7028 53.6889 61.9328 53.5132C63.444 53.3024 64.6038 52.0372 65.1661 50.6314C65.7284 49.2256 65.869 47.7144 66.0799 46.2032C66.1853 45.3246 66.3961 44.446 66.6773 43.6025C66.7124 40.1233 66.7476 36.7143 66.7827 33.3053C66.2907 33.5161 65.869 33.8676 65.5878 34.2893C65.0607 35.1328 64.9201 36.1871 64.8147 37.1711C64.6389 36.7143 64.3578 36.2925 63.9712 35.9762C63.5495 35.6951 62.9169 35.7302 62.6709 36.152C62.4248 36.5737 62.706 37.0657 62.9169 37.5226C63.7252 39.2095 64.0766 41.0722 63.9712 42.9348C63.8658 44.7974 63.5846 46.6249 63.1629 48.4173C62.952 49.4365 62.6006 50.5962 61.6165 50.9125C60.9136 51.1586 60.1405 50.8071 59.4727 50.4205C58.2427 49.6474 57.1532 48.6633 56.2395 47.5387C55.0094 46.0626 54.3065 47.8198 55.1148 49.0499C55.9934 50.4205 57.1181 51.5451 58.4184 52.4589Z" fill="white"/>
<path d="M61.4057 53.7944C60.4216 53.7944 59.3673 53.4078 58.2427 52.6698C56.9072 51.756 55.7474 50.5962 54.904 49.2256C54.3768 48.4173 54.412 47.2927 54.9743 46.9061C55.1851 46.7655 55.7123 46.5195 56.4855 47.3981C57.3641 48.5227 58.4535 49.4716 59.6484 50.2448C60.4568 50.7368 61.0542 50.8774 61.5462 50.7017C62.3897 50.4205 62.706 49.3662 62.9169 48.3822C63.3386 46.5898 63.6198 44.7623 63.7252 42.9348C63.8306 41.1073 63.4792 39.3149 62.706 37.6632C62.4951 37.2063 62.1788 36.6088 62.46 36.0465C62.6006 35.8005 62.8114 35.6248 63.0926 35.5896C63.444 35.5193 63.8306 35.5896 64.1469 35.7654C64.3578 35.9059 64.5335 36.0817 64.6741 36.2925C64.7444 35.5193 64.9904 34.7813 65.377 34.1487C65.6933 33.6567 66.1501 33.2701 66.6773 33.0593C66.8179 33.0241 66.9585 33.0944 67.0287 33.1998C67.0287 33.235 67.0287 33.2701 67.0287 33.3053L66.9233 43.6025C66.9233 43.6377 66.9233 43.6728 66.9233 43.6728C66.6422 44.4811 66.4313 45.3597 66.3259 46.2032L66.2204 46.9764C66.115 48.2416 65.8338 49.5068 65.377 50.7017C64.8498 52.002 63.6549 53.4781 61.9328 53.7592C61.7922 53.7944 61.5814 53.7944 61.4057 53.7944ZM58.559 52.2129C59.789 53.0212 60.8785 53.3726 61.8625 53.2321C63.3386 53.0212 64.3929 51.6857 64.8849 50.4908C65.3067 49.331 65.5878 48.1361 65.6933 46.9061C65.7284 46.6601 65.7636 46.3789 65.7987 46.1329C65.9041 45.2543 66.115 44.3757 66.3962 43.5322L66.5016 33.727C66.2204 33.9027 65.9744 34.1487 65.7987 34.4299C65.2715 35.2382 65.1661 36.2925 65.0958 37.2063C65.0958 37.3469 64.9552 37.4523 64.8147 37.4523C64.7092 37.4523 64.6389 37.382 64.6038 37.3117C64.4632 36.89 64.1821 36.5034 63.8658 36.2222C63.69 36.1168 63.444 36.0465 63.2332 36.1168C63.0926 36.1519 62.9872 36.2222 62.9169 36.3277C62.7411 36.6088 62.952 37.0657 63.1629 37.4171C63.9712 39.1392 64.3578 41.037 64.2172 42.9699C64.1118 44.8326 63.8306 46.6952 63.4089 48.5227C63.1629 49.6473 62.7763 50.8422 61.6868 51.2288C60.8082 51.51 59.9296 51.0883 59.3322 50.7368C58.067 49.9636 56.9775 48.9445 56.0286 47.7847C55.7123 47.3981 55.396 47.2224 55.2554 47.363C54.9743 47.5738 54.904 48.3119 55.3257 48.9796C56.1692 50.2448 57.2586 51.3694 58.559 52.2129Z" fill="#27272E"/>
<path d="M42.4629 59.6635C42.7089 59.8743 42.9901 60.0852 43.3064 60.2258C43.9038 58.6443 44.4661 57.0628 45.0636 55.4813C45.5205 54.2512 46.4342 52.7049 46.3991 51.3694C46.3639 49.5419 45.4853 51.0531 45.0636 51.8263L41.514 58.1171C41.6897 58.7146 42.006 59.2417 42.4629 59.6635Z" fill="white"/>
<path d="M43.2712 60.4718C43.2361 60.4718 43.2009 60.4718 43.1658 60.4366C42.8495 60.2609 42.5332 60.0852 42.2872 59.8392C41.7952 59.3823 41.4437 58.8551 41.2328 58.2225C41.1977 58.1523 41.2329 58.082 41.268 58.0117L44.8176 51.7209C45.415 50.6665 45.8016 50.1745 46.2233 50.2799C46.6451 50.3854 46.6451 50.9125 46.6802 51.4046C46.7154 52.4589 46.1882 53.5835 45.7665 54.5675C45.5907 54.9541 45.4502 55.3056 45.3096 55.6219L43.5524 60.3663C43.5172 60.4366 43.4821 60.5069 43.4118 60.5069C43.3766 60.4718 43.3064 60.4718 43.2712 60.4718ZM42.6386 59.4526C42.8143 59.5932 42.9549 59.7337 43.1658 59.8392L44.8176 55.411C44.9581 55.0596 45.0987 54.7081 45.2744 54.3215C45.6962 53.3375 46.153 52.3183 46.153 51.3694C46.153 51.1585 46.1179 50.9828 46.0828 50.8071C45.7665 51.1585 45.5205 51.5451 45.3096 51.9669L41.7952 58.1523C41.9357 58.6443 42.2169 59.1012 42.6386 59.4526Z" fill="#27272E"/>
<path d="M46.7856 60.8935C47.1019 60.8935 47.4534 60.8935 47.7697 60.8935H51.8464C52.0924 60.5772 52.3033 60.2609 52.5142 59.9095C53.9199 57.4494 55.0446 54.8487 55.9232 52.1426C56.2043 51.264 56.4855 50.3854 56.3449 49.4716C56.2043 48.3821 55.5014 47.4332 54.7283 46.5898C53.7091 45.43 52.5845 44.3406 51.3544 43.3214C50.2649 42.4076 48.9646 43.1105 48.2969 44.2351C47.8048 45.0786 47.6994 46.1329 47.594 47.1169L46.2585 59.2769C46.1882 59.6635 46.2233 60.0852 46.3288 60.4366C46.5045 60.6124 46.6099 60.7529 46.7856 60.8935Z" fill="#5F27CD"/>
<path d="M48.6131 43.3565C49.2106 43.3917 49.7378 43.7431 49.9838 44.2703C50.2649 44.9732 49.8783 45.7815 49.7729 46.5195C49.5972 48.0307 50.5461 49.4716 50.6164 50.9828C50.6867 51.6506 50.4407 52.2832 49.9486 52.74C49.5269 52.9861 48.9997 53.1266 48.5077 53.0915C47.3128 53.1266 46.0828 53.0915 44.8879 52.8806C44.185 52.7752 43.4118 52.5643 42.9901 51.9669C42.5683 51.3694 42.7441 50.4557 43.0252 49.7528C43.693 48.2064 44.6067 46.8007 45.7313 45.5355C46.5396 44.692 47.2425 43.2511 48.6131 43.3565Z" fill="#5F27CD"/>
<path d="M45.2393 112.028C45.2042 115.578 47.9103 118.811 51.1435 119.549C54.3768 120.287 57.9615 118.636 59.8945 115.754C60.7731 114.489 61.2299 113.012 61.2299 111.466C61.1245 109.568 60.035 107.881 58.7698 106.546C57.8912 105.562 56.8018 104.824 55.5717 104.367C53.4631 103.664 50.7921 104.859 48.9294 105.878C46.6802 107.143 45.2744 109.498 45.2393 112.028Z" fill="#27272E"/>
<path d="M50.6515 108.865C49.7729 108.795 48.6834 109.006 48.2969 109.849C47.9806 110.517 48.1914 111.29 48.2266 111.993C48.2617 112.556 48.1914 113.153 48.2266 113.715C48.2266 114.278 48.5077 114.84 48.9646 115.191C49.3512 115.402 49.7729 115.473 50.1946 115.437L52.1276 115.473C52.5845 115.508 53.0062 115.437 53.3928 115.227C54.1659 114.699 54.1308 113.504 53.9902 112.556L56.5558 114.805C56.7666 115.051 57.0829 115.191 57.3992 115.227C57.9615 115.191 58.1373 114.453 58.2075 113.856L58.4887 111.466C58.5941 111.044 58.5238 110.588 58.3833 110.166C57.9615 109.428 56.9072 109.533 56.2395 110.025C55.5717 110.517 55.0797 111.255 54.3417 111.607C54.5174 111.08 54.5525 110.482 54.4471 109.92C54.3065 109.322 53.7794 108.901 53.1819 108.936C52.3736 108.936 51.5301 108.936 50.6515 108.865Z" fill="white"/>
<path d="M64.9552 112.028C64.9201 115.578 67.591 118.811 70.8595 119.549C74.1279 120.287 77.6775 118.636 79.6104 115.754C80.489 114.489 80.9459 113.012 80.9459 111.466C80.8404 109.568 79.751 107.881 78.4858 106.546C77.6072 105.562 76.5177 104.824 75.2876 104.367C73.179 103.664 70.508 104.859 68.6454 105.878C66.3961 107.143 64.9904 109.498 64.9552 112.028Z" fill="#27272E"/>
<path d="M72.3355 107.495C72.1598 108.057 72.1247 108.655 72.2301 109.252C72.2652 109.533 72.3355 109.849 72.4761 110.095C72.6167 110.377 72.8627 110.552 73.179 110.587C73.4601 110.587 73.7062 110.482 73.8819 110.271C74.0576 110.06 74.163 109.814 74.2333 109.568C74.4793 108.76 74.5496 107.46 74.0224 106.757C73.3547 105.878 72.5815 106.757 72.3355 107.495Z" fill="white"/>
<path d="M70.754 109.639C70.9298 109.955 71.0352 110.342 71.2109 110.693C71.7381 111.712 73.0033 112.134 74.0576 111.607C74.2685 111.501 74.4442 111.361 74.6199 111.185C75.0065 110.798 75.2173 110.306 75.6039 109.955C75.9905 109.603 76.6934 109.463 77.0097 109.885C77.1854 110.166 77.2206 110.517 77.1151 110.834C76.6934 112.415 75.2525 113.54 73.6359 113.575L73.4601 115.578C73.8116 115.578 74.1279 115.648 74.4442 115.824C74.7605 116 74.9011 116.351 74.7605 116.703C74.5496 116.984 74.1982 117.124 73.8819 117.089C73.1438 117.124 72.3707 117.089 71.6326 117.019C71.2812 116.984 70.8243 116.808 70.8243 116.457C70.8595 116.246 71.0352 116.07 71.246 116.035C71.4569 116 71.6678 116.035 71.8787 116.105L71.9841 113.715C71.9841 113.715 70.7189 112.802 70.6135 112.661C70.2269 112.204 69.9106 111.642 69.7348 111.08C69.5943 110.658 69.278 110.131 69.3834 109.674C69.5943 108.83 70.4377 109.076 70.754 109.639Z" fill="white"/>
<path d="M84.2846 112.028C84.2846 115.578 86.9555 118.811 90.1888 119.549C93.4221 120.287 97.0068 118.636 98.9397 115.754C99.8183 114.489 100.275 113.012 100.275 111.466C100.17 109.568 99.0803 107.881 97.8151 106.546C96.9365 105.562 95.847 104.824 94.617 104.367C92.5083 103.664 89.8374 104.859 87.9747 105.878C85.7255 107.143 84.3197 109.498 84.2846 112.028Z" fill="#27272E"/>
<path d="M93.1058 108.655C91.6297 108.76 90.2239 109.357 89.1345 110.341C88.4667 110.869 87.9747 111.536 87.6584 112.31C87.3421 113.083 87.3773 113.961 87.799 114.699C88.2207 115.437 89.0993 115.824 89.9428 115.613C90.7511 115.367 91.2431 114.524 90.9971 113.715V113.68C90.9268 113.54 90.8565 113.399 90.7863 113.258C90.6457 112.766 90.7863 112.239 91.1729 111.888C91.5594 111.536 92.0163 111.326 92.5435 111.255C93.3166 111.115 94.2655 111.22 94.5818 111.923C94.6521 112.134 94.7224 112.31 94.8279 112.485C95.0387 112.731 95.355 112.837 95.6713 112.766C95.9525 112.696 96.2336 112.556 96.4796 112.38C96.8662 112.169 97.1825 111.853 97.3934 111.466C97.78 110.588 96.7608 109.779 96.093 109.393C95.1793 108.83 94.1601 108.584 93.1058 108.655Z" fill="white"/>
<path d="M15.9641 38.2606C14.9449 39.1392 14.4529 40.5098 14.3475 41.8804C14.2772 42.9699 14.4881 44.1648 15.3315 44.9028C15.8587 45.3246 16.4913 45.5706 17.159 45.5706C19.7597 45.7463 22.0089 43.7782 22.1847 41.2127C22.1847 41.1424 22.1847 41.037 22.1847 40.9667C22.2198 40.2287 22.0089 39.4906 21.6224 38.858C20.5329 37.2063 17.4402 36.9954 15.9641 38.2606Z" fill="#5F27CD"/>
<path d="M9.9896 41.6345C11.4657 36.644 16.7022 33.8324 21.6926 35.3085C22.0441 35.4139 22.3955 35.5194 22.7118 35.6951L23.4147 31.6886C20.5329 30.0369 16.7724 30.4937 13.8906 32.2158C11.8171 33.4458 10.1653 35.2382 8.79469 37.2063C8.33782 37.874 7.42407 38.8932 7.63493 39.807C7.77551 40.3693 10.0247 41.5642 9.9896 41.6345Z" fill="#5F27CD"/>
<path d="M4.36652 37.6632C7.70522 30.1071 15.8938 25.9601 23.9419 27.6822L25.1368 24.238C20.7437 22.024 15.2612 23.008 11.0439 25.5384C8.26753 27.1902 5.87772 29.4394 3.69878 31.8292C2.96075 32.6375 0.922381 34.2542 0.781804 35.3788C0.641227 36.6088 4.36652 37.6632 4.36652 37.6632Z" fill="#5F27CD"/>
</svg>
