<svg width="466" height="404" viewBox="0 0 466 404" fill="none" xmlns="http://www.w3.org/2000/svg">
<path d="M77.2978 201.5C72.3272 224 74.5964 247 79.2429 269.3C80.9718 277.1 82.9168 285 87.4552 292C92.1017 299.6 99.7737 305.2 108.742 307.8C124.519 312 142.997 304.9 152.614 293.9C162.231 282.9 164.5 269 163.527 255.9C162.555 242.8 158.665 230 157.368 216.9C156.18 205 157.152 192.9 155.963 181C154.667 167.2 142.24 126.8 115.01 142.7C93.1822 155.5 81.7282 181.6 77.2978 201.5Z" fill="white"/>
<path d="M118.252 309.7C115.01 309.7 111.66 309.3 108.526 308.5C99.3415 305.9 91.5614 300.1 86.8069 292.4C82.1604 285.1 80.1073 276.7 78.5945 269.5C72.8675 242.6 72.3272 220.9 76.6495 201.4C78.8106 191.5 88.1035 157.8 114.686 142.2C121.817 138 128.625 137.3 134.784 140.1C149.048 146.7 155.963 171 156.936 181.1C157.476 187 157.584 193 157.584 198.9C157.584 204.8 157.692 211.1 158.233 217.1C158.773 223.1 160.07 229.4 161.15 235.3C162.555 242.2 163.636 249.1 164.284 256C165.473 271.8 161.69 284.8 153.262 294.5C144.509 304 131.759 309.6 118.252 309.7ZM78.0542 201.6C73.7319 221 74.3803 242.4 79.9993 269.2C81.6201 276.7 83.4571 284.6 87.9955 291.7C92.5339 299.1 99.9898 304.7 108.851 307.1C123.222 310.9 141.7 305.1 151.857 293.5C160.07 284.1 163.744 271.5 162.555 256C161.907 249.1 160.826 242.2 159.421 235.4C158.233 229.4 157.044 223.2 156.396 217C155.747 210.8 155.747 204.7 155.747 198.7C155.639 192.9 155.639 186.9 155.099 181.1C154.127 171.3 147.535 147.6 133.92 141.4C128.301 138.8 122.142 139.5 115.442 143.4C89.4002 158.7 80.3234 191.8 78.0542 201.6Z" fill="#27272E"/>
<path d="M74.5964 359.8C71.5708 366 68.4371 372.4 67.7888 379.3C67.1405 386.2 69.4097 393.6 75.3528 397.7C83.4571 403.3 95.5595 400.6 102.907 394.2C110.255 387.9 114.037 378.8 117.603 370.1C124.087 354 130.57 338 137.162 321.9C139.107 317 141.16 311.8 140.511 306.6C138.566 292.3 108.418 276.6 99.7737 293.4C94.8031 303 93.9386 315.8 89.9405 326C85.2941 337.4 79.9993 348.6 74.5964 359.8Z" fill="#5F27CD"/>
<path d="M361.596 204.8C366.567 227.3 364.298 250.3 359.651 272.6C358.03 280.4 355.977 288.3 351.547 295.3C346.901 302.9 339.228 308.5 330.26 311.1C314.483 315.3 296.006 308.2 286.389 297.2C276.771 286.2 274.502 272.3 275.475 259.2C276.447 246.1 280.337 233.3 281.634 220.2C282.823 208.3 281.85 196.2 283.039 184.3C284.335 170.5 296.762 130.1 323.992 146C345.712 158.9 357.166 184.9 361.596 204.8Z" fill="white"/>
<path d="M320.751 313.1C307.244 312.9 294.493 307.3 285.74 297.8C277.204 288.1 273.53 275.1 274.718 259.3C275.367 252.3 276.447 245.4 277.852 238.6C279.041 232.6 280.229 226.5 280.77 220.4C281.31 214.3 281.418 208.2 281.418 202.2C281.418 196.2 281.526 190.3 282.066 184.4C283.039 174.3 289.954 150 304.218 143.4C310.377 140.6 317.077 141.3 324.209 145.5C350.791 161.1 360.084 194.7 362.245 204.7C366.567 224.3 365.919 245.9 360.3 272.8C358.787 280.1 356.734 288.4 352.087 295.7C347.333 303.5 339.553 309.2 330.368 311.8C327.342 312.6 323.992 313.1 320.751 313.1ZM311.89 143.2C309.513 143.2 307.135 143.7 304.974 144.7C291.251 151 284.66 174.6 283.795 184.4C283.255 190.3 283.147 196.2 283.147 202C283.147 208 283.039 214.2 282.498 220.3C281.958 226.4 280.661 232.7 279.473 238.7C278.068 245.5 276.988 252.4 276.339 259.3C275.151 274.7 278.825 287.3 287.037 296.8C297.194 308.4 315.672 314.3 330.044 310.4C338.904 307.9 346.36 302.4 350.899 295C355.437 287.9 357.382 280 358.895 272.5C364.514 245.7 365.27 224.3 360.948 205C358.787 195.2 349.602 162.1 323.56 146.8C320.102 144.6 315.996 143.3 311.89 143.2Z" fill="#27272E"/>
<path d="M364.406 363.1C367.431 369.3 370.565 375.7 371.213 382.6C371.862 389.5 369.593 396.9 363.649 401C355.545 406.5 343.443 403.9 336.095 397.5C328.747 391.1 324.965 382.1 321.399 373.4L301.841 325.2C299.788 320.3 297.843 315.1 298.491 309.9C300.328 295.6 330.476 279.8 339.12 296.7C344.091 306.3 344.956 319.1 348.954 329.3C353.6 340.8 358.895 352 364.406 363.1Z" fill="#5F27CD"/>
<path d="M305.839 7C301.3 3 294.061 2.30001 287.469 1.90001C265.533 0.300007 170.659 -0.599995 148.724 0.500005C142.024 0.800005 134.784 1.4 130.246 5.3C125.059 9.7 124.843 16.9 125.059 23.4C126.788 100.7 128.517 177.2 130.138 253C130.354 262.8 131.002 273.7 139.215 280.8C147.967 288.5 162.015 289 174.441 289L214.855 289.1L255.268 289.8C267.695 290 281.742 289.8 290.711 282.3C299.031 275.3 299.896 264.5 300.436 254.7C303.894 178.9 307.244 102.5 310.809 25.2C311.026 18.7 311.026 11.5 305.839 7Z" fill="#27272E"/>
<path d="M297.735 11.6C293.628 8.09999 287.037 7.49999 280.986 7.09999C261.103 5.69999 174.982 4.9 154.991 5.9C148.94 6.2 142.348 6.69999 138.134 10.1C133.38 13.9 133.271 20.2 133.38 25.9C135 93.4 136.513 160.3 138.134 226.6C138.35 235.2 138.998 244.7 146.346 250.9C154.343 257.6 166.985 258.1 178.331 258.1L214.963 258.2L251.594 258.8C262.94 259 275.691 258.8 283.795 252.2C291.359 246.1 292.116 236.7 292.548 228.1C295.681 161.9 298.707 95 301.949 27.5C302.381 21.8 302.381 15.5 297.735 11.6Z" fill="white"/>
<path d="M257.861 4.4C255.808 4.2 252.459 4.1 249.433 4.1C239.492 3.9 196.269 3.5 186.328 3.5C183.302 3.5 179.952 3.5 177.899 3.6C175.522 3.8 175.522 4.1 175.63 4.4C176.819 7.9 177.899 11.3 179.088 14.8C179.196 15.3 179.628 15.7 183.302 16.1C187.3 16.5 193.675 16.6 199.402 16.6L217.772 16.8L236.142 17C241.761 17.1 248.244 17.1 252.242 16.8C256.024 16.5 256.349 16 256.565 15.6C257.753 12.2 258.942 8.8 260.239 5.3C260.239 5 260.239 4.6 257.861 4.4Z" fill="#27272E"/>
<path d="M207.291 270C205.238 275.3 208.263 281.2 214.098 283C219.393 284.7 225.228 282.5 227.605 277.9C234.629 264.7 212.477 256.3 207.291 270Z" fill="white"/>
<path d="M217.448 284.2C216.043 284.2 214.53 284 213.234 283.4C207.615 281 204.805 275.1 206.642 269.7C208.263 265.5 211.397 262.9 215.719 262.3C220.366 261.7 225.012 263.5 227.822 267C230.415 270.2 230.631 274.2 228.47 278.1C226.201 281.9 221.986 284.2 217.448 284.2ZM208.047 270.2C206.21 275.1 209.02 280.5 214.314 282.3C219.177 283.9 224.58 281.8 226.849 277.5C228.686 274 228.47 270.6 226.309 267.9C223.823 264.9 219.825 263.3 215.719 263.8C212.261 264.3 209.452 266.6 208.047 270.2Z" fill="#27272E"/>
<path d="M149.696 41.5C149.912 48.5 156.18 54 163.744 53.8C170.983 53.6 176.819 48.2 177.035 41.5C177.575 24.5 149.156 24.6 149.696 41.5Z" fill="#27272E"/>
<path d="M205.021 48.7L272.125 47.9C275.583 47.9 279.257 47.8 282.174 46.1C285.092 44.4 286.929 40.6 284.984 37.9C283.039 35.2 279.257 35.2 276.015 35.3C253.539 36.1 230.523 38.3 208.047 37.7C204.049 37.6 193.243 34.5 190.326 38.1C183.95 45.7 200.699 48.7 205.021 48.7Z" fill="#27272E"/>
<path d="M286.821 63.9H150.128C149.48 63.9 149.048 63.5 149.048 62.9C149.048 62.3 149.48 61.9 150.128 61.9H286.821C287.469 61.9 287.901 62.3 287.901 62.9C287.901 63.5 287.361 63.9 286.821 63.9Z" fill="#27272E"/>
<path d="M150.236 105C150.345 106.3 151.425 107.3 152.83 107.3C153.37 107.3 153.91 107.1 154.343 106.7C155.855 105.6 157.476 104.7 159.205 104.1C163.852 102.6 168.822 102.7 173.793 102.9L211.505 104C218.529 104.2 225.66 104.4 232.468 102.7C239.816 100.8 246.732 96.2 248.785 89.4C249.973 85.5 249.217 81.4 246.84 78C243.166 73 237.763 73 232.576 73L158.773 72.8C148.291 72.8 149.696 77.9 149.372 85.5C149.048 91.7 150.02 98.5 150.236 105Z" fill="white"/>
<path d="M152.83 108C150.993 108 149.588 106.7 149.48 105C149.372 102.7 149.264 100.4 149.048 98.1C148.616 93.9 148.508 89.7 148.616 85.4C148.616 84.4 148.724 83.5 148.724 82.7C148.832 76.7 148.94 72 158.773 72H158.881L232.684 72.2C237.871 72.2 243.706 72.2 247.596 77.6C250.189 81.1 250.946 85.5 249.649 89.6C247.704 96 241.329 101.2 232.684 103.5C225.768 105.3 218.529 105.1 211.505 104.9L173.901 103.8C169.146 103.7 164.176 103.5 159.637 105C157.909 105.6 156.396 106.4 154.991 107.4C154.343 107.7 153.586 108 152.83 108ZM151.101 105C151.101 105.6 151.533 106.1 152.073 106.4C152.722 106.7 153.37 106.6 153.91 106.2C155.423 105 157.152 104.1 159.097 103.5C163.96 101.9 169.255 102.1 173.901 102.2L211.613 103.3C218.529 103.5 225.552 103.7 232.252 102C240.356 99.9 246.191 95.1 248.028 89.2C249.109 85.5 248.46 81.6 246.191 78.5C242.733 73.8 237.655 73.8 232.576 73.8L158.773 73.6H158.665C150.453 73.6 150.345 76.7 150.236 82.8C150.236 83.7 150.236 84.6 150.128 85.6C150.02 89.8 150.128 93.9 150.561 98.1C150.777 100.3 150.993 102.6 151.101 105Z" fill="#27272E"/>
<path d="M282.066 140.3C282.066 141.2 281.202 142 280.229 142C279.689 142 279.257 141.8 278.933 141.5C277.96 140.5 276.88 139.7 275.691 139.1C272.449 137.6 268.883 137.7 265.317 137.9L238.519 139C233.549 139.2 228.47 139.4 223.607 137.7C218.096 135.6 213.882 131.2 212.369 125.9C210.532 119.9 212.261 111.9 216.8 109.2C218.853 108 221.23 108 223.499 108L276.015 107.8C283.471 107.8 282.498 112.9 282.715 120.5C282.931 126.8 282.282 133.7 282.066 140.3Z" fill="#5F27CD"/>
<path d="M149.696 179.6C151.641 178.7 154.018 176 154.126 170C154.235 167.5 158.773 168.6 161.042 168.8L179.088 170C182.437 170.2 185.895 170.4 189.029 168.7C192.163 167 195.296 162.9 196.593 156.9C197.89 150.9 196.701 142.9 193.675 140.2C192.379 139.2 190.758 138.8 189.137 139L153.91 138.8C148.94 138.8 149.588 143.9 149.372 151.5C149.156 160.5 150.128 170.6 149.696 179.6Z" fill="white"/>
<path d="M149.696 180.3C149.264 180.3 148.832 180 148.832 179.6C149.156 174.6 148.94 169.2 148.724 164C148.616 159.8 148.399 155.5 148.508 151.4C148.508 150.4 148.508 149.5 148.508 148.6C148.616 142.6 148.616 137.9 153.694 137.9L188.921 138.1C190.758 137.9 192.595 138.5 194 139.6C197.457 142.6 198.43 151 197.241 157C196.053 162.7 193.135 167.3 189.245 169.3C185.787 171.2 182.113 170.9 178.764 170.7L160.826 169.6C160.394 169.6 159.854 169.5 159.205 169.4C157.8 169.2 155.639 169 154.883 169.5C154.667 169.6 154.667 169.9 154.667 170.1C154.559 177.3 151.209 179.7 149.696 180.3ZM153.802 139.4C150.453 139.4 150.236 142.2 150.236 148.6C150.236 149.5 150.236 150.4 150.236 151.4C150.128 155.4 150.344 159.8 150.453 163.9C150.669 168.6 150.777 173.5 150.561 178.1C151.749 177 153.262 174.7 153.37 170.1C153.37 169.5 153.694 168.9 154.126 168.4C155.315 167.4 157.692 167.7 159.637 168C160.178 168.1 160.718 168.1 161.15 168.1L179.088 169.2C182.329 169.4 185.571 169.6 188.597 168C191.947 166.1 194.648 161.9 195.729 156.7C197.025 150.6 195.729 143 193.027 140.7C191.947 139.9 190.434 139.5 189.029 139.7L153.802 139.4Z" fill="#27272E"/>
<path d="M281.742 239.5C281.742 239.9 281.418 240.3 280.878 240.3C280.553 240.3 280.337 240.2 280.121 239.9C278.284 237.6 275.691 235.8 272.773 234.9C268.235 233.4 263.156 233.5 258.294 233.7L220.906 234.8C213.99 235 206.858 235.2 200.159 233.5C193.459 231.8 187.084 227.7 184.491 221.7C181.897 215.7 184.274 207.7 190.65 205C193.567 203.8 196.809 203.8 200.051 203.8L273.314 203.6C283.687 203.6 282.282 208.7 282.607 216.3C282.931 223.9 281.742 231.9 281.742 239.5Z" fill="#5F27CD"/>
<path d="M188.489 196.4C191.947 197.4 195.729 197 199.402 196.6C220.906 194.4 242.625 194.6 264.129 197.1C268.343 197.6 272.665 198.1 276.663 197.1C280.661 196.1 284.443 192.8 284.443 188.9C284.443 185.4 281.418 182.5 277.96 181.1C274.502 179.7 270.612 179.7 266.938 179.7C246.407 179.6 224.472 182.5 204.157 180.2C198.538 179.6 193.459 178 188.273 181C181.465 184.8 179.088 193.7 188.489 196.4Z" fill="#5F27CD"/>
<path d="M128.409 204.2C132.839 201.3 138.35 198.4 144.185 199.1C148.183 199.5 151.749 201.8 153.37 205.2C154.667 208.2 154.343 211.4 153.586 214.5C150.669 228.1 142.456 241.3 130.138 252.5C140.619 259.8 150.236 267.7 156.72 277C163.203 286.3 166.337 296.9 163.311 307.3C161.907 312.5 158.773 317.1 154.451 320.6C149.156 324.7 142.564 327 135.649 327C126.248 327 118.576 322.6 112.524 318C98.0448 306.9 84.6457 291.3 85.4021 275.7C86.1585 258.8 90.4808 242.7 102.799 227.4C109.931 218.4 118.684 210.6 128.409 204.2Z" fill="white"/>
<path d="M135.757 327.7C127.869 327.7 120.305 324.8 112.092 318.5C87.3472 299.6 84.2135 283.5 84.6457 275.5C85.5102 256.1 91.1292 240.6 102.151 226.8C109.391 217.8 118.143 210 127.977 203.6C131.975 201 137.918 197.6 144.293 198.3C148.616 198.7 152.398 201.2 154.127 204.9C155.531 208.1 155.099 211.5 154.451 214.7C151.533 228.2 143.537 241.2 131.434 252.4C143.645 261 151.965 268.7 157.476 276.6C162.555 283.8 167.742 295 164.176 307.5C162.771 312.8 159.529 317.6 155.099 321.2C149.696 325.3 142.889 327.6 135.757 327.7ZM128.949 204.8C119.224 211.1 110.579 218.9 103.448 227.7C92.642 241.3 87.131 256.5 86.2666 275.6C85.6182 288.6 95.4515 303.8 113.173 317.3C121.061 323.3 128.301 326.1 135.865 326.1C142.564 326 149.048 323.8 154.127 319.9C158.341 316.5 161.366 312 162.663 307C166.121 295.1 161.042 284.3 156.18 277.3C150.669 269.4 142.24 261.7 129.814 253C129.598 252.9 129.489 252.7 129.489 252.5C129.489 252.3 129.598 252.1 129.706 251.9C142.024 240.8 150.02 227.8 152.938 214.3C153.586 211.3 154.018 208.2 152.722 205.4C151.209 202.2 147.859 200.1 144.185 199.8C138.35 199.1 132.731 202.3 128.949 204.8Z" fill="#27272E"/>
<path d="M102.799 227.3C109.931 218.4 118.684 210.7 128.409 204.3Z" fill="white"/>
<path d="M102.799 228C102.583 228 102.475 228 102.367 227.9C102.043 227.7 101.935 227.2 102.151 226.9C109.391 217.9 118.143 210.1 127.977 203.7C128.301 203.5 128.841 203.6 129.057 203.9C129.273 204.2 129.273 204.7 128.841 204.9C119.116 211.2 110.471 219 103.34 227.8C103.232 227.9 103.015 228 102.799 228Z" fill="#27272E"/>
<path d="M102.799 227.8C102.691 227.8 102.583 227.8 102.475 227.7C102.259 227.5 102.151 227.2 102.367 227C109.607 218.1 118.252 210.2 128.193 203.8C128.409 203.6 128.733 203.7 128.949 203.9C129.165 204.1 129.057 204.4 128.841 204.6C119.116 211 110.471 218.7 103.34 227.6C103.123 227.7 103.015 227.8 102.799 227.8Z" fill="#27272E"/>
<path d="M300.004 168.1C295.465 165.4 289.738 162.8 284.011 163.7C280.013 164.3 276.663 166.8 275.151 170.2C273.962 173.2 274.61 176.4 275.367 179.5C279.041 192.9 287.901 205.7 300.868 216.3C290.819 224.1 281.634 232.5 275.691 242C269.748 251.5 267.262 262.3 270.72 272.5C272.449 277.6 275.799 282.1 280.337 285.4C285.848 289.2 292.548 291.2 299.463 290.9C308.864 290.5 316.32 285.7 322.155 280.8C336.095 269 348.521 252.8 346.901 237.2C345.172 220.4 339.985 204.5 326.91 189.8C319.238 181.4 310.161 174 300.004 168.1Z" fill="white"/>
<path d="M298.167 291.8C291.575 291.8 285.092 289.8 279.905 286.1C275.259 282.7 271.801 278.1 270.072 272.9C265.75 260.6 270.396 249.2 275.043 241.8C280.121 233.7 288.009 225.6 299.68 216.4C286.929 205.8 278.284 193.2 274.61 179.8C273.746 176.7 273.098 173.3 274.394 170C276.015 166.3 279.581 163.6 283.903 163C290.279 162 296.438 165.1 300.544 167.5C310.809 173.5 319.886 180.9 327.666 189.5C339.445 202.8 345.928 218 347.873 237.3C348.738 245.2 346.468 261.4 322.804 281.5C314.916 288.2 307.568 291.4 299.68 291.8C299.139 291.8 298.707 291.8 298.167 291.8ZM286.389 164.3C285.632 164.3 284.876 164.4 284.119 164.5C280.445 165 277.312 167.3 275.907 170.6C274.826 173.5 275.367 176.6 276.231 179.5C279.905 192.8 288.658 205.4 301.517 215.9C301.733 216 301.841 216.3 301.733 216.5C301.733 216.7 301.625 216.9 301.408 217.1C289.414 226.4 281.418 234.5 276.339 242.6C271.909 249.8 267.37 260.8 271.477 272.5C273.097 277.4 276.339 281.8 280.77 285C286.064 288.7 292.656 290.6 299.355 290.4C306.919 290.1 313.943 286.9 321.507 280.5C338.364 266.2 347.333 250.5 346.036 237.6C344.091 218.6 337.824 203.6 326.154 190.6C318.59 182.1 309.513 174.8 299.463 169C296.222 166.7 291.359 164.3 286.389 164.3Z" fill="#27272E"/>
<path d="M326.91 189.9C319.238 181.4 310.161 174 300.004 168.1Z" fill="white"/>
<path d="M326.91 190.6C326.694 190.6 326.478 190.5 326.262 190.3C318.698 181.8 309.621 174.5 299.571 168.7C299.139 168.5 299.031 168.1 299.247 167.7C299.463 167.3 299.896 167.2 300.328 167.4C300.328 167.4 300.436 167.4 300.436 167.5C310.701 173.5 319.778 180.9 327.558 189.5C327.882 189.8 327.774 190.3 327.45 190.6C327.234 190.6 327.126 190.7 326.91 190.6Z" fill="#27272E"/>
<path d="M326.91 190.4C326.694 190.4 326.586 190.3 326.478 190.2C318.806 181.7 309.837 174.4 299.68 168.5C299.463 168.4 299.355 168.1 299.463 167.8C299.571 167.6 299.896 167.5 300.22 167.6C310.377 173.5 319.562 180.9 327.234 189.5C327.45 189.7 327.342 190 327.126 190.2C327.126 190.4 327.018 190.4 326.91 190.4Z" fill="#27272E"/>
<path d="M29.4285 43.1C26.7271 46.1 26.7271 49.7 26.8351 53.1C27.2673 70 27.8076 86.8 28.2399 103.7C28.3479 106.4 28.564 109.3 31.4816 111.2C34.3991 113.1 39.0456 113.2 43.2598 113.2L188.381 113.5C193.783 113.5 199.943 113.3 203.617 110.8C207.075 108.4 207.183 104.9 207.075 101.7C206.75 82.9 206.426 64.1 206.102 45.3C206.102 43.9 205.886 42.3 204.265 41.4C202.86 40.6 200.915 40.6 199.078 40.6H58.0636C52.4447 40.7 46.8257 40.5 41.2067 40C36.4522 39.3 32.0219 40.3 29.4285 43.1Z" fill="#5F27CD"/>
<path d="M96.0998 58.1C95.7756 58.1 95.5595 57.9 95.5595 57.6C95.5595 57.3 95.7756 57.1 96.0998 57.1C126.68 55.3 157.368 55.1 188.056 56.3C188.381 56.3 188.597 56.5 188.597 56.8C188.597 57.1 188.381 57.3 188.056 57.3C157.368 56.1 126.788 56.3 96.0998 58.1Z" fill="white"/>
<path d="M98.0448 68.7C97.7206 68.7 97.5045 68.5 97.5045 68.2C97.5045 67.9 97.7206 67.7 98.0448 67.7C127.544 64.4 157.26 63.8 186.868 66C187.192 66 187.408 66.3 187.408 66.5C187.408 66.8 187.084 67 186.868 67C157.368 64.9 127.652 65.4 98.2609 68.7H98.0448Z" fill="white"/>
<path d="M184.923 77L95.5595 76.9C95.2353 76.9 95.0192 76.7 95.0192 76.4C95.0192 76.1 95.2353 75.9 95.5595 75.9L184.923 76C185.247 76 185.463 76.2 185.463 76.5C185.463 76.8 185.139 77 184.923 77Z" fill="white"/>
<path d="M186.111 87.1L95.4514 86.8C95.1273 86.8 94.9111 86.6 94.9111 86.3C94.9111 86 95.1273 85.8 95.4514 85.8L186.111 86.1C186.436 86.1 186.652 86.3 186.652 86.6C186.652 86.9 186.436 87.1 186.111 87.1Z" fill="white"/>
<path d="M145.266 95.4C145.05 95.4 144.834 95.3 144.834 95.1C144.726 94.9 144.834 94.7 144.942 94.5C127.869 95.1 110.688 95 93.7225 94.2C93.3984 94.2 93.1823 94 93.1823 93.7C93.1823 93.4 93.3984 93.2 93.7225 93.2C111.66 94 129.706 94.1 147.643 93.4C147.967 93.3 148.183 93.5 148.291 93.8C148.399 94.1 148.183 94.3 147.859 94.4L145.482 95.4C145.374 95.4 145.266 95.4 145.266 95.4Z" fill="white"/>
<path d="M3.71087 63C-0.935587 48.9 5.6559 32.4 18.8389 24.2C32.0219 16 50.7158 16.4 63.7907 24.8C76.8656 33.2 83.6732 49 80.9718 63.6C77.9462 79.5 61.1973 94.2 42.8276 91C27.1593 88.1 8.57345 77.6 3.71087 63Z" fill="white"/>
<path d="M48.1224 92.1C46.2854 92.1 44.4484 91.9 42.7195 91.6C26.7271 88.8 8.03317 78.1 3.06254 63.1C-1.69198 49 4.8995 32 18.4067 23.5C31.9138 15 50.7158 15.4 64.2229 24.1C77.5139 32.7 84.5377 48.6 81.7282 63.6C79.8912 73 74.0561 81.3 65.6277 86.7C60.549 90.2 54.3897 92.1 48.1224 92.1ZM40.6664 19C33.1024 18.9 25.6465 20.9 19.3792 24.8C6.41231 32.9 0.0369314 49.2 4.57533 62.8C8.14122 73.7 22.5128 86.6 42.9356 90.2C50.6077 91.5 58.4959 89.8 64.7632 85.6C72.8675 80.4 78.3784 72.4 80.2154 63.5C82.9168 49 76.1092 33.7 63.3584 25.5C56.767 21.2 48.7707 18.9 40.6664 19Z" fill="#27272E"/>
<path d="M64.9793 38.7C68.4371 39.7 72.5433 39.8 75.0286 42.3C77.4059 44.6 77.622 48.1 77.0817 51.1C76.2173 56.7 73.1917 62.5 67.4646 64.3C63.0343 65.7 58.2798 64.4 53.7414 63.4C49.203 62.4 44.1243 61.6 40.1261 63.8C36.128 66 34.6152 70.3 32.0219 73.6C26.9432 79.7 18.5147 82.4 10.4104 80.6C5.76396 79.4 1.22556 76.2 0.90139 71.7C0.577218 67.1 4.57533 63.3 5.87202 58.9C8.03316 51 1.22556 43.2 1.65779 35.1C1.98196 31.3 3.60282 27.6 6.41231 24.8C9.11374 22 12.4635 19.6 16.1375 17.9C22.6209 14.7 30.0768 12.9 37.2086 14.3C42.3954 15.3 46.9338 18.2 49.8513 22.3C51.0399 24.1 51.5802 26.3 52.5527 28.2C53.6333 30.4 55.1461 32.4 56.9831 34.2C59.2523 36.3 61.9537 37.8 64.9793 38.7Z" fill="#27272E"/>
<path d="M56.9831 24C61.8457 36.4 61.7376 50.2 58.6039 63.1C58.1717 65 57.5234 66.8 56.5509 68.5C55.4703 70.2 53.8494 71.4 51.7963 72C48.8788 72.7 45.9612 71.3 43.4759 69.8C36.128 65 30.9413 58.1 25.4304 51.6C23.0531 48.8 20.5678 46 19.055 42.8C17.5422 39.6 17.0019 35.7 18.6228 32.5C19.9195 30 22.2967 28.2 24.674 26.7C28.3479 24.3 32.238 22.4 36.3442 20.8C40.1262 19.5 44.0162 18.6 48.0143 18.2C52.7688 17.6 55.4703 20.1 56.9831 24Z" fill="white"/>
<path d="M50.1755 73C48.0143 73 45.6371 72.2 42.9356 70.4C36.5603 66.2 31.6977 60.5 27.0512 54.9C26.2948 53.9 25.4304 53 24.674 52L24.0256 51.3C21.6484 48.8 19.7033 46 18.0825 43C16.2455 39.1 16.1374 35.1 17.6502 32C19.055 29.3 21.6484 27.4 24.0256 25.9C27.6996 23.5 31.6977 21.5 35.9119 19.9C39.6939 18.5 43.692 17.6 47.7982 17.2C52.3366 16.7 55.7944 18.9 57.6314 23.6C62.1698 35.4 62.7101 49 59.1442 63.2C58.712 65.2 57.9556 67.1 56.9831 68.9C55.9025 70.8 53.9575 72.2 51.7963 72.8C51.3641 72.9 50.8238 73 50.1755 73ZM49.0949 18.8C48.7707 18.8 48.3385 18.8 48.0143 18.9C44.1243 19.3 40.2342 20.1 36.6683 21.4C32.5621 23 28.7801 24.9 25.1062 27.2C22.945 28.6 20.4597 30.4 19.2711 32.7C17.8664 35.4 17.9744 38.9 19.7033 42.4C21.2161 45.3 23.1612 47.9 25.4304 50.3L26.0787 51C26.9432 52 27.6996 52.9 28.456 53.9C32.9944 59.4 37.7489 65.1 44.0162 69.1C47.0418 71 49.5271 71.7 51.6883 71.2C53.5252 70.7 55.038 69.5 55.9025 68C56.875 66.4 57.5234 64.6 57.8475 62.8C61.3054 49 60.7651 35.6 56.3347 24.2C54.8219 20.5 52.5527 18.7 49.0949 18.8Z" fill="#27272E"/>
<path d="M52.0124 43C52.1205 42.8 52.2286 42.5 52.5527 42.5C52.8769 42.5 52.8769 42.7 52.985 42.9C53.3091 43.6 55.038 47.5 53.4172 47.8C51.7963 48.1 51.7963 43.7 52.0124 43Z" fill="#27272E"/>
<path d="M39.1536 48.5C39.0456 48.3 39.0456 48 39.1536 47.8C39.6939 46.3 41.8551 49.8 41.639 50.9C41.0987 52.7 39.2617 49.2 39.1536 48.5Z" fill="#27272E"/>
<path d="M23.9176 16.7C21.8645 19.2 20.2436 22 18.9469 24.9C17.7583 27.8 17.4341 31 18.0825 34.1C19.055 38 21.9725 41.5 22.1887 45.5C22.4048 46.5 21.9725 47.6 21.2161 48.4C20.4597 48.9 19.4872 49.1 18.6228 49C14.9488 48.9 11.491 47.9 8.46539 46.1C5.43979 44.3 3.17059 41.5 1.98196 38.3C0.901387 34.6 1.00944 30.7 2.41419 27.1C3.06253 25 4.1431 23 5.54785 21.3C7.1687 19.6 9.22179 18.2 11.3829 17.1C14.5166 15.4 17.8664 14.6 21.2161 13.4C22.1887 13.1 23.3773 12.4 24.3498 13.1C25.6465 13.9 24.674 15.6 23.9176 16.7Z" fill="#27272E"/>
<path d="M34.2911 15.3C33.8588 15.9 33.4266 16.5 32.7783 16.9C30.293 19.1 28.1318 21.5 26.2948 24.1C24.4579 26.8 23.2692 29.8 22.9451 32.9C22.837 35.1 23.0531 37.2 23.5934 39.3C23.8095 39.9 23.8095 40.4 23.8095 41C23.8095 41.6 23.3773 42.1 22.837 42.4C21.8645 42.7 20.892 41.9 20.2436 41.1C13.8683 33 15.0569 21.8 22.9451 15C24.9982 13.2 27.5915 12 30.401 11.5C32.5622 11.2 35.8039 12.8 34.2911 15.3Z" fill="#5F27CD"/>
<path d="M34.6152 43.8C38.9375 44.1 43.3679 43.5 47.474 42C55.5783 38.8 60.9812 31.3 63.2504 23.5C64.439 19.5 64.8713 15.1 63.2504 11.3C62.494 9.2 60.7651 7.5 58.6039 6.5C56.2267 5.5 53.5253 5.9 51.0399 6.5C44.1243 8.2 37.857 11.6 31.5896 14.9C28.7801 16.3 26.0787 18 23.8095 20.1C21.2161 22.9 19.7033 26.5 19.4872 30.2C19.2711 33.4 19.8114 36.7 21.1081 39.7C22.1887 42.4 25.2143 42.5 27.9157 43C30.1849 43.4 32.4541 43.7 34.6152 43.8Z" fill="#27272E"/>
<path d="M45.4209 62.2C45.0968 61.9 44.7726 61.6 44.3404 61.6C43.9081 61.6 43.692 62 43.4759 62.4C42.9356 63.7 43.0437 65.2 43.8001 66.5C44.6645 67.7 46.1773 68.4 47.6901 68.3C49.0949 68.2 52.2286 66.4 51.0399 64.7C50.6077 64.1 49.311 64 48.6627 63.8C47.474 63.6 46.2854 63 45.4209 62.2Z" fill="#27272E"/>
<path d="M263.048 89.7C260.347 92.4 260.347 95.6 260.347 98.7C260.779 113.8 261.211 129 261.535 144.1C261.643 146.5 261.86 149.1 264.777 150.8C267.695 152.5 272.341 152.6 276.555 152.6L421.676 152.3C427.079 152.3 433.238 152.1 436.912 149.8C440.37 147.7 440.478 144.5 440.478 141.6L439.722 90.9C439.722 89.6 439.506 88.2 437.885 87.4C436.264 86.8 434.427 86.6 432.698 86.7L291.683 87.2C285.848 87.2 280.337 87.2 274.826 86.7C270.072 86.3 265.642 87.2 263.048 89.7Z" fill="white"/>
<path d="M276.339 153.3C271.909 153.3 267.479 153.1 264.453 151.4C260.995 149.4 260.887 146.1 260.887 144.1L259.698 98.7C259.59 95.8 259.482 92.1 262.616 89.2C265.209 86.7 269.748 85.5 274.934 86C280.121 86.5 285.524 86.5 291.683 86.5L432.698 86.1C434.643 86 436.48 86.2 438.317 86.9C439.938 87.8 440.802 89.4 440.586 91.1L441.343 141.8C441.343 145 441.126 148.4 437.453 150.7C433.562 153.1 427.619 153.3 421.784 153.3L276.663 153.6L276.339 153.3ZM272.773 87.3C268.883 87.3 265.642 88.3 263.697 90.2C261.319 92.5 261.211 95.3 261.319 98.6L262.616 144C262.724 146.4 262.94 148.6 265.425 150.1C268.127 151.7 272.557 151.8 276.771 151.8L421.892 151.5C427.187 151.5 433.238 151.3 436.696 149.1C439.722 147.2 439.938 144.4 439.83 141.5L438.965 90.9C438.965 89.5 438.749 88.6 437.561 88C436.048 87.5 434.319 87.3 432.698 87.4L291.683 87.9C285.416 87.9 280.121 87.8 274.718 87.4C274.07 87.4 273.314 87.3 272.773 87.3Z" fill="#27272E"/>
<path d="M349.602 100.5C323.884 98.3 298.059 98.2 272.233 100C271.909 100 271.693 99.8 271.693 99.5C271.693 99.2 271.909 99 272.233 99C298.059 97.2 323.992 97.3 349.71 99.5C350.034 99.5 350.25 99.8 350.25 100C350.142 100.3 349.926 100.5 349.602 100.5Z" fill="#27272E"/>
<path d="M274.718 107.5C274.394 107.5 274.178 107.3 274.178 107C274.178 106.7 274.394 106.5 274.718 106.5L349.602 106.3C349.926 106.3 350.142 106.5 350.142 106.8C350.142 107.1 349.926 107.3 349.602 107.3L274.718 107.5Z" fill="#27272E"/>
<path d="M273.422 116.2C273.097 116.2 272.881 116 272.881 115.7C272.881 115.4 273.097 115.2 273.422 115.2L352.087 114.9C352.411 114.9 352.628 115.1 352.628 115.4C352.628 115.7 352.411 115.9 352.087 115.9L273.422 116.2Z" fill="#27272E"/>
<path d="M354.032 125C327.342 124.2 300.22 124.1 273.422 124.6C273.097 124.6 272.881 124.4 272.881 124.1C272.881 123.8 273.097 123.6 273.422 123.6C300.22 123.1 327.342 123.2 354.032 124C354.357 124 354.573 124.2 354.573 124.5C354.573 124.8 354.357 125 354.032 125Z" fill="#27272E"/>
<path d="M313.079 136L274.718 135.5C274.394 135.5 274.178 135.3 274.178 135C274.178 134.7 274.394 134.5 274.718 134.5L313.079 135C313.403 135 313.619 135.2 313.619 135.5C313.619 135.8 313.403 136 313.079 136Z" fill="#27272E"/>
<path d="M459.172 86.8C464.791 103.9 456.795 123.8 440.802 133.8C424.81 143.8 402.226 143.3 386.341 133C370.457 122.7 362.353 103.6 365.594 86C369.268 66.8 389.583 48.9 411.843 52.9C430.861 56.4 453.337 69.1 459.172 86.8Z" fill="white"/>
<path d="M414.436 141.9C404.279 141.9 394.338 139.1 385.909 133.7C369.917 123.3 361.488 104.2 364.838 86C367.107 74.7 374.131 64.7 384.288 58.1C392.933 52.6 402.55 50.5 412.059 52.2C431.293 55.6 453.985 68.5 459.928 86.5C465.655 103.6 457.551 124.2 441.343 134.4C433.346 139.3 423.945 141.9 414.436 141.9ZM405.576 53.2C398.336 53.3 391.204 55.5 385.261 59.4C375.428 65.7 368.728 75.4 366.459 86.3C363.217 103.9 371.43 122.5 386.882 132.5C402.334 142.5 424.918 142.9 440.37 133.3C456.146 123.5 463.818 103.6 458.416 87.1C453.985 73.9 436.588 58.2 411.735 53.8C409.682 53.4 407.629 53.2 405.576 53.2Z" fill="#27272E"/>
<path d="M396.067 90.4C394.013 101 393.473 111.9 395.634 122.5C395.85 123.9 396.391 125.3 397.147 126.6C398.012 127.9 399.524 128.6 401.145 128.5C402.766 128.3 403.955 127 405.035 125.8C417.462 111.3 430.105 96.6 437.777 79.6C438.857 77.2 439.83 74.4 438.749 72C437.777 70.4 436.372 69 434.643 68.1C428.16 64.1 421.028 61 413.464 59.1C411.087 58.5 406.764 57.4 404.819 59.3C402.874 61.2 402.334 66.4 401.578 68.8C399.308 76 397.471 83.2 396.067 90.4Z" fill="#5F27CD"/>
<path d="M403.739 70C399.308 69.9 394.878 67.6 393.041 63.8C391.204 60 392.717 55 396.715 53.2C392.825 50.7 390.448 46.6 390.231 42.2C390.123 37.8 392.825 33.7 397.255 31.8C401.577 30.1 407.196 31.6 409.466 35.4C411.951 29.1 419.515 25.9 426.323 28.3C432.05 30.3 435.507 35.6 434.751 41.2C442.207 40.8 448.582 46.2 449.015 53.1C449.015 54 449.015 55 448.798 55.9C454.85 54.2 461.225 57.3 463.062 62.8C464.575 67.2 462.738 72.1 458.524 74.7C463.17 75.3 466.088 80.2 465.872 84.5C465.547 92.2 458.416 98.1 450.203 97.8C449.339 97.8 448.474 97.7 447.718 97.5C447.502 101.4 445.989 105.3 442.855 107.8C439.722 110.3 434.535 110.8 431.401 108.3C429.24 108.9 426.971 109.1 424.81 108.8C422.649 108.3 420.596 106.5 420.92 104.4C421.244 102.3 423.405 101 425.026 99.6C426.755 97.9 428.052 95.9 429.132 93.8L435.94 81.4C432.59 79.4 431.185 75.6 432.374 72.1C431.834 73.4 425.998 72.3 425.026 72C422.324 71.2 420.812 69.4 418.651 67.9C416.705 66.6 415.301 66.8 413.14 67.7C409.79 68.9 407.088 70.1 403.739 70Z" fill="#27272E"/>
<path d="M426.323 92.2C427.727 91.7 429.132 91.4 430.537 91.2C432.05 91.1 433.454 91.4 434.643 92.3C436.48 93.9 436.804 96.5 435.399 98.4C433.887 100.2 431.509 101.2 429.024 100.8C426.647 100.4 424.486 99.3 422.865 97.5" fill="#5F27CD"/>
<path d="M403.523 85.3C403.631 85.6 403.847 85.9 404.063 86.1C404.279 86.3 404.711 86.4 405.035 86.3C405.468 86 405.684 85.6 405.576 85.2C405.576 84.3 405.468 83.3 405.143 82.4C405.035 82 404.711 81.6 404.279 81.5C403.955 81.5 403.739 81.6 403.523 81.8C402.874 82.5 403.198 84.3 403.523 85.3Z" fill="#27272E"/>
<path d="M413.464 86C413.572 86.2 413.68 86.5 413.896 86.7C414.112 86.9 414.328 87 414.652 87C415.085 86.9 415.301 86.6 415.517 86.2C415.949 85.2 416.273 81.9 414.436 82C412.599 82.1 413.14 85.1 413.464 86Z" fill="#27272E"/>
<path d="M403.739 89.9H403.414C401.686 89.9 399.957 89.7 398.336 89.4C397.255 89.3 396.175 88.8 395.31 88.1C394.554 87.4 394.23 86.5 394.23 85.5C394.23 84.6 394.338 83.7 394.554 82.9C394.878 81.3 395.418 79.7 396.823 78.9C397.904 78.4 399.092 78.2 400.389 78.3H400.713C403.198 78.4 406.224 78.5 408.385 79.5C410.33 80.4 410.222 83.4 410.006 85.1C409.898 86.8 408.817 88.4 407.305 89.3C406.224 89.7 405.035 89.9 403.739 89.9ZM399.741 79.1C398.876 79.1 398.12 79.2 397.363 79.6C396.175 80.3 395.85 81.7 395.526 83C395.31 83.8 395.202 84.6 395.202 85.4C395.202 86.1 395.526 86.8 396.067 87.4C396.715 87.9 397.579 88.3 398.552 88.4C400.173 88.7 401.794 88.9 403.414 88.9C404.603 89 405.684 88.8 406.764 88.3C408.061 87.5 408.817 86.2 408.925 84.8C409.141 82.9 409.033 80.7 407.845 80.2C405.792 79.3 402.874 79.2 400.605 79.1H399.741Z" fill="#27272E"/>
<path d="M417.894 91.4C416.489 91.4 415.193 91.2 413.788 90.9C412.491 90.8 411.303 90.3 410.33 89.5C409.682 88.7 409.25 87.8 409.25 86.8C409.25 85.9 409.466 85 409.79 84.1C410.222 82.6 410.762 81 412.167 80.3C413.14 79.9 414.22 79.7 415.301 79.7C417.894 79.5 420.488 79.8 422.973 80.6C424.053 80.8 424.918 81.7 425.134 82.7C425.35 83.9 425.134 85.2 424.594 86.3C424.161 87.7 423.405 89 422.324 90C421.136 90.9 419.623 91.4 418.11 91.4H417.894ZM415.409 80.7C414.544 80.6 413.68 80.8 412.815 81.1C411.735 81.7 411.303 83 410.87 84.3C410.654 85.1 410.438 85.9 410.438 86.7C410.438 87.4 410.654 88.2 411.195 88.8C411.951 89.4 413.032 89.8 414.004 89.9C415.301 90.2 416.706 90.4 418.11 90.4C419.407 90.4 420.704 90 421.676 89.3C422.649 88.4 423.297 87.3 423.729 86C424.161 85 424.378 83.9 424.161 82.9C423.945 82.1 423.621 81.9 422.649 81.5C420.271 80.8 417.894 80.5 415.409 80.7Z" fill="#27272E"/>
<path d="M429.672 91.9C429.564 91.9 429.348 91.9 429.24 91.8C427.295 90 425.458 87.9 423.837 85.8C423.621 85.6 423.729 85.3 423.945 85.1C424.161 84.9 424.486 85 424.702 85.2C426.215 87.3 428.052 89.3 429.997 91.1C430.213 91.3 430.213 91.6 429.997 91.8C429.997 91.9 429.78 91.9 429.672 91.9Z" fill="#27272E"/>
<path d="M410.978 83H410.87C410.438 82.9 409.898 82.9 409.466 83C409.142 83.1 408.817 82.9 408.817 82.6C408.709 82.3 408.925 82 409.25 82C409.898 81.8 410.546 81.8 411.195 82C411.519 82 411.735 82.3 411.627 82.6C411.519 82.9 411.303 83 410.978 83Z" fill="#27272E"/>
<path d="M405.468 114.1C404.819 114.3 404.171 114.4 403.523 114.7C402.874 114.9 402.334 115.3 402.118 115.9C401.902 116.6 402.118 117.4 402.766 117.9C403.414 118.4 404.171 118.5 405.035 118.4C405.792 118.3 406.548 118 407.196 117.6C408.709 116.8 409.79 115.5 410.438 114C410.654 113.2 410.33 110.3 408.925 111.5C408.385 111.9 408.061 112.6 407.521 113.1C406.872 113.5 406.224 113.9 405.468 114.1Z" fill="#27272E"/>
</svg>
