<svg width="486" height="436" viewBox="0 0 486 436" fill="none" xmlns="http://www.w3.org/2000/svg">
<path opacity="0.3" d="M16.1924 157.879C16.1924 157.879 -69.3816 351.159 155.925 353.87C381.232 356.581 484.212 326.896 485.235 228.558C486.258 130.22 405.115 38.443 263.673 37.4303C122.231 36.407 45.7614 73.392 16.1924 157.89V157.879Z" fill="#e5e5e5"/>
<path d="M399.155 72.7169H233.904L236.172 234.74H463.008V136.57C463.008 101.305 434.42 72.7169 399.155 72.7169Z" fill="#5F27CD"/>
<path d="M216.73 72.7169H251.057C276.828 72.7169 297.747 93.6356 297.747 119.407V234.74H170.04V119.407C170.04 93.6356 190.959 72.7169 216.73 72.7169Z" fill="#292930"/>
<path d="M170.04 234.74H297.747V350.073C297.747 375.855 276.839 396.763 251.057 396.763H216.73C190.948 396.763 170.04 375.855 170.04 350.073V234.74Z" fill="#5F27CD"/>
<path opacity="0.09" d="M251.057 396.773H216.73C190.959 396.773 170.04 375.855 170.04 350.083V234.75L297.747 234.75V350.083C297.747 375.855 276.828 396.773 251.057 396.773Z" fill="#292930"/>
<path d="M356.811 139.492H349.332V3.65219C349.332 2.14367 350.555 0.919983 352.064 0.919983H354.079C355.587 0.919983 356.811 2.14367 356.811 3.65219V139.492Z" fill="#5F27CD"/>
<path opacity="0.44" d="M352.064 0.919983H354.079C355.587 0.919983 356.811 2.14367 356.811 3.65219V139.492H349.332V3.65219C349.332 2.14367 350.555 0.919983 352.064 0.919983Z" fill="white"/>
<path d="M353.287 153.734C361.153 153.734 367.529 147.358 367.529 139.492C367.529 131.627 361.153 125.251 353.287 125.251C345.422 125.251 339.046 131.627 339.046 139.492C339.046 147.358 345.422 153.734 353.287 153.734Z" fill="#01A3A4"/>
<path d="M356.811 4.66489H391.865V18.4525L356.811 27.3348V4.66489Z" fill="#01A3A4"/>
<path d="M383.616 234.74H321.915V257.167H383.616V234.74Z" fill="#292930"/>
<path d="M367.529 257.167H337.496V435.626H367.529V257.167Z" fill="#5F27CD"/>
<path opacity="0.44" d="M367.529 257.167H337.496V435.626H367.529V257.167Z" fill="white"/>
<path opacity="0.09" d="M337.496 257.167V316.98L367.529 297.844V257.167H337.496Z" fill="#292930"/>
<path d="M98.686 55.6907L107.104 17.366L114.541 46.4181C116.008 52.1251 120.501 56.5663 126.23 57.9587L147.771 63.1805L127.801 69.0142C121.324 70.913 116.261 75.9976 114.404 82.4853L106.872 108.752L100.216 80.7025C99.013 75.6601 95.0677 71.7147 90.0252 70.5332L70.6572 65.9866L98.7071 55.7012L98.686 55.6907Z" fill="#01A3A4"/>
<path d="M291.618 110.145L298.158 80.3649L303.939 102.929C305.078 107.371 308.57 110.82 313.022 111.896L329.753 115.957L314.235 120.494C309.203 121.97 305.268 125.916 303.823 130.958L297.979 151.36L292.81 129.566C291.881 125.642 288.812 122.582 284.887 121.665L269.834 118.131L291.628 110.145H291.618Z" fill="#01A3A4"/>
<path d="M88.5378 252.019L93.0422 231.512L97.0192 247.051C97.7999 250.11 100.205 252.483 103.275 253.222L114.794 256.017L104.108 259.14C100.638 260.153 97.937 262.874 96.9349 266.345L92.9051 280.396L89.3395 265.385C88.696 262.684 86.5862 260.574 83.8857 259.942L73.5265 257.505L88.5273 251.998L88.5378 252.019Z" fill="#01A3A4"/>
<path d="M198.037 183.376L201.413 168.007L204.398 179.653C204.989 181.942 206.793 183.725 209.082 184.284L217.722 186.383L209.715 188.725C207.12 189.484 205.084 191.52 204.345 194.126L201.328 204.664L198.659 193.419C198.174 191.394 196.592 189.811 194.566 189.337L186.802 187.512L198.048 183.387L198.037 183.376Z" fill="#01A3A4"/>
</svg>
